<svg xmlns="http://www.w3.org/2000/svg" xmlns:xlink="http://www.w3.org/1999/xlink" width="220" height="220" viewBox="0 0 220 220">
  <defs>
    <clipPath id="clip-path">
      <rect id="Rectangle_2773" data-name="Rectangle 2773" width="124.939" height="136.527" fill="#fff"/>
    </clipPath>
  </defs>
  <g id="Group_16450" data-name="Group 16450" transform="translate(-604 -6964.081)">
    <rect id="BG" width="220" height="220" rx="28" transform="translate(604 6964.081)" fill="#d42c26"/>
    <g id="Group_16418" data-name="Group 16418" transform="translate(651.531 7005.081)">
      <g id="Group_16285" data-name="Group 16285" transform="translate(0 0)" clip-path="url(#clip-path)">
        <path id="Path_11715" data-name="Path 11715" d="M85.491,50.22a2.151,2.151,0,0,1,.181-.948,1.542,1.542,0,0,0,.008-1.366c-.788-1.167-.328-2.371-.218-3.566a6.01,6.01,0,0,0,.182-1.084,1.069,1.069,0,0,1,.995-1.294,2.084,2.084,0,0,0,.684-.257,1.4,1.4,0,0,1,2.222.918,1.052,1.052,0,0,1,.043.583c-.444,1.072.06,2.167-.107,3.247-.1.658.857,1.35,1.628,1.178a1.84,1.84,0,0,1,1.483.25,1.649,1.649,0,0,0,1.944-.041,2.472,2.472,0,0,1,2.185-.268,5.778,5.778,0,0,0,2.851.034c.695-.156,1.42-.01,2.124-.184.59-.146,1.114-.265.648-1.039-.088-.146-.026-.279.008-.424.2-.879.148-.956-.8-1.136-.559-.106-1.1-.189-1.378-.825-.252-.571-.1-.9.435-1.105a1.071,1.071,0,0,1,.644-.121c.787.287,1.478-.1,2.213-.215a1.683,1.683,0,0,0,1.443-.989,2.831,2.831,0,0,1,1.566-1.494,1.511,1.511,0,0,0,.987-1.188,1.158,1.158,0,0,1,1.258-.936,2.254,2.254,0,0,0,2.369-1.615c.272-.739,1-1.074,1.617-1.462.32-.2.674.006.947.239.734.628,1.65.38,2.484.525.166.029.253-.132.319-.265a2.666,2.666,0,0,1,1.862-1.219c.714-.216,1.053.152.872.895-.035.143-.125.28.01.41.162.155.322.068.469-.03.362-.242.6-.115.757.248.02.045.046.088.07.131.86,1.525.86,1.525-.288,3.062a4.4,4.4,0,0,1,2.649-.034c.683.1,1.38.158,1.779.87a1.518,1.518,0,0,1-.416,2.207,4.586,4.586,0,0,0-.685.668.853.853,0,0,0,.11,1.352,1.391,1.391,0,0,1,.211.207c.237.294.508.633.221.987a.711.711,0,0,1-1.012.011,2.041,2.041,0,0,0-2.322-.354,4.6,4.6,0,0,0-2.008,1.313,7.8,7.8,0,0,1-2.109,1.95,1.08,1.08,0,0,0-.537,1.371c.5,1.547-.224,2.751-1.218,3.817-.5.538-.726,1.033-.318,1.7a1.975,1.975,0,0,1-.231,2.162,11.5,11.5,0,0,0-1.153,2.95c-.224.833-.645,1.079-1.4.669a1.461,1.461,0,0,0-1.533-.026c-.145.08-.328.192-.491.091-1.02-.635-.536.217-.477.512a6.857,6.857,0,0,1,.134,3c-.121.493-.138,1.028-.742,1.36-.295.162-.311.787-.174,1.24.1.329.19.663.256,1a2.234,2.234,0,0,1-1.24,2.431c-.475.173-.977-.292-1.523-.147-.118.031-.18-.311-.2-.511a12.384,12.384,0,0,0-1.116-4.341,2.723,2.723,0,0,1-.2-1.525,1.707,1.707,0,0,0-.32-1.113.729.729,0,0,0-.682-.357c-.342,0-.382.254-.471.479a4.3,4.3,0,0,0-.377,1.792,1.186,1.186,0,0,1-.643,1.166.619.619,0,0,1-.867-.114.754.754,0,0,0-.723-.386c-.156.012-.329-.1-.317-.252.047-.625-.411-1.035-.611-1.553a2.721,2.721,0,0,1,1.984-3.49c.969-.221,1.483-1.079,1.992-1.858.366-.56.162-1.432,1.04-1.744.268-.1-.024-.387-.2-.5a1.965,1.965,0,0,0-1.974-.172,1.622,1.622,0,0,1-1.683-.04,2.138,2.138,0,0,0-1.378-.129c-.734.06-1.464.175-2.2.264a7.108,7.108,0,0,1-2.691-.365.9.9,0,0,1-.723-1.034,21.564,21.564,0,0,0-.041-2.439c-.016-.236-.05-.606-.386-.646-.268-.032-.286.284-.4.463-.325.5-.751.414-1.137.111a4.233,4.233,0,0,1-.629-.724c-.287-.359-.543-.568-1.049-.247a.634.634,0,0,1-1.059-.45c-.053-.24-.167-.418-.437-.417-.291,0-.36.208-.382.449-.033.36-.2.431-.58.46-.484.038-.537.622-.742.988s-.15.578.231.94a8.829,8.829,0,0,0,2.38,1.428c.36.176.843.369.757.887-.09.544-.635.555-1.05.657a1.279,1.279,0,0,1-.653-.049c-.485-.152-.745-.111-.727.507.015.5-.153.887-.828.849-.64-.036-.913.559-.6,1.131a1.881,1.881,0,0,0,1.413.96,1.625,1.625,0,0,1,1.277,2.558c-.286.538-.087.855.136,1.371a11.151,11.151,0,0,1,1.131,2.644,31.275,31.275,0,0,0,.632,4.736c.288,1.033-.074,1.567-1.059,1.966-.675.273-.876.139-.928-.608-.013-.187.068-.393-.09-.567-.3.069-.192.356-.29.528-.142.25-.2.7-.664.325-.051-.042-.166-.086-.2-.06-.6.468-.826.167-.948-.431-.028-.137-.186-.15-.3-.051a12.551,12.551,0,0,1-3.8,2.014,1.813,1.813,0,0,0-.658,2.525.893.893,0,0,1-.147,1.358,1.647,1.647,0,0,0-.663,1.191.624.624,0,0,1-.147.409c-.918.8-1.4,2.118-2.789,2.37-.459.083-.907.228-1.36.349-.347.092-.67.139-.928-.208a.379.379,0,0,0-.635-.049c-.287.311.094.318.227.449.4.39-.035.549-.249.69a16.217,16.217,0,0,0-1.87,1.663,36.1,36.1,0,0,0-2.522,3.083,3.672,3.672,0,0,1-1.409,1.045,4.737,4.737,0,0,0-2.307,2,5.211,5.211,0,0,1-2.278,2.045,13.176,13.176,0,0,0-1.732.992c-.783.514-1.451,1.046-1.079,2.213.212.666-.288,1.2-.885,1.556a4.523,4.523,0,0,1-3.006.507,1.419,1.419,0,0,0-1.576.924c-.206.392-.37.811-.608,1.182a1.054,1.054,0,0,1-1.462.445,1.17,1.17,0,0,0-1.8.547c-.544,1.248-1.2,2.485-.728,3.958a3.928,3.928,0,0,1,.021,2.473,2.18,2.18,0,0,0,.173,1.437c.177.494.592,1.028-.022,1.548-.206.175.043.307.157.407a1.689,1.689,0,0,1,.478,1.828,21.436,21.436,0,0,0-.439,2.17,3.769,3.769,0,0,1-.991,1.953,3.843,3.843,0,0,0-.934,3.51,25.765,25.765,0,0,1,.3,4.473c.064,1.3-.625,1.752-1.888,1.382-.418-.123-.694-.011-.832.368a5.961,5.961,0,0,1-1.659,2.4c-.589.538-.425,1.165.282,1.531.333.172.938.233.852.675-.1.488-.679.236-1.025.227a16.933,16.933,0,0,0-2.777.389,1.98,1.98,0,0,0-1.6,1.835,3.306,3.306,0,0,1-2.352,2.748,2.658,2.658,0,0,1-2.135.025,4.938,4.938,0,0,1-1.554-.988,11.682,11.682,0,0,1-3.3-4.832,3.978,3.978,0,0,1-.265-1.07,12.492,12.492,0,0,0-1.319-4.885,15.86,15.86,0,0,1-.723-2.094,11.41,11.41,0,0,0-2.823-5.121,1.518,1.518,0,0,1-.356-.47,25.536,25.536,0,0,1-2.062-6.762,2.985,2.985,0,0,0-.141-.87,28.1,28.1,0,0,1-1.047-3.951,2.266,2.266,0,0,0-.6-1,2.571,2.571,0,0,1-.8-1.229c-.346-1.828-1.431-3.329-2.118-5a11.842,11.842,0,0,1-.575-3.708A63.327,63.327,0,0,0,18.8,87.258a17.654,17.654,0,0,1-.171-2.128,23.916,23.916,0,0,0-.545-2.954,5.366,5.366,0,0,1,.728-3.841,1.94,1.94,0,0,0,.014-2.266,2.164,2.164,0,0,1-.16-2,1.372,1.372,0,0,0-.167-1.392.977.977,0,0,1-.081-1.171.559.559,0,0,0-.152-.844c-.338-.177-.419.243-.583.423a1.069,1.069,0,0,0-.215,1.291,1.03,1.03,0,0,1-.285,1.33,1.117,1.117,0,0,0-.369.455c-.278,1.108-1.209,1.418-2.106,1.763-.736.283-1.517.467-2.223.808-1.5.725-2.722.149-3.9-.716A10.951,10.951,0,0,1,6.43,73.682a12.612,12.612,0,0,0-1.8-1.957,6.876,6.876,0,0,1-1.662-2.242.822.822,0,0,1,.29-1.159.691.691,0,0,1,1.034.2.88.88,0,0,0,.745.381c1.685.087,3-.795,4.35-1.609a.647.647,0,0,0,.151-.162c.183-.232.471-.526.317-.77-.174-.274-.484.034-.716.117a8.131,8.131,0,0,1-3.366.749,2.2,2.2,0,0,1-1.006-.207,7.375,7.375,0,0,1-3.38-3.371c-.1-.262-.162-.39-.5-.367C.16,63.332-.142,62.895.064,62.2a1.922,1.922,0,0,1,1.883-1.446c.519,0,.832-.134.939-.7a.775.775,0,0,1,.874-.64,8.91,8.91,0,0,1,3.689.5,1.806,1.806,0,0,0,1.825-.161c1.249-.724,1.291-.711,2.338.23a.43.43,0,0,0,.656.019c.256-.287.928-.221.809-.79a11.311,11.311,0,0,0-.99-3.3,3,3,0,0,1-.518-1.672c.023-.337-.156-.379-.463-.384a1.581,1.581,0,0,1-1.652-2.257c.117-.4.286-.788.409-1.189.235-.762-.058-1.193-.846-1.27a1.771,1.771,0,0,1-1.731-1.34,1.894,1.894,0,0,1,.8-2.2,5.088,5.088,0,0,0,1.555-1.656,3.389,3.389,0,0,1,1.308-1.279,1.1,1.1,0,0,1,1.753.567.873.873,0,0,0,1.255.59,10.316,10.316,0,0,1,2.322-.422,2.131,2.131,0,0,0,1.692-1.021,23.367,23.367,0,0,0,1.877-2.622,1.585,1.585,0,0,1,.956-.656A3.863,3.863,0,0,0,23,37.033c.359-.784.768-1.546,1.109-2.337a1.872,1.872,0,0,1,1.115-1.1,2.048,2.048,0,0,0,1.6-1.983.944.944,0,0,1,.468-.8A12.1,12.1,0,0,0,29.1,29.068c.068-.07.194-.163.181-.22-.192-.865.414-1.65.217-2.529a1.6,1.6,0,0,1,1.294-2.014c.38-.107.769-.188,1.137-.325.677-.252.745-.759.187-1.223a2.607,2.607,0,0,0-1.237-.442c-.576-.116-1.1-.285-1.247-.972-.071-.342-.372-.442-.672-.491a2.154,2.154,0,0,1-1.423-.7,1.21,1.21,0,0,0-.8-.339,1.2,1.2,0,0,1-1.082-1.133,5.246,5.246,0,0,1-.14-.948,17.28,17.28,0,0,0-.482-4.842,1.186,1.186,0,0,1,.5-1.35A11.961,11.961,0,0,1,27.4,10.1c.46-.225.408-.622.024-.876-.53-.351-1.1-.6-.736-1.43.114-.258-.216-.26-.4-.274a1.759,1.759,0,0,1-1.243-.59A3.254,3.254,0,0,0,22.874,5.84a1.305,1.305,0,0,1-1.218-1.5,1.308,1.308,0,0,1,.931-1.212,2.192,2.192,0,0,0,1.274-1.07A1.034,1.034,0,0,1,25.214,1.5c.286.076.58.125.861.215.427.136.752.045.867-.408A.67.67,0,0,1,27.775.77a2.437,2.437,0,0,0,1.616-.4A2.13,2.13,0,0,1,30.725.011c.759.073,1.516.177,2.276.216a2.189,2.189,0,0,1,1.884,1.236,3.406,3.406,0,0,0,1.859,1.464,5.654,5.654,0,0,1,2.614,2.164,2.545,2.545,0,0,0,1.7,1.3,1.084,1.084,0,0,1,1,.925c.111.579.679.584,1.076.476a7.916,7.916,0,0,0,2.478-.91,13.684,13.684,0,0,1,2.844-1.158c1.271-.5,2.265,0,3.359.315a6.208,6.208,0,0,1,.841.279A1.684,1.684,0,0,1,53.7,8.366c-.262.947-.634,1.863-.977,2.786a1.771,1.771,0,0,1-.622.816,3.142,3.142,0,0,0-1.532,2.122c-.074.492-.6.663-1.11.692-1.015.057-1.193.3-.854,1.22a.922.922,0,0,1-.141.971c-.4.466-.153.756.22,1.016.241.169.514.292.77.439a.924.924,0,0,1,.529,1.167.858.858,0,0,0,.326,1.027c.525.469.438,1.017-.189,1.382a5.694,5.694,0,0,0-1.228.938,1.029,1.029,0,0,1-1.82-.3c-.149-.293-.324-.645-.7-.529-.35.11-.2.506-.216.787a1.3,1.3,0,0,0,.351.946,2.6,2.6,0,0,1,.618,2.475,1.375,1.375,0,0,0,.047.943c.157.33.35.554.729.233.441-.373.8-.2,1.016.246A3.108,3.108,0,0,0,51.045,29.5a1.814,1.814,0,0,1,.925.583,4.922,4.922,0,0,0,2.478,1.527,2.631,2.631,0,0,1,.466.223c1.144.677,1.125,1,.09,1.851a8.913,8.913,0,0,1-1.549,1.225c-.114.058-.255.246-.238.35.131.808-.431,1.491-.382,2.28a1.628,1.628,0,0,1-.474,1.135c-.4.484-.248.8.261,1.038a.8.8,0,0,0,.271.114,6.133,6.133,0,0,1,3.021,1.218,3.708,3.708,0,0,1,.827.71,4.794,4.794,0,0,0,3.233,2,3.047,3.047,0,0,1,1.259.409,2.514,2.514,0,0,0,1.192.352,1.059,1.059,0,0,1,1.08.63.569.569,0,0,0,.515.353,6.335,6.335,0,0,1,1.305.23c.526.193,1,.406,1.429-.149a.162.162,0,0,1,.134-.053c1.031.251,2.073-.368,3.1.039a1.808,1.808,0,0,0,.434.079c1.178.149,1.181.148,1.4,1.38.05.287.153.551.444.626a6.552,6.552,0,0,1,1.677.762.824.824,0,0,0,.833-.02.853.853,0,0,1,1.328.551c.13.335.29.377.615.315a3.528,3.528,0,0,1,2.765.491,1.106,1.106,0,0,0,1.535-.068c.319-.284.571-.429.917.108.325.505.962.473,1.531.277a2.627,2.627,0,0,1,2.024.151" transform="translate(0 -0.003)" fill="#fff"/>
      </g>
    </g>
  </g>
</svg>
