<svg id="Group_16342" data-name="Group 16342" xmlns="http://www.w3.org/2000/svg" width="32" height="32" viewBox="0 0 32 32">
  <circle id="Ellipse_2" data-name="Ellipse 2" cx="16" cy="16" r="16" fill="#fff"/>
  <g id="Vector_Smart_Object" data-name="Vector Smart Object" transform="translate(7.822 7.822)">
    <path id="Path_4" data-name="Path 4" d="M8.848,6.312a2.727,2.727,0,1,0,2.727,2.727A2.732,2.732,0,0,0,8.848,6.312Zm8.179,2.727c0-1.129.01-2.248-.053-3.375a4.859,4.859,0,0,0-1.32-3.429A4.859,4.859,0,0,0,12.226.915C11.1.851,9.977.861,8.85.861S6.6.851,5.475.915a4.863,4.863,0,0,0-3.429,1.32A4.856,4.856,0,0,0,.726,5.663C.662,6.792.673,7.912.673,9.039s-.011,2.248.053,3.376a4.863,4.863,0,0,0,1.319,3.429,4.857,4.857,0,0,0,3.429,1.319c1.13.063,2.248.053,3.376.053s2.248.01,3.376-.053a4.861,4.861,0,0,0,3.428-1.319,4.858,4.858,0,0,0,1.32-3.429C17.039,11.287,17.027,10.168,17.027,9.039Zm-8.179,4.2a4.2,4.2,0,1,1,4.2-4.2A4.19,4.19,0,0,1,8.848,13.235Zm4.368-7.584a.98.98,0,1,1,.98-.98.992.992,0,0,1-.074.375.977.977,0,0,1-.213.318.956.956,0,0,1-.318.212A.978.978,0,0,1,13.216,5.651Z" transform="translate(-0.673 -0.861)" fill="#384f5d"/>
  </g>
</svg>
