<svg xmlns="http://www.w3.org/2000/svg" xmlns:xlink="http://www.w3.org/1999/xlink" width="160" height="160" viewBox="0 0 160 160">
  <defs>
    <linearGradient id="linear-gradient" x1="0.5" x2="0.5" y2="1" gradientUnits="objectBoundingBox">
      <stop offset="0" stop-color="#0061e5"/>
      <stop offset="1" stop-color="#2eabb8"/>
    </linearGradient>
    <clipPath id="clip-path">
      <rect id="Rectangle_2989" data-name="Rectangle 2989" width="119.251" height="119.251" fill="url(#linear-gradient)"/>
    </clipPath>
  </defs>
  <g id="Group_16610" data-name="Group 16610" transform="translate(-560 -2558.081)">
    <rect id="Rectangle_2952" data-name="Rectangle 2952" width="160" height="160" rx="6" transform="translate(560 2558.081)" fill="#3cb54b"/>
    <g id="Group_16542" data-name="Group 16542" transform="translate(580.375 2578.455)">
      <g id="Group_16541" data-name="Group 16541" clip-path="url(#clip-path)">
        <path id="Path_12207" data-name="Path 12207" d="M107.513,47.882a11.7,11.7,0,0,0-8.028,3.168,1.613,1.613,0,0,1-2.715-1.177V27.328a4.847,4.847,0,0,0-4.847-4.847H69.378A1.613,1.613,0,0,1,68.2,19.766a11.743,11.743,0,1,0-17.156-.006,1.614,1.614,0,0,1-1.172,2.721H27.328a4.847,4.847,0,0,0-4.847,4.847V49.873a1.613,1.613,0,0,1-2.715,1.177,11.743,11.743,0,1,0-.006,17.156,1.614,1.614,0,0,1,2.721,1.172V91.923a4.847,4.847,0,0,0,4.847,4.847H49.873a1.613,1.613,0,0,1,1.177,2.715,11.743,11.743,0,1,0,17.156.006,1.614,1.614,0,0,1,1.172-2.721H91.923a4.847,4.847,0,0,0,4.847-4.847V69.378a1.614,1.614,0,0,1,2.721-1.172,11.743,11.743,0,0,0,19.759-8.388,11.818,11.818,0,0,0-11.737-11.936" transform="translate(0 0)" fill="#ffdd03"/>
        <path id="Path_12208" data-name="Path 12208" d="M330.58,316.752a2.074,2.074,0,0,1-.531,1.424A106.457,106.457,0,0,0,311.7,346.564a2.836,2.836,0,0,1-2.726,1.66c-1.6-.08-3.33-.1-4.916-.045a2.83,2.83,0,0,1-2.5-1.325,132.243,132.243,0,0,0-10.806-14.632,1.333,1.333,0,0,1,.332-2c.939-.563,1.637-.908,3-1.612a6.009,6.009,0,0,1,7.877,2.2q1.937,3.167,3.657,6.42a129.123,129.123,0,0,1,21.552-22.074,2.093,2.093,0,0,1,3.406,1.6" transform="translate(-250.883 -271.834)" fill="#63b34b"/>
      </g>
    </g>
  </g>
</svg>
