<svg xmlns="http://www.w3.org/2000/svg" xmlns:xlink="http://www.w3.org/1999/xlink" width="160" height="160" viewBox="0 0 160 160">
  <defs>
    <clipPath id="clip-path">
      <rect id="Rectangle_3013" data-name="Rectangle 3013" width="107.506" height="90.554" fill="none"/>
    </clipPath>
  </defs>
  <g id="Group_16614" data-name="Group 16614" transform="translate(-1422 -2558.081)">
    <rect id="Rectangle_2982" data-name="Rectangle 2982" width="160" height="160" rx="6" transform="translate(1422 2558.081)" fill="#8aacdb"/>
    <g id="Group_16551" data-name="Group 16551" transform="translate(1448.746 2592.805)">
      <g id="Group_16550" data-name="Group 16550" transform="translate(0 -0.002)" clip-path="url(#clip-path)">
        <path id="Path_12230" data-name="Path 12230" d="M98.046,605.967H9.406A9.4,9.4,0,0,0,0,615.372v49.542a9.4,9.4,0,0,0,9.406,9.405H98.046a9.452,9.452,0,0,0,9.46-9.405V615.372a9.452,9.452,0,0,0-9.46-9.406" transform="translate(0 -583.766)" fill="#57768f" fill-rule="evenodd"/>
        <path id="Path_12231" data-name="Path 12231" d="M184.32,605.967H95.679a9.484,9.484,0,0,0-6.124,2.242L140.027,651.9l50.417-43.691a9.269,9.269,0,0,0-6.124-2.242" transform="translate(-86.274 -583.766)" fill="#43627c" fill-rule="evenodd"/>
        <path id="Path_12232" data-name="Path 12232" d="M340.277,1666.736a1.688,1.688,0,1,0-2.187,2.57l19.741,17.116a1.705,1.705,0,1,0,2.242-2.57Zm-46.7,0a1.656,1.656,0,0,1,2.351.164,1.719,1.719,0,0,1-.164,2.406l-19.8,17.116a1.653,1.653,0,0,1-2.351-.164,1.674,1.674,0,0,1,.164-2.406Z" transform="translate(-263.174 -1605.273)" fill="#43627c"/>
        <path id="Path_12233" data-name="Path 12233" d="M529.279,0H466.831A5.624,5.624,0,0,0,461.2,5.63V36.253l36.856,31.88,36.8-31.88V5.63A5.613,5.613,0,0,0,529.279,0" transform="translate(-444.302 0.002)" fill="#fbf3e2" fill-rule="evenodd"/>
        <path id="Path_12234" data-name="Path 12234" d="M1139.779,285.075c-4.867,4.538-8.531,7.984-11.483,10.718-2.352,2.187-4.265,4.047-5.906,5.578,1.148,2.57,2.3,5.195,3.445,7.765,1.148,2.625,2.3,5.195,3.445,7.82,2.242-.219,4.867-.383,8.093-.656,3.992-.328,9.023-.711,15.639-1.258-2.187-4.976-4.429-10.007-6.617-14.983-2.242-4.976-4.429-10.007-6.617-14.983" transform="translate(-1081.269 -274.631)" fill="#575169" fill-rule="evenodd"/>
        <path id="Path_12235" data-name="Path 12235" d="M1288.061,583.972l.82,1.859c2.242-.219,4.867-.383,8.093-.656,3.992-.328,9.023-.711,15.639-1.258-2.187-4.976-4.429-10.007-6.617-14.983l-2.133-4.757Z" transform="translate(-1240.87 -543.507)" fill="#413b54" fill-rule="evenodd"/>
        <path id="Path_12236" data-name="Path 12236" d="M1583.384,188.075h0a1.967,1.967,0,0,0-1.039,2.57l13.944,31.606a2.005,2.005,0,0,0,2.625.984,2.029,2.029,0,0,0,1.039-2.625l-13.944-31.552a2.006,2.006,0,0,0-2.625-.984" transform="translate(-1524.217 -181.021)" fill="#89d3dd" fill-rule="evenodd"/>
        <path id="Path_12237" data-name="Path 12237" d="M955.785,872.024l1.312-.93a1.842,1.842,0,0,1,2.57.383l14.873,20.014a1.834,1.834,0,0,1-.383,2.57l-1.258.984a1.962,1.962,0,0,1-2.625-.383l-14.819-20.068a1.825,1.825,0,0,1,.328-2.57" transform="translate(-920.077 -838.831)" fill="#575169" fill-rule="evenodd"/>
        <path id="Path_12238" data-name="Path 12238" d="M955.785,872.024l1.312-.93a1.842,1.842,0,0,1,2.57.383l9.952,13.4-3.39,4.265-10.772-14.546a1.825,1.825,0,0,1,.328-2.57" transform="translate(-920.077 -838.831)" fill="#413b54" fill-rule="evenodd"/>
        <path id="Path_12239" data-name="Path 12239" d="M867.661,731.817l4.539-1.968,6.89,15.584-4.539,1.969a8.48,8.48,0,0,1-11.1-4.265l-.055-.219a8.462,8.462,0,0,1,4.265-11.1" transform="translate(-831.079 -703.109)" fill="#89d3dd" fill-rule="evenodd"/>
        <path id="Path_12240" data-name="Path 12240" d="M1806.179,492.993a8.4,8.4,0,0,0,1.148-8.749l-.055-.164A8.484,8.484,0,0,0,1800,479.1Z" transform="translate(-1734.053 -461.551)" fill="#575169" fill-rule="evenodd"/>
      </g>
    </g>
  </g>
</svg>
