<svg xmlns="http://www.w3.org/2000/svg" xmlns:xlink="http://www.w3.org/1999/xlink" width="200" height="200" viewBox="0 0 200 200">
  <defs>
    <clipPath id="clip-path">
      <rect id="Rectangle_2886" data-name="Rectangle 2886" width="101.952" height="102.105" fill="none"/>
    </clipPath>
  </defs>
  <g id="Group_16438" data-name="Group 16438" transform="translate(-611 -5514.081)">
    <circle id="Ellipse_1328" data-name="Ellipse 1328" cx="100" cy="100" r="100" transform="translate(611 5514.081)" fill="#cf5c49"/>
    <g id="Group_16379" data-name="Group 16379" transform="translate(660.024 5560.098)">
      <g id="Group_16378" data-name="Group 16378" transform="translate(0 6)" clip-path="url(#clip-path)">
        <path id="Path_11910" data-name="Path 11910" d="M16.612,26.3a6.652,6.652,0,1,0-6.651,6.651A6.657,6.657,0,0,0,16.612,26.3m-8.131,0a1.479,1.479,0,1,1,1.481,1.481A1.484,1.484,0,0,1,8.481,26.3" transform="translate(7.98 47.394)" fill="#fff"/>
        <path id="Path_11911" data-name="Path 11911" d="M18.632,23.945a2.594,2.594,0,0,0-2.443.57,2.945,2.945,0,0,1-3.951,0,2.588,2.588,0,0,0-2.44-.57,11.3,11.3,0,0,0-8.056,13,9.338,9.338,0,0,0,9.182,7.633h6.582a9.341,9.341,0,0,0,9.182-7.633,11.3,11.3,0,0,0-8.056-13M21.6,36a4.172,4.172,0,0,1-4.1,3.409H10.924A4.166,4.166,0,0,1,6.826,36a6.154,6.154,0,0,1,3.293-6.661,8.114,8.114,0,0,0,8.189,0A6.156,6.156,0,0,1,21.6,36" transform="translate(3.728 57.527)" fill="#fff"/>
        <path id="Path_11912" data-name="Path 11912" d="M26.293,26.3a6.652,6.652,0,1,0-6.651,6.651A6.659,6.659,0,0,0,26.293,26.3m-8.131,0a1.479,1.479,0,1,1,1.481,1.481A1.484,1.484,0,0,1,18.162,26.3" transform="translate(31.333 47.394)" fill="#fff"/>
        <path id="Path_11913" data-name="Path 11913" d="M28.313,23.945a2.586,2.586,0,0,0-2.44.57,2.95,2.95,0,0,1-3.955,0,2.588,2.588,0,0,0-2.44-.57,11.3,11.3,0,0,0-8.056,13,9.338,9.338,0,0,0,9.182,7.633h6.582a9.341,9.341,0,0,0,9.182-7.633,11.3,11.3,0,0,0-8.056-13M31.285,36a4.169,4.169,0,0,1-4.1,3.409H20.605A4.166,4.166,0,0,1,16.507,36,6.154,6.154,0,0,1,19.8,29.34a8.114,8.114,0,0,0,8.189,0A6.156,6.156,0,0,1,31.285,36" transform="translate(27.081 57.527)" fill="#fff"/>
        <path id="Path_11914" data-name="Path 11914" d="M35.974,26.3a6.652,6.652,0,1,0-6.651,6.651A6.659,6.659,0,0,0,35.974,26.3m-8.131,0a1.479,1.479,0,1,1,1.481,1.481A1.484,1.484,0,0,1,27.843,26.3" transform="translate(54.686 47.394)" fill="#fff"/>
        <path id="Path_11915" data-name="Path 11915" d="M37.993,23.945a2.594,2.594,0,0,0-2.443.57,2.945,2.945,0,0,1-3.951,0,2.588,2.588,0,0,0-2.44-.57,11.3,11.3,0,0,0-8.056,13,9.338,9.338,0,0,0,9.182,7.633h6.582a9.341,9.341,0,0,0,9.182-7.633,11.3,11.3,0,0,0-8.056-13M40.965,36a4.169,4.169,0,0,1-4.1,3.409H30.285A4.166,4.166,0,0,1,26.187,36,6.154,6.154,0,0,1,29.48,29.34a8.114,8.114,0,0,0,8.189,0A6.156,6.156,0,0,1,40.965,36" transform="translate(50.432 57.527)" fill="#fff"/>
        <path id="Path_11916" data-name="Path 11916" d="M99.365,0H2.586A2.585,2.585,0,0,0,0,2.586v45.68A2.584,2.584,0,0,0,2.586,50.85H21.17a2.585,2.585,0,1,0,0-5.17h-16V5.173H96.779V45.68H80.5a2.585,2.585,0,1,0,0,5.17h18.87a2.584,2.584,0,0,0,2.587-2.583V2.586A2.585,2.585,0,0,0,99.365,0" transform="translate(0 0)" fill="#fff"/>
        <path id="Path_11917" data-name="Path 11917" d="M27.773,10.761a7.519,7.519,0,1,0-7.517,7.517,7.525,7.525,0,0,0,7.517-7.517m-9.865,0a2.348,2.348,0,1,1,2.348,2.348,2.352,2.352,0,0,1-2.348-2.348" transform="translate(30.72 7.826)" fill="#fff"/>
        <path id="Path_11918" data-name="Path 11918" d="M54.164,29.316V19.874a2.589,2.589,0,0,0-2.586-2.586H45.558a13.176,13.176,0,0,0-9.165-9.339,2.579,2.579,0,0,0-2.44.57,4.133,4.133,0,0,1-5.538,0,2.579,2.579,0,0,0-2.44-.57,13.206,13.206,0,0,0-9.165,9.339H10.79A2.589,2.589,0,0,0,8.2,19.874v9.442A2.589,2.589,0,0,0,10.79,31.9h1.573V41.91A2.584,2.584,0,0,0,14.947,44.5H47.421A2.584,2.584,0,0,0,50,41.91V31.9h1.573a2.589,2.589,0,0,0,2.586-2.586M26.248,13.34a9.3,9.3,0,0,0,9.868,0,8.211,8.211,0,0,1,3.965,3.948h-17.8a8.044,8.044,0,0,1,3.965-3.948m22.743,13.39h-1.57a2.585,2.585,0,0,0-2.587,2.586V39.327h-27.3V29.316a2.585,2.585,0,0,0-2.586-2.586h-1.57V22.46H48.991Z" transform="translate(19.79 18.934)" fill="#fff"/>
      </g>
    </g>
  </g>
</svg>
