<svg xmlns="http://www.w3.org/2000/svg" xmlns:xlink="http://www.w3.org/1999/xlink" width="200" height="200" viewBox="0 0 200 200">
  <defs>
    <clipPath id="clip-path">
      <rect id="Rectangle_2889" data-name="Rectangle 2889" width="106.373" height="109.289" fill="#fff"/>
    </clipPath>
  </defs>
  <g id="Group_16441" data-name="Group 16441" transform="translate(-1361 -5514.081)">
    <circle id="Ellipse_1331" data-name="Ellipse 1331" cx="100" cy="100" r="100" transform="translate(1361 5514.081)" fill="#cf5c49"/>
    <g id="Group_16385" data-name="Group 16385" transform="translate(1407.813 5559.436)">
      <g id="Group_16384" data-name="Group 16384" transform="translate(0 0)" clip-path="url(#clip-path)">
        <path id="Path_11925" data-name="Path 11925" d="M44.276,25.482l-3.194-.532a7.322,7.322,0,0,0-3.545.283l-2.4.8,2.467,15.5-3.021,4.933-3.021-4.933,2.467-15.5-2.4-.8a7.323,7.323,0,0,0-3.545-.283l-3.194.532c-8.685,2.327-8.13,9.381-8.13,9.381v8.2a19.873,19.873,0,0,0,5.942,2.813l.07-7.433,1.215,7.748c2.709,1.285,10.594,1.285,10.594,1.285s7.885,0,10.594-1.285l1.215-7.748.07,7.433a19.873,19.873,0,0,0,5.942-2.813v-8.2s.555-7.054-8.13-9.381" transform="translate(18.6 27.583)" fill="#fff"/>
        <path id="Path_11926" data-name="Path 11926" d="M38.675,25.049a8.825,8.825,0,1,1-8.824-8.824,8.823,8.823,0,0,1,8.824,8.824" transform="translate(23.337 18.009)" fill="#fff"/>
        <path id="Path_11927" data-name="Path 11927" d="M93.815,60a42.906,42.906,0,0,0,.382-5.355,42.877,42.877,0,0,0-.382-5.355l11.535-9.016a2.732,2.732,0,0,0,.656-3.5L95.072,17.868a2.738,2.738,0,0,0-3.336-1.2L78.123,22.13a40.029,40.029,0,0,0-9.239-5.355L66.805,2.295A2.668,2.668,0,0,0,64.126,0H42.258a2.668,2.668,0,0,0-2.68,2.294L37.5,16.775a42.138,42.138,0,0,0-9.239,5.355L14.647,16.665a2.67,2.67,0,0,0-3.336,1.2L.378,36.775a2.7,2.7,0,0,0,.656,3.5l11.535,9.016a43.7,43.7,0,0,0-.382,5.355A43.726,43.726,0,0,0,12.569,60L1.034,69.015a2.731,2.731,0,0,0-.656,3.5L11.312,91.419a2.735,2.735,0,0,0,3.336,1.2l13.613-5.465A39.953,39.953,0,0,0,37.5,92.512l2.078,14.481a2.668,2.668,0,0,0,2.68,2.3H64.126a2.668,2.668,0,0,0,2.68-2.3l2.078-14.481a41.97,41.97,0,0,0,9.239-5.355l13.613,5.465a2.67,2.67,0,0,0,3.336-1.2l10.934-18.905a2.731,2.731,0,0,0-.656-3.5ZM53.192,84.46A29.816,29.816,0,1,1,83.024,54.644,29.824,29.824,0,0,1,53.192,84.46" transform="translate(0 0.001)" fill="#fff"/>
      </g>
    </g>
  </g>
</svg>
