<svg xmlns="http://www.w3.org/2000/svg" xmlns:xlink="http://www.w3.org/1999/xlink" width="82.361" height="90" viewBox="0 0 82.361 90">
  <defs>
    <clipPath id="clip-path">
      <rect id="Rectangle_2773" data-name="Rectangle 2773" width="82.361" height="90" fill="#dbe5f2"/>
    </clipPath>
  </defs>
  <g id="Group_16285" data-name="Group 16285" transform="translate(0 -0.002)">
    <g id="Group_16285-2" data-name="Group 16285" transform="translate(0 0.002)" clip-path="url(#clip-path)">
      <path id="Path_11715" data-name="Path 11715" d="M56.357,33.106a1.418,1.418,0,0,1,.119-.625,1.017,1.017,0,0,0,.005-.9c-.52-.77-.217-1.563-.144-2.351a3.962,3.962,0,0,0,.12-.715.7.7,0,0,1,.656-.853,1.374,1.374,0,0,0,.451-.169.924.924,0,0,1,1.465.605.694.694,0,0,1,.028.384c-.293.707.04,1.428-.07,2.14-.067.434.565.89,1.073.777a1.213,1.213,0,0,1,.978.165,1.087,1.087,0,0,0,1.282-.027,1.629,1.629,0,0,1,1.441-.177,3.809,3.809,0,0,0,1.879.022c.458-.1.936-.007,1.4-.122.389-.1.735-.175.427-.685-.058-.1-.017-.184.005-.28.135-.58.1-.63-.525-.749-.369-.07-.724-.124-.909-.544-.166-.376-.063-.593.287-.729a.706.706,0,0,1,.424-.08c.519.189.974-.066,1.459-.142a1.11,1.11,0,0,0,.951-.652,1.866,1.866,0,0,1,1.032-.985,1,1,0,0,0,.651-.783.764.764,0,0,1,.829-.617,1.486,1.486,0,0,0,1.562-1.065c.179-.487.658-.708,1.066-.964.211-.133.444,0,.624.158.484.414,1.088.25,1.637.346.11.019.167-.087.211-.175a1.757,1.757,0,0,1,1.228-.8c.47-.143.694.1.575.59-.023.094-.083.185.007.27.107.1.213.045.309-.02.239-.16.393-.076.5.164.013.03.03.058.046.086.567,1.005.567,1.005-.19,2.018a2.9,2.9,0,0,1,1.746-.022c.45.068.91.1,1.173.574a1,1,0,0,1-.274,1.455,3.023,3.023,0,0,0-.452.44.562.562,0,0,0,.072.891.917.917,0,0,1,.139.136c.156.194.335.418.146.65a.468.468,0,0,1-.667.008,1.345,1.345,0,0,0-1.531-.233,3.033,3.033,0,0,0-1.324.865,5.143,5.143,0,0,1-1.39,1.286.712.712,0,0,0-.354.9,2.447,2.447,0,0,1-.8,2.516c-.33.354-.479.681-.21,1.124a1.3,1.3,0,0,1-.153,1.425,7.584,7.584,0,0,0-.76,1.945c-.148.549-.425.711-.922.441a.963.963,0,0,0-1.011-.017c-.1.053-.216.127-.324.06-.673-.418-.353.143-.315.337a4.52,4.52,0,0,1,.088,1.98c-.08.325-.091.678-.489.9-.194.107-.205.519-.115.818.066.217.125.437.169.659a1.473,1.473,0,0,1-.818,1.6c-.313.114-.644-.192-1-.1-.078.021-.119-.205-.132-.337A8.164,8.164,0,0,0,69,43.069a1.8,1.8,0,0,1-.133-1.005,1.125,1.125,0,0,0-.211-.734.481.481,0,0,0-.449-.235c-.225,0-.252.167-.31.315a2.833,2.833,0,0,0-.249,1.182.782.782,0,0,1-.424.769.408.408,0,0,1-.572-.075.5.5,0,0,0-.476-.255c-.1.008-.217-.066-.209-.166.031-.412-.271-.683-.4-1.023a1.794,1.794,0,0,1,1.308-2.3c.639-.145.977-.711,1.313-1.225.241-.369.107-.944.685-1.149.177-.063-.016-.255-.13-.328a1.3,1.3,0,0,0-1.3-.113,1.069,1.069,0,0,1-1.11-.026,1.41,1.41,0,0,0-.908-.085c-.484.039-.965.116-1.447.174a4.686,4.686,0,0,1-1.774-.241.59.59,0,0,1-.476-.682,14.215,14.215,0,0,0-.027-1.608c-.01-.156-.033-.4-.255-.426-.176-.021-.188.187-.265.305-.214.33-.495.273-.75.073a2.79,2.79,0,0,1-.415-.477c-.189-.237-.358-.375-.692-.163a.418.418,0,0,1-.7-.3c-.035-.159-.11-.276-.288-.275s-.237.137-.252.3c-.022.237-.129.284-.382.3-.319.025-.354.41-.489.651s-.1.381.152.62a5.82,5.82,0,0,0,1.569.942c.238.116.556.243.5.585-.059.359-.419.366-.692.433a.843.843,0,0,1-.431-.032c-.32-.1-.491-.073-.479.334.01.33-.1.584-.546.56-.422-.023-.6.368-.392.746a1.24,1.24,0,0,0,.932.633,1.071,1.071,0,0,1,.842,1.686c-.189.355-.058.563.09.9A7.351,7.351,0,0,1,59.5,43.4a20.616,20.616,0,0,0,.417,3.122c.19.681-.049,1.033-.7,1.3-.445.18-.577.092-.612-.4-.009-.123.045-.259-.06-.374-.2.045-.127.235-.191.348-.093.165-.134.463-.438.215-.034-.028-.11-.056-.131-.04-.4.308-.544.11-.625-.284-.018-.09-.123-.1-.2-.034a8.274,8.274,0,0,1-2.507,1.328,1.2,1.2,0,0,0-.434,1.664.589.589,0,0,1-.1.895,1.086,1.086,0,0,0-.437.785.411.411,0,0,1-.1.27c-.605.528-.921,1.4-1.838,1.562-.3.055-.6.15-.9.23-.229.061-.442.092-.612-.137a.25.25,0,0,0-.419-.032c-.189.205.062.209.15.3.262.257-.023.362-.164.455a10.69,10.69,0,0,0-1.233,1.1A23.8,23.8,0,0,0,46.712,57.7a2.421,2.421,0,0,1-.929.689A3.123,3.123,0,0,0,44.262,59.7a3.435,3.435,0,0,1-1.5,1.348,8.686,8.686,0,0,0-1.142.654c-.516.339-.957.69-.711,1.459.14.439-.19.794-.584,1.026a2.982,2.982,0,0,1-1.982.334.935.935,0,0,0-1.039.609c-.136.259-.244.535-.4.779a.7.7,0,0,1-.964.294.772.772,0,0,0-1.189.361,3.55,3.55,0,0,0-.48,2.609,2.59,2.59,0,0,1,.014,1.63,1.437,1.437,0,0,0,.114.948c.117.326.39.678-.014,1.02-.136.115.028.2.1.268a1.113,1.113,0,0,1,.315,1.2,14.13,14.13,0,0,0-.29,1.431,2.485,2.485,0,0,1-.654,1.287,2.534,2.534,0,0,0-.616,2.314,16.985,16.985,0,0,1,.2,2.949c.042.856-.412,1.155-1.245.911-.275-.081-.458-.007-.548.243a3.929,3.929,0,0,1-1.093,1.585c-.389.355-.28.768.186,1.009.219.113.619.154.561.445-.063.322-.447.155-.676.15a11.163,11.163,0,0,0-1.83.257,1.305,1.305,0,0,0-1.055,1.21,2.179,2.179,0,0,1-1.551,1.812,1.752,1.752,0,0,1-1.407.016,3.255,3.255,0,0,1-1.024-.652,7.7,7.7,0,0,1-2.175-3.185,2.622,2.622,0,0,1-.174-.705,8.235,8.235,0,0,0-.87-3.22,10.455,10.455,0,0,1-.476-1.381A7.521,7.521,0,0,0,18.2,77.344a1,1,0,0,1-.235-.31,16.834,16.834,0,0,1-1.359-4.457A1.968,1.968,0,0,0,16.516,72a18.526,18.526,0,0,1-.69-2.6,1.494,1.494,0,0,0-.4-.661,1.7,1.7,0,0,1-.527-.81,17.343,17.343,0,0,0-1.4-3.3,7.807,7.807,0,0,1-.379-2.444,41.746,41.746,0,0,0-.734-4.664,11.637,11.637,0,0,1-.113-1.4,15.766,15.766,0,0,0-.359-1.948,3.537,3.537,0,0,1,.48-2.532,1.279,1.279,0,0,0,.01-1.494,1.427,1.427,0,0,1-.105-1.315.9.9,0,0,0-.11-.918.644.644,0,0,1-.053-.772.369.369,0,0,0-.1-.557c-.223-.117-.276.16-.384.279a.7.7,0,0,0-.142.851.679.679,0,0,1-.188.877.736.736,0,0,0-.243.3c-.183.73-.8.935-1.388,1.162-.485.187-1,.308-1.465.533a2.336,2.336,0,0,1-2.574-.472,7.219,7.219,0,0,1-1.415-1.541,8.314,8.314,0,0,0-1.187-1.29,4.532,4.532,0,0,1-1.1-1.478.542.542,0,0,1,.191-.764.455.455,0,0,1,.681.131.58.58,0,0,0,.491.251,5.028,5.028,0,0,0,2.868-1.061.426.426,0,0,0,.1-.107c.121-.153.311-.347.209-.508-.114-.18-.319.022-.472.077a5.36,5.36,0,0,1-2.219.493,1.448,1.448,0,0,1-.663-.136A4.862,4.862,0,0,1,.914,41.96c-.068-.173-.107-.257-.331-.242-.478.032-.677-.256-.541-.713a1.267,1.267,0,0,1,1.241-.953c.342,0,.548-.089.619-.459a.511.511,0,0,1,.576-.422,5.874,5.874,0,0,1,2.432.33,1.19,1.19,0,0,0,1.2-.106c.824-.477.851-.469,1.541.152a.283.283,0,0,0,.432.012c.169-.189.612-.146.534-.521a7.456,7.456,0,0,0-.653-2.172,1.98,1.98,0,0,1-.341-1.1c.015-.222-.1-.25-.305-.253a1.042,1.042,0,0,1-1.089-1.488c.077-.265.188-.52.27-.784.155-.5-.038-.787-.558-.837A1.167,1.167,0,0,1,4.8,31.52a1.249,1.249,0,0,1,.526-1.452,3.354,3.354,0,0,0,1.025-1.091,2.234,2.234,0,0,1,.862-.843.725.725,0,0,1,1.155.374A.575.575,0,0,0,9.2,28.9a6.8,6.8,0,0,1,1.531-.278,1.405,1.405,0,0,0,1.115-.673,15.4,15.4,0,0,0,1.237-1.729,1.045,1.045,0,0,1,.63-.432,2.547,2.547,0,0,0,1.45-1.37c.236-.517.506-1.019.731-1.541a1.234,1.234,0,0,1,.735-.727,1.35,1.35,0,0,0,1.051-1.307.622.622,0,0,1,.309-.526,7.975,7.975,0,0,0,1.191-1.149c.045-.046.128-.107.12-.145-.126-.57.273-1.088.143-1.667a1.053,1.053,0,0,1,.853-1.328c.25-.07.507-.124.75-.215.446-.166.491-.5.123-.807a1.718,1.718,0,0,0-.816-.292c-.38-.076-.728-.188-.822-.641-.047-.226-.245-.291-.443-.323a1.42,1.42,0,0,1-.938-.463.8.8,0,0,0-.528-.224.792.792,0,0,1-.713-.747,3.458,3.458,0,0,1-.092-.625A11.391,11.391,0,0,0,16.5,8.5a.782.782,0,0,1,.331-.89,7.885,7.885,0,0,1,1.234-.946c.3-.148.269-.41.016-.577-.349-.231-.726-.4-.485-.942.075-.17-.142-.172-.265-.181a1.16,1.16,0,0,1-.819-.389,2.145,2.145,0,0,0-1.431-.72.861.861,0,0,1-.8-.986.862.862,0,0,1,.614-.8,1.445,1.445,0,0,0,.84-.705.682.682,0,0,1,.891-.372c.188.05.382.083.567.142.281.09.5.03.572-.269a.441.441,0,0,1,.55-.353A1.607,1.607,0,0,0,19.375.244a1.4,1.4,0,0,1,.88-.235c.5.048,1,.117,1.5.142A1.443,1.443,0,0,1,23,.966a2.245,2.245,0,0,0,1.226.965,3.727,3.727,0,0,1,1.723,1.426,1.677,1.677,0,0,0,1.121.854.715.715,0,0,1,.66.61c.073.382.448.385.709.314a5.219,5.219,0,0,0,1.634-.6,9.021,9.021,0,0,1,1.875-.764,3.148,3.148,0,0,1,2.214.208,4.093,4.093,0,0,1,.554.184A1.11,1.11,0,0,1,35.4,5.516c-.172.624-.418,1.228-.644,1.837a1.167,1.167,0,0,1-.41.538,2.071,2.071,0,0,0-1.01,1.4c-.049.325-.4.437-.732.456-.669.037-.786.2-.563.8a.608.608,0,0,1-.093.64c-.261.307-.1.5.145.67.159.111.339.192.508.289a.609.609,0,0,1,.348.769.565.565,0,0,0,.215.677c.346.309.289.671-.124.911a3.754,3.754,0,0,0-.809.619.678.678,0,0,1-1.2-.2c-.1-.193-.214-.425-.458-.348s-.135.334-.142.519a.86.86,0,0,0,.231.623,1.712,1.712,0,0,1,.407,1.631.907.907,0,0,0,.031.622c.1.218.231.365.481.153.291-.246.529-.13.67.162a2.049,2.049,0,0,0,1.4,1.163,1.2,1.2,0,0,1,.61.384,3.245,3.245,0,0,0,1.634,1.006,1.734,1.734,0,0,1,.307.147c.754.446.742.661.059,1.22a5.876,5.876,0,0,1-1.021.807c-.075.038-.168.162-.157.231.086.532-.284.983-.252,1.5a1.073,1.073,0,0,1-.312.748c-.264.319-.164.526.172.684a.525.525,0,0,0,.179.075,4.043,4.043,0,0,1,1.992.8,2.444,2.444,0,0,1,.545.468,3.16,3.16,0,0,0,2.131,1.318,2.009,2.009,0,0,1,.83.27,1.657,1.657,0,0,0,.786.232.7.7,0,0,1,.712.415A.375.375,0,0,0,42.2,30a4.176,4.176,0,0,1,.86.151c.347.127.66.268.942-.1a.107.107,0,0,1,.088-.035c.68.166,1.367-.242,2.046.026a1.191,1.191,0,0,0,.286.052c.776.1.779.1.92.91.033.189.1.364.293.413a4.319,4.319,0,0,1,1.106.5.543.543,0,0,0,.549-.013.562.562,0,0,1,.876.363c.085.221.191.249.405.208A2.325,2.325,0,0,1,52.4,32.8a.729.729,0,0,0,1.012-.045c.21-.187.376-.283.6.071.214.333.634.312,1.009.182a1.732,1.732,0,0,1,1.334.1" transform="translate(0 -0.003)" fill="#dbe5f2"/>
    </g>
  </g>
</svg>
