<svg xmlns="http://www.w3.org/2000/svg" xmlns:xlink="http://www.w3.org/1999/xlink" width="174.871" height="52.687" viewBox="0 0 174.871 52.687">
  <defs>
    <clipPath id="clip-path">
      <rect id="Rectangle_2774" data-name="Rectangle 2774" width="174.871" height="52.687" transform="translate(0 0)" fill="#dbe5f2"/>
    </clipPath>
  </defs>
  <g id="Group_16287" data-name="Group 16287" transform="translate(0 0)">
    <g id="Group_16286" data-name="Group 16286" clip-path="url(#clip-path)">
      <path id="Path_11716" data-name="Path 11716" d="M27.782,13.335c.955,2.837,2.624,4.8,5.365,4.8s4.413-1.967,5.37-4.81c.828.057,1.413-.853,1.8-2.09.584-1.9-.045-2.565-.882-2.8V8.385l.01.008a11.818,11.818,0,0,0-.172-4.2,1.368,1.368,0,0,0-1.164-1.065c-.852-1.591-2.971-2.08-4.1-2.334-5.584-1.3-5.65,2.2-5.65,2.2l.007,0h0l0,0a1.235,1.235,0,0,0-1.511,1.234,29.168,29.168,0,0,0,.005,4.161l.01-.008a.228.228,0,0,0,0,.05c-.836.239-1.465.909-.879,2.8.381,1.237.972,2.147,1.8,2.1" fill="#dbe5f2"/>
      <path id="Path_11717" data-name="Path 11717" d="M63.57,12.83c.955,2.837,2.628,4.8,5.366,4.8s4.415-1.967,5.367-4.812c.832.055,1.417-.851,1.8-2.087.585-1.9-.045-2.567-.887-2.8.008-.008.008-.04.008-.05l.007,0a11.836,11.836,0,0,0-.176-4.193A1.357,1.357,0,0,0,73.9,2.629c-.858-1.6-2.976-2.084-4.1-2.34-5.59-1.3-5.654,2.2-5.654,2.2l0,.011h0V2.49a1.238,1.238,0,0,0-1.511,1.234,29.323,29.323,0,0,0,.008,4.162l.012,0v.045c-.836.24-1.465.907-.879,2.807.379,1.236.969,2.142,1.8,2.1" fill="#dbe5f2"/>
      <path id="Path_11718" data-name="Path 11718" d="M99.4,12.995c.955,2.849,2.625,4.8,5.361,4.8s4.418-1.955,5.373-4.812c.833.057,1.414-.843,1.8-2.079.586-1.9-.046-2.57-.882-2.8V8.058h.013a11.923,11.923,0,0,0-.17-4.2,1.38,1.38,0,0,0-1.164-1.064c-.852-1.588-2.979-2.073-4.1-2.334-5.587-1.3-5.653,2.2-5.653,2.2l.007.006h-.007V2.657a1.245,1.245,0,0,0-1.513,1.234,29.351,29.351,0,0,0,.006,4.167h.014a.113.113,0,0,0,.008.046c-.842.234-1.469.906-.887,2.8.377,1.236.974,2.136,1.8,2.087" fill="#dbe5f2"/>
      <path id="Path_11719" data-name="Path 11719" d="M134.52,13.162c.961,2.848,2.627,4.808,5.369,4.808s4.409-1.96,5.366-4.813c.827.054,1.416-.845,1.8-2.085.587-1.893-.046-2.565-.884-2.8a.264.264,0,0,0,0-.05h0a11.909,11.909,0,0,0-.166-4.2,1.376,1.376,0,0,0-1.158-1.064C144,1.373,141.869.887,140.746.627c-5.589-1.3-5.653,2.2-5.653,2.2s.006,0,.006.01h-.006v-.01a1.241,1.241,0,0,0-1.508,1.239,27.635,27.635,0,0,0,.007,4.156h.012v.05c-.841.237-1.467.909-.881,2.8.383,1.24.97,2.139,1.8,2.09" fill="#dbe5f2"/>
      <path id="Path_11720" data-name="Path 11720" d="M9.615,25.254c.957,2.843,2.625,4.8,5.365,4.8S19.4,28.1,20.351,25.253c.83.052,1.414-.853,1.8-2.093.585-1.9-.043-2.563-.882-2.8v-.051l.012,0a11.827,11.827,0,0,0-.173-4.2,1.363,1.363,0,0,0-1.165-1.062c-.853-1.6-2.975-2.083-4.1-2.336-5.582-1.307-5.648,2.2-5.648,2.2a1.238,1.238,0,0,0-1.511,1.235,29.569,29.569,0,0,0,0,4.162l.012,0a.234.234,0,0,0,0,.049c-.835.237-1.466.9-.879,2.8.381,1.24.974,2.145,1.8,2.094" fill="#dbe5f2"/>
      <path id="Path_11721" data-name="Path 11721" d="M45.677,25.247c.957,2.838,2.631,4.805,5.369,4.805s4.412-1.967,5.363-4.814c.834.055,1.42-.851,1.805-2.088.584-1.9-.044-2.561-.885-2.8a.163.163,0,0,0,.006-.053l.005,0a11.8,11.8,0,0,0-.174-4.194,1.352,1.352,0,0,0-1.158-1.065c-.861-1.592-2.979-2.08-4.1-2.337-5.59-1.3-5.654,2.2-5.654,2.2a1.237,1.237,0,0,0-1.511,1.234,29.131,29.131,0,0,0,.011,4.161l.01,0v.044c-.835.247-1.464.909-.881,2.808.38,1.237.97,2.143,1.8,2.1" fill="#dbe5f2"/>
      <path id="Path_11722" data-name="Path 11722" d="M81.63,25.239c.951,2.849,2.625,4.8,5.359,4.8s4.415-1.955,5.375-4.811c.828.057,1.413-.843,1.8-2.081.583-1.9-.046-2.569-.882-2.8V20.3h.009a11.839,11.839,0,0,0-.17-4.194,1.374,1.374,0,0,0-1.162-1.063c-.852-1.589-2.976-2.078-4.1-2.338-5.589-1.3-5.651,2.2-5.651,2.2a1.247,1.247,0,0,0-1.512,1.238,29.109,29.109,0,0,0,0,4.16h.015a.185.185,0,0,0,0,.048c-.843.235-1.468.908-.884,2.8.378,1.238.972,2.138,1.8,2.088" fill="#dbe5f2"/>
      <path id="Path_11723" data-name="Path 11723" d="M118.2,25.239c.96,2.849,2.627,4.8,5.366,4.8s4.412-1.955,5.368-4.811c.826.057,1.417-.843,1.8-2.081.584-1.9-.05-2.569-.884-2.8a.161.161,0,0,0,0-.048h0a11.931,11.931,0,0,0-.169-4.194,1.368,1.368,0,0,0-1.154-1.063c-.86-1.589-2.984-2.078-4.109-2.338-5.589-1.3-5.655,2.2-5.655,2.2a1.24,1.24,0,0,0-1.5,1.238,27.947,27.947,0,0,0,0,4.16h.012v.048c-.836.235-1.464.908-.879,2.8.381,1.238.972,2.138,1.8,2.088" fill="#dbe5f2"/>
      <path id="Path_11724" data-name="Path 11724" d="M14.981,33.024c-8.333-.142-12.806,2.682-12.806,2.682C1.649,37,0,47.5,0,47.5s5.068,5.128,14.782,5.184C24.491,52.631,29.96,47.5,29.96,47.5s-1.648-10.5-2.174-11.8a34.468,34.468,0,0,0-12.8-2.682" fill="#dbe5f2"/>
      <path id="Path_11725" data-name="Path 11725" d="M154.515,24.775c.956,2.846,2.632,4.812,5.371,4.812s4.41-1.966,5.369-4.8c.82.047,1.414-.861,1.794-2.1.587-1.9-.043-2.563-.879-2.805a.436.436,0,0,0,0-.049l.014.008a29.823,29.823,0,0,0,0-4.161,1.237,1.237,0,0,0-1.511-1.236s-.066-3.5-5.649-2.2c-1.133.252-3.253.743-4.106,2.336a1.367,1.367,0,0,0-1.163,1.066,11.837,11.837,0,0,0-.172,4.195l.011-.008v.053c-.842.238-1.468.9-.882,2.8.387,1.235.971,2.143,1.8,2.087" fill="#dbe5f2"/>
      <path id="Path_11726" data-name="Path 11726" d="M172.7,35.233s-4.475-2.825-12.81-2.681a34.413,34.413,0,0,0-12.8,2.681c-.527,1.291-2.178,11.795-2.178,11.795s5.471,5.13,15.18,5.183c9.713-.053,14.786-5.183,14.786-5.183s-1.652-10.5-2.176-11.795" fill="#dbe5f2"/>
      <path id="Path_11727" data-name="Path 11727" d="M51.044,33.017c-8.336-.147-12.8,2.677-12.8,2.677-.527,1.293-2.177,11.8-2.177,11.8s5.071,5.124,14.787,5.177c9.7-.053,15.18-5.177,15.18-5.177s-1.65-10.508-2.176-11.8a34.44,34.44,0,0,0-12.81-2.677" fill="#dbe5f2"/>
      <path id="Path_11728" data-name="Path 11728" d="M86.989,33.008c-8.33-.146-12.805,2.685-12.805,2.685-.524,1.29-2.175,11.8-2.175,11.8s5.072,5.127,14.791,5.182c9.7-.055,15.177-5.182,15.177-5.182s-1.653-10.511-2.181-11.8a34.3,34.3,0,0,0-12.807-2.685" fill="#dbe5f2"/>
      <path id="Path_11729" data-name="Path 11729" d="M123.564,33.008c-8.336-.146-12.8,2.685-12.8,2.685-.532,1.29-2.178,11.8-2.178,11.8s5.068,5.127,14.783,5.182c9.709-.055,15.183-5.182,15.183-5.182s-1.648-10.511-2.176-11.8a34.4,34.4,0,0,0-12.809-2.685" fill="#dbe5f2"/>
      <path id="Path_11730" data-name="Path 11730" d="M36.805,33.425a23.9,23.9,0,0,1,9.014-2.8,10.124,10.124,0,0,1-2.2-3.264,5.812,5.812,0,0,1-2.3-3.422,6.144,6.144,0,0,1-.233-3.033,35.521,35.521,0,0,0-7.937-1.06,30.539,30.539,0,0,0-8.229.915,6.037,6.037,0,0,1-.206,3.2,5.834,5.834,0,0,1-2.3,3.411,9.96,9.96,0,0,1-2.358,3.413,35.126,35.126,0,0,1,8.878,2.5l.944.447.4.968a36.408,36.408,0,0,1,1.061,4.747c.525.035,1.061.057,1.619.06.6,0,1.178-.025,1.74-.066a36.9,36.9,0,0,1,1.065-4.758l.327-.794Z" fill="#dbe5f2"/>
      <path id="Path_11731" data-name="Path 11731" d="M72.755,33.423a23.723,23.723,0,0,1,9.008-2.8,10.194,10.194,0,0,1-2.192-3.265,5.763,5.763,0,0,1-2.307-3.421,5.82,5.82,0,0,1-.123-3.476,35.746,35.746,0,0,0-8.205-1.121,30.39,30.39,0,0,0-8.13.89,5.605,5.605,0,0,1-.028,3.716,5.846,5.846,0,0,1-2.309,3.411,9.891,9.891,0,0,1-2.353,3.409A35.4,35.4,0,0,1,65,33.263l.948.448.395.971a31.7,31.7,0,0,1,.969,4.259c.469.03.941.054,1.435.054.688,0,1.349-.038,1.991-.087a32.072,32.072,0,0,1,.966-4.231l.326-.8Z" fill="#dbe5f2"/>
      <path id="Path_11732" data-name="Path 11732" d="M109.325,33.423a23.8,23.8,0,0,1,9.014-2.806,10.168,10.168,0,0,1-2.2-3.262,5.865,5.865,0,0,1-2.305-3.412,6.058,6.058,0,0,1-.213-3.139,35.719,35.719,0,0,0-8.855-1.3,30.629,30.629,0,0,0-7.963.85,5.719,5.719,0,0,1-.077,3.587,5.813,5.813,0,0,1-2.307,3.412,9.966,9.966,0,0,1-2.352,3.407,35.036,35.036,0,0,1,8.873,2.5l.946.444.394.966a34,34,0,0,1,1.009,4.449c.424.023.846.047,1.29.052a25.189,25.189,0,0,0,2.713-.167,31.581,31.581,0,0,1,.988-4.336l.324-.8Z" fill="#dbe5f2"/>
      <path id="Path_11733" data-name="Path 11733" d="M145.938,32.8a35.2,35.2,0,0,1,8.324-2.4c-.045-.264-.091-.535-.139-.81a10.712,10.712,0,0,1-1.665-2.7,5.826,5.826,0,0,1-2.3-3.417,6.9,6.9,0,0,1-.333-2.183,36.027,36.027,0,0,0-9.934-1.617,31.515,31.515,0,0,0-6.568.542,5.6,5.6,0,0,1-.026,3.732,5.809,5.809,0,0,1-2.3,3.408,10.05,10.05,0,0,1-2.353,3.407,35.168,35.168,0,0,1,8.873,2.5l.944.444.4.966a34.394,34.394,0,0,1,1.047,4.658,26.6,26.6,0,0,0,3.624-.3,37.109,37.109,0,0,1,1.071-4.817l.4-.974Z" fill="#dbe5f2"/>
    </g>
  </g>
</svg>
