<svg id="Group_16288" data-name="Group 16288" xmlns="http://www.w3.org/2000/svg" xmlns:xlink="http://www.w3.org/1999/xlink" width="70.516" height="90" viewBox="0 0 70.516 90">
  <defs>
    <clipPath id="clip-path">
      <rect id="Rectangle_2775" data-name="Rectangle 2775" width="70.516" height="90" fill="#dbe5f2"/>
    </clipPath>
  </defs>
  <g id="Group_16288-2" data-name="Group 16288" clip-path="url(#clip-path)">
    <path id="Path_11734" data-name="Path 11734" d="M60.1,126.426a3.123,3.123,0,0,0,2.581,1.109,3.023,3.023,0,0,0,1.975-1.227,8.323,8.323,0,0,0,1.609-5.466c-.191-3.028-2.139-4.384-4.427-4.24s-4.05,1.735-3.858,4.764a8.447,8.447,0,0,0,2.12,5.061" transform="translate(-46.372 -93.273)" fill="#dbe5f2"/>
    <path id="Path_11735" data-name="Path 11735" d="M254.525,126.128a3.093,3.093,0,0,0,2.307,1.417,3.125,3.125,0,0,0,2.394-1.12,8.443,8.443,0,0,0,2.119-5.061c.191-3.028-1.57-4.619-3.858-4.763s-4.236,1.212-4.427,4.24a8.444,8.444,0,0,0,1.465,5.287" transform="translate(-202.435 -93.273)" fill="#dbe5f2"/>
    <path id="Path_11736" data-name="Path 11736" d="M27.087,127.05l-3.273-9.972-1.09-17.254L24.035,97.1l-.711-3a3.112,3.112,0,0,1,.658-2.729l5.68-6.659a1.935,1.935,0,0,0-3.669-.621l-5.34,11.093a9.461,9.461,0,0,1-1.011,3.582,4.394,4.394,0,0,1-3.435,2.7q-.1.006-.194.006a4.306,4.306,0,0,1-3.275-1.859l-.035,0-.223-.344c-.125-.177-.244-.36-.357-.551L3.566,85.508A1.939,1.939,0,1,0,.312,87.616l10.2,15.747.951,15.042L6.039,146.467a2.327,2.327,0,1,0,4.569.883l4.533-23.45c1.545-2.608,3.951-2.668,5.922-.281l4.478,13.642Z" transform="translate(0 -66.394)" fill="#dbe5f2"/>
    <path id="Path_11737" data-name="Path 11737" d="M187.593,379.424a2.276,2.276,0,0,0,1.952,3.026l-.929-6.14Z" transform="translate(-149.981 -301.048)" fill="#dbe5f2"/>
    <path id="Path_11738" data-name="Path 11738" d="M155.95,376.871l-.911,6.017a2.3,2.3,0,0,0,.411-.079,2.327,2.327,0,0,0,1.485-2.936Z" transform="translate(-124.031 -301.497)" fill="#dbe5f2"/>
    <path id="Path_11739" data-name="Path 11739" d="M233.869,87.617a1.939,1.939,0,1,0-3.255-2.108l-8.558,13.21c-.112.19-.232.373-.356.549l-.223.344-.036,0a4.306,4.306,0,0,1-3.275,1.859q-.1,0-.193-.006c-2.47-.156-4.2-3.221-4.446-6.278l-5.34-11.093a1.938,1.938,0,0,0-2.588-.906,1.918,1.918,0,0,0-1.019,1.237l5.818,6.821a3.083,3.083,0,0,1,.679,2.635l-.741,3.619,1.121,2.328-1.09,17.254-3.237,9.86,1.546,10.211,4.442-13.53c1.971-2.386,4.377-2.327,5.922.281l4.533,23.45a2.327,2.327,0,0,0,4.569-.883l-5.425-28.062.951-15.043Z" transform="translate(-163.665 -66.394)" fill="#dbe5f2"/>
    <path id="Path_11740" data-name="Path 11740" d="M155.958,136.077a3.363,3.363,0,0,0,2.163.962,3.625,3.625,0,0,0,2.987-1.656,9.611,9.611,0,0,0,1.838-5.6c0-3.412-2.09-5.072-4.668-5.072s-4.668,1.66-4.668,5.073c0,1.85.731,4.785,2.347,6.294" transform="translate(-122.889 -99.768)" fill="#dbe5f2"/>
    <path id="Path_11741" data-name="Path 11741" d="M137.239,126.16a2.694,2.694,0,0,0-.111-.436l.929-10.824a2.319,2.319,0,0,0,1.157-1.57l2.386-11.656.536-2.62a2.325,2.325,0,0,0-.509-1.976L136.5,91.063l-.829-.973a.771.771,0,0,1-.4.548,8.789,8.789,0,0,1-4.028,1.054,2.293,2.293,0,0,0,.476.942l5.629,6.6-2.361,11.536-1.285-.245v-2.012a4.076,4.076,0,0,1-2.83,1.287,3.951,3.951,0,0,1-2.6-1.069v1.7l-1.224.241-2.688-11.343,5.6-6.565a2.258,2.258,0,0,0,.5-1.111,9.822,9.822,0,0,1-3.523-1.005.775.775,0,0,1-.433-.7v-.194c0-.034,0-.067,0-.1-.029.031-.064.054-.092.086l-6.366,7.463a2.324,2.324,0,0,0-.494,2.046l3.475,14.665a2.316,2.316,0,0,0,1.121,1.487l.364,10.039a2.675,2.675,0,0,0-.225.715l-1.19,7.858h0l-1.546,10.211-2.177,14.376a2.714,2.714,0,1,0,5.368.813l.957-6.318,1.156-7.634,1.971-13.019a2.455,2.455,0,0,1,.133-.357c.017-.037.039-.07.058-.105a2.312,2.312,0,0,1,.117-.205c.026-.039.056-.072.084-.109.041-.053.082-.108.127-.156s.068-.064.1-.1.091-.085.139-.123.076-.053.115-.078.1-.066.151-.093.083-.041.125-.06.1-.047.158-.066.088-.028.133-.04.108-.029.164-.039.091-.015.137-.02.11-.011.166-.013c.022,0,.045-.005.067-.005s.026.005.04.005a2,2,0,0,1,.478.067c.024.006.047.014.07.022a1.949,1.949,0,0,1,.453.2c.018.011.034.024.052.036a1.956,1.956,0,0,1,.4.347c.009.01.017.023.026.034a2.128,2.128,0,0,1,.318.509l4.135,27.312a2.714,2.714,0,0,0,5.368-.813Z" transform="translate(-95.483 -71.726)" fill="#dbe5f2"/>
    <path id="Path_11742" data-name="Path 11742" d="M166.63,78.116v-.194a3.814,3.814,0,0,0-.5-1.848,8.8,8.8,0,0,0-1.067-1.207.777.777,0,0,1-.2.256,3.009,3.009,0,0,1-1.964.764,3.73,3.73,0,0,1-2.071-.714,1.064,1.064,0,0,1-.266-.29A3.631,3.631,0,0,0,159,77.922v.194a9.034,9.034,0,0,0,3.193.925c.233.021.466.042.7.043a7.972,7.972,0,0,0,3.735-.969" transform="translate(-127.202 -59.891)" fill="#dbe5f2"/>
    <path id="Path_11743" data-name="Path 11743" d="M173.416,60.187V56.935c-.074.005-.145.021-.22.021h-2.663c-.075,0-.146-.016-.22-.021v3.252a2.967,2.967,0,0,0,1.637.582,2.241,2.241,0,0,0,1.465-.582" transform="translate(-136.251 -45.548)" fill="#dbe5f2"/>
    <path id="Path_11744" data-name="Path 11744" d="M156.992,1.657a1.584,1.584,0,0,0,.927.656,9.927,9.927,0,0,0,3.584.51c.953-.038,3-.155,3.717-.883C166.707.435,161.751,0,161.154,0a7.851,7.851,0,0,0-3.6.635c-.584.316-.727.691-.558,1.022" transform="translate(-125.54)" fill="#dbe5f2"/>
    <path id="Path_11745" data-name="Path 11745" d="M136.925,18.707a6.379,6.379,0,0,0,3.008.656l.172,0a2.5,2.5,0,0,0,.181.214c.021.023.041.047.063.069a2.363,2.363,0,0,0,.268.225l.033.025a2.367,2.367,0,0,0,.334.195l.005,0a2.358,2.358,0,0,0,.787.216c.073.007.145.021.22.021h2.663c.075,0,.146-.014.22-.021a2.357,2.357,0,0,0,.787-.216l.006,0a2.364,2.364,0,0,0,.333-.195l.033-.026a2.357,2.357,0,0,0,.267-.225c.022-.022.042-.047.064-.07a2.482,2.482,0,0,0,.181-.215c.089,0,.179,0,.266,0a6.383,6.383,0,0,0,3.009-.656,4.187,4.187,0,0,0,2.231-2.881,3.2,3.2,0,0,0-1.642-3.442,3.283,3.283,0,0,0-2.249-.12,5.146,5.146,0,0,0-.707.261l.005-.066a10.8,10.8,0,0,1-8.273,0l0,.022a5.033,5.033,0,0,0-.608-.218,3.27,3.27,0,0,0-2.248.12,3.2,3.2,0,0,0-1.642,3.442,4.187,4.187,0,0,0,2.232,2.881m11.654-4.948a1.748,1.748,0,0,1,1.184.033,1.66,1.66,0,0,1,.767,1.756,2.666,2.666,0,0,1-1.423,1.784,4.76,4.76,0,0,1-2.083.469l.284-3.452a5.572,5.572,0,0,1,1.271-.589m-11.593.033a1.753,1.753,0,0,1,1.183-.033,5.235,5.235,0,0,1,1.171.531l.289,3.509a4.655,4.655,0,0,1-1.986-.468,2.665,2.665,0,0,1-1.423-1.784,1.661,1.661,0,0,1,.766-1.756" transform="translate(-107.712 -9.696)" fill="#dbe5f2"/>
  </g>
</svg>
