<svg xmlns="http://www.w3.org/2000/svg" width="45" height="45" viewBox="0 0 45 45">
  <g id="instagram" transform="translate(-1160 -5069)">
    <circle id="Ellipse_2" data-name="Ellipse 2" cx="22.5" cy="22.5" r="22.5" transform="translate(1160 5069)"/>
    <g id="Vector_Smart_Object" data-name="Vector Smart Object" transform="translate(1170.328 5079.139)">
      <path id="Path_4" data-name="Path 4" d="M12.169,8.526A3.835,3.835,0,1,0,16,12.361,3.843,3.843,0,0,0,12.169,8.526Zm11.5,3.834c0-1.588.014-3.162-.075-4.746A6.833,6.833,0,0,0,21.74,2.793,6.833,6.833,0,0,0,16.919.936C15.331.847,13.757.862,12.172.862S9.011.847,7.425.936A6.839,6.839,0,0,0,2.6,2.793,6.829,6.829,0,0,0,.748,7.615C.658,9.2.674,10.776.674,12.361s-.015,3.162.075,4.747A6.839,6.839,0,0,0,2.6,21.93a6.83,6.83,0,0,0,4.822,1.855c1.589.089,3.162.075,4.747.075s3.162.014,4.747-.075A6.836,6.836,0,0,0,21.74,21.93,6.831,6.831,0,0,0,23.6,17.108C23.689,15.522,23.671,13.949,23.671,12.361Zm-11.5,5.9a5.9,5.9,0,1,1,5.9-5.9A5.892,5.892,0,0,1,12.169,18.262ZM18.312,7.6A1.378,1.378,0,1,1,19.69,6.219a1.394,1.394,0,0,1-.1.527,1.374,1.374,0,0,1-.3.447,1.344,1.344,0,0,1-.447.3A1.376,1.376,0,0,1,18.312,7.6Z" fill="#fff"/>
    </g>
  </g>
</svg>
