<svg id="Group_16518" data-name="Group 16518" xmlns="http://www.w3.org/2000/svg" xmlns:xlink="http://www.w3.org/1999/xlink" width="284.511" height="284.511" viewBox="0 0 284.511 284.511">
  <defs>
    <clipPath id="clip-path">
      <rect id="Rectangle_2974" data-name="Rectangle 2974" width="284.511" height="284.511" fill="none"/>
    </clipPath>
  </defs>
  <g id="Group_16517" data-name="Group 16517" clip-path="url(#clip-path)">
    <path id="Path_12157" data-name="Path 12157" d="M142.255,0A142.256,142.256,0,1,0,284.511,142.254,142.261,142.261,0,0,0,142.255,0m0,271.02A128.764,128.764,0,1,1,271.02,142.254,128.761,128.761,0,0,1,142.255,271.019" transform="translate(0 0.001)"/>
    <path id="Path_12158" data-name="Path 12158" d="M347.527,220.451H328.282l0,3.764a6.557,6.557,0,1,1-13.114,0v-3.76H266.355l0,3.764a6.557,6.557,0,1,1-13.114,0v-3.76H233.992a8.926,8.926,0,0,0-8.922,8.922V238.3H356.453l0-8.923a8.927,8.927,0,0,0-8.924-8.924" transform="translate(-148.74 -145.688)" fill="#f8c600" fill-rule="evenodd"/>
    <path id="Path_12159" data-name="Path 12159" d="M485.565,220.451H466.319l0,3.764a6.557,6.557,0,1,1-13.114,0v-3.76h-2.438a169.991,169.991,0,0,0-16.82,17.848H494.49l0-8.923a8.927,8.927,0,0,0-8.924-8.924" transform="translate(-286.777 -145.688)" fill="#ffe495" fill-rule="evenodd"/>
    <path id="Path_12160" data-name="Path 12160" d="M441.262,360.477a48.656,48.656,0,1,0,48.656,48.656,48.654,48.654,0,0,0-48.656-48.656" transform="translate(-259.458 -238.225)" fill="#f8c600" fill-rule="evenodd"/>
    <path id="Path_12161" data-name="Path 12161" d="M225.07,403.242a8.926,8.926,0,0,0,8.925,8.923h44.758a62.658,62.658,0,0,1,1.222-72.2H269.231a2.244,2.244,0,0,1-2.238-2.238V325.411a2.244,2.244,0,0,1,2.238-2.238h12.312a2.244,2.244,0,0,1,2.238,2.238v9.846q1.2-1.345,2.473-2.62a62.691,62.691,0,0,1,70.2-12.753v-8.139H225.07Z" transform="translate(-148.74 -206.02)" fill="#f8c600" fill-rule="evenodd"/>
    <path id="Path_12162" data-name="Path 12162" d="M325.129,394.945a205.006,205.006,0,0,0-17.426,72.2h25.659a62.657,62.657,0,0,1,1.222-72.2Z" transform="translate(-203.349 -261.004)" fill="#ffe495" fill-rule="evenodd"/>
    <path id="Path_12163" data-name="Path 12163" d="M384.289,323.173h2.475A2.244,2.244,0,0,1,389,325.411v9.846q1.2-1.345,2.473-2.62a62.691,62.691,0,0,1,70.2-12.753v-8.14H391.393q-3.737,5.544-7.1,11.429" transform="translate(-253.962 -206.02)" fill="#ffe495" fill-rule="evenodd"/>
    <path id="Path_12164" data-name="Path 12164" d="M276.418,519.075H264.106a2.244,2.244,0,0,0-2.238,2.238v12.312a2.244,2.244,0,0,0,2.238,2.238h12.312a2.244,2.244,0,0,0,2.238-2.238V521.313a2.244,2.244,0,0,0-2.238-2.238" transform="translate(-173.058 -343.037)" fill-rule="evenodd"/>
    <path id="Path_12165" data-name="Path 12165" d="M276.418,432.259H264.106a2.244,2.244,0,0,0-2.238,2.238v12.312a2.244,2.244,0,0,0,2.238,2.238h12.312a2.244,2.244,0,0,0,2.238-2.238V434.5a2.244,2.244,0,0,0-2.238-2.238" transform="translate(-173.058 -285.663)" fill-rule="evenodd"/>
    <path id="Path_12166" data-name="Path 12166" d="M276.418,345.443H264.106a2.244,2.244,0,0,0-2.238,2.238v12.312a2.244,2.244,0,0,0,2.238,2.238h12.312a2.244,2.244,0,0,0,2.238-2.238V347.681a2.244,2.244,0,0,0-2.238-2.238" transform="translate(-173.058 -228.29)" fill-rule="evenodd"/>
    <path id="Path_12167" data-name="Path 12167" d="M344.007,221.929V183.7a22.043,22.043,0,0,0-22.039-22.04H302.723V157.9a6.558,6.558,0,0,0-13.116,0v3.76H240.8V157.9a6.558,6.558,0,0,0-13.117,0v3.76H208.435a22.045,22.045,0,0,0-22.041,22.043v113.53a22.044,22.044,0,0,0,22.038,22.043h56.732a62.637,62.637,0,1,0,78.842-97.348M199.511,183.7a8.926,8.926,0,0,1,8.922-8.922H227.68v3.76a6.557,6.557,0,1,0,13.114,0v-3.764h48.811v3.76a6.557,6.557,0,1,0,13.114,0l0-3.764h19.245a8.927,8.927,0,0,1,8.924,8.924v8.923H199.511Zm44.161,50.256h10.744a62.658,62.658,0,0,0-1.222,72.2H208.435a8.926,8.926,0,0,1-8.925-8.923v-91.5H330.893v8.139a62.691,62.691,0,0,0-70.2,12.753q-1.275,1.274-2.473,2.62v-9.846a2.244,2.244,0,0,0-2.238-2.238H243.671a2.244,2.244,0,0,0-2.238,2.238V231.72a2.244,2.244,0,0,0,2.238,2.238m61.314,85.623a48.656,48.656,0,1,1,48.656-48.657,48.506,48.506,0,0,1-48.656,48.657" transform="translate(-123.181 -100.017)" fill-rule="evenodd"/>
    <path id="Path_12168" data-name="Path 12168" d="M529.444,440.767V419.173a6.991,6.991,0,1,0-13.982,0l.017,24.129a6.953,6.953,0,0,0,1.65,4.505L538.8,473.416a6.975,6.975,0,0,0,10.649-9.01Z" transform="translate(-340.649 -272.395)" fill="#053c48" fill-rule="evenodd"/>
  </g>
</svg>
