<svg id="Group_16514" data-name="Group 16514" xmlns="http://www.w3.org/2000/svg" xmlns:xlink="http://www.w3.org/1999/xlink" width="284.511" height="284.511" viewBox="0 0 284.511 284.511">
  <defs>
    <clipPath id="clip-path">
      <rect id="Rectangle_2972" data-name="Rectangle 2972" width="284.511" height="284.511" fill="none"/>
    </clipPath>
  </defs>
  <g id="Group_16513" data-name="Group 16513" clip-path="url(#clip-path)">
    <path id="Path_12144" data-name="Path 12144" d="M142.255,0A142.255,142.255,0,1,0,284.511,142.255,142.26,142.26,0,0,0,142.255,0m0,271.019A128.764,128.764,0,1,1,271.02,142.255,128.761,128.761,0,0,1,142.255,271.019"/>
    <path id="Path_12145" data-name="Path 12145" d="M354.91,237.294l0-31.064h7.642a6.405,6.405,0,1,0,0-12.811H268.886a6.406,6.406,0,1,0,0,12.812h7.642v31.064a34.522,34.522,0,0,0,23.711,32.783,34.523,34.523,0,0,0-23.711,32.784v31.06h-7.642a6.407,6.407,0,1,0,0,12.814l93.668,0a6.405,6.405,0,1,0,0-12.811h-7.642V302.859A34.523,34.523,0,0,0,331.2,270.076a34.523,34.523,0,0,0,23.71-32.783M342.1,302.86v31.06H289.343V302.86c0-12.426,10.723-21.694,22.863-21.694h7.028c12.138,0,22.863,9.268,22.863,21.694m0-65.566c0,12.424-10.723,21.7-22.864,21.694l-7.025,0c-12.137-.006-22.865-9.262-22.865-21.691V206.231H342.1Z" transform="translate(-173.462 -127.823)" fill-rule="evenodd"/>
    <path id="Path_12146" data-name="Path 12146" d="M374.725,513.231c-7.015-4.038-6.99-4.21-12.57-.213L341.69,527.679v15.53h52.754V531.4c-2.928-8.105-11.988-13.718-19.719-18.168" transform="translate(-225.81 -337.111)" fill="#ffe495" fill-rule="evenodd"/>
    <path id="Path_12147" data-name="Path 12147" d="M407.63,513.231c-7.015-4.038-6.99-4.21-12.57-.213l-3.578,2.564a213.558,213.558,0,0,0,2,27.628h33.871V531.4c-2.928-8.105-11.988-13.718-19.719-18.168" transform="translate(-258.715 -337.111)" fill="#f8c600" fill-rule="evenodd"/>
    <path id="Path_12148" data-name="Path 12148" d="M341.69,305.19c0,12.429,10.729,21.685,22.865,21.691l7.025,0c10.525.005,19.982-6.966,22.314-16.914-15.619-4.6-32.406-11.942-52.2-13.812Z" transform="translate(-225.81 -195.719)" fill="#ffe495" fill-rule="evenodd"/>
    <path id="Path_12149" data-name="Path 12149" d="M406.005,339.03c.349.016.7.024,1.054.024l7.024,0c10.525.005,19.982-6.966,22.315-16.914-7.453-2.2-15.172-5.014-23.356-7.565a202.783,202.783,0,0,0-7.036,24.452" transform="translate(-268.313 -207.892)" fill="#f8c600" fill-rule="evenodd"/>
  </g>
</svg>
