<svg xmlns="http://www.w3.org/2000/svg" xmlns:xlink="http://www.w3.org/1999/xlink" width="160" height="160" viewBox="0 0 160 160">
  <defs>
    <clipPath id="clip-path">
      <rect id="Rectangle_2956" data-name="Rectangle 2956" width="116.982" height="101.427" fill="#fff"/>
    </clipPath>
  </defs>
  <g id="Group_16598" data-name="Group 16598" transform="translate(-427 -3122.081)">
    <rect id="Rectangle_2951" data-name="Rectangle 2951" width="160" height="160" rx="6" transform="translate(427 3122.081)" fill="#0061e5"/>
    <g id="Group_16496" data-name="Group 16496" transform="translate(448.509 3151.367)">
      <g id="Group_16495" data-name="Group 16495" clip-path="url(#clip-path)">
        <path id="Path_12101" data-name="Path 12101" d="M400.521,26.978l-.215-.324-7.3-7.607a1.21,1.21,0,0,1,.64-1.824,7.7,7.7,0,0,0,3.065-1.79,7.393,7.393,0,0,0,.273-10.581,7.39,7.39,0,0,0-10.584-.2,7.609,7.609,0,0,0-1.924,2.98,1.21,1.21,0,0,1-1.849.557L375.352.553l-.316-.227a1.2,1.2,0,0,0-1.669.022L364.93,8.442a1.139,1.139,0,0,1-1.2-.814,7.639,7.639,0,0,0-6.277-5.3,3.029,3.029,0,0,0-1.1-.01c-7.163,1.26-9.008,8.707-5.158,12.747a7.024,7.024,0,0,0,2.848,1.816,1.128,1.128,0,0,1,.718,1.311l-8.486,8.142a1.2,1.2,0,0,0-.062,1.708l7.674,8,.137.106.046.048a1.209,1.209,0,0,0,2.027-.616,8.155,8.155,0,0,1,6.67-5.851,7.457,7.457,0,0,1,2.083.138,7.47,7.47,0,0,1,5.7,5.963,7.32,7.32,0,0,1,.049,2.086,8.151,8.151,0,0,1-6.148,6.4,1.212,1.212,0,0,0-.7,2l.046.048.1.144,7.645,8.024a1.209,1.209,0,0,0,1.711.016l8.514-8.117a1.134,1.134,0,0,1,1.279.779,7.041,7.041,0,0,0,1.689,2.929c3.863,4.027,11.38,2.518,12.964-4.579a3.014,3.014,0,0,0,.039-1.1,7.645,7.645,0,0,0-5.007-6.511,1.134,1.134,0,0,1-.759-1.234l8.462-8.066a1.211,1.211,0,0,0,.1-1.669" transform="translate(-283.826 0)" fill="#ffdd03"/>
        <path id="Path_12102" data-name="Path 12102" d="M264.1,323.854h.064l.175.026,11.082.048a1.212,1.212,0,0,0,1.2-1.224l.048-11.763a1.132,1.132,0,0,1,1.447-.381,7.051,7.051,0,0,0,3.28.811c5.581.007,9.7-6.46,5.679-12.522a3.085,3.085,0,0,0-.766-.792,7.641,7.641,0,0,0-8.163-.9,1.138,1.138,0,0,1-1.415-.31l.047-11.69a1.2,1.2,0,0,0-1.134-1.224l-.384-.074-10.543-.006a1.208,1.208,0,0,1-.869-1.724,7.7,7.7,0,0,0,.829-3.448,7.459,7.459,0,1,0-14.918-.038,7.625,7.625,0,0,0,.819,3.453,1.213,1.213,0,0,1-.883,1.721l-10.547-.048-.381.07a1.19,1.19,0,0,0-1.02.705,1.771,1.771,0,0,1,.1.587l-.02,12.07-.661-.131a1.091,1.091,0,0,1-.97-.019l-.2-.09a8.2,8.2,0,0,0-1.1.083l-.1.013-.1-.016a6.449,6.449,0,0,0-1.146-.144,6.756,6.756,0,0,0-6.606,6.011,6.916,6.916,0,0,0-.063.891,8.147,8.147,0,0,0,1.03,3.835c.151.285.3.574.492.862a2.43,2.43,0,0,0,.615.631,7.728,7.728,0,0,0,4.5,1.545,7.471,7.471,0,0,0,1.117-.093l.1-.019.1.016c.308.051.548.1.771.125.187-.077.376-.154.557-.25a1.084,1.084,0,0,1,1.119.08l.528-.106-.019,12.253a1.956,1.956,0,0,1-.063.458,1.181,1.181,0,0,0,1.061.695l11.084.007.17-.023h.067a1.21,1.21,0,0,0,.96-1.891,8.148,8.148,0,0,1,.405-8.86,7.414,7.414,0,0,1,1.541-1.407,7.478,7.478,0,0,1,8.247.02,7.466,7.466,0,0,1,1.536,1.416,8.146,8.146,0,0,1,.355,8.863,1.213,1.213,0,0,0,.954,1.894" transform="translate(-186.176 -222.501)" fill="#fff"/>
        <path id="Path_12103" data-name="Path 12103" d="M38.7,102.242l-.025.064-.011.023-.063.253a.633.633,0,0,0,.48.593l10.467-.019a1.635,1.635,0,0,1,.407.074v0a1.745,1.745,0,0,1,.98.353l.067-.33.048-11.763a1.135,1.135,0,0,1,1.447-.381,7.038,7.038,0,0,0,3.279.81c5.583.006,9.7-6.46,5.68-12.522a3.117,3.117,0,0,0-.766-.791,7.644,7.644,0,0,0-8.165-.9,1.138,1.138,0,0,1-1.415-.311l.05-11.689a1.21,1.21,0,0,0-1.137-1.224l-.383-.073L39.094,64.4a1.208,1.208,0,0,1-.872-1.724,7.676,7.676,0,0,0,.833-3.448,7.46,7.46,0,1,0-14.92-.038,7.64,7.64,0,0,0,.819,3.455,1.208,1.208,0,0,1-.88,1.717l-10.548-.045-.381.07A1.206,1.206,0,0,0,12,65.608L11.994,77.3a1.136,1.136,0,0,1-1.416.3,7.645,7.645,0,0,0-8.17.859,3.1,3.1,0,0,0-.771.788c-4.055,6.04.037,12.526,5.618,12.548a7,7,0,0,0,3.282-.8,1.129,1.129,0,0,1,1.444.392l-.009,11.763a1.24,1.24,0,0,0,.081.417,1.762,1.762,0,0,1,.974-.343v0a1.624,1.624,0,0,1,.408-.074l10.467.019a.627.627,0,0,0,.478-.589l-.061-.256-.012-.029-.014-.029-.014-.035a8.215,8.215,0,0,1-.85-3.589h0v-.061a8.258,8.258,0,0,1,.358-2.288,7.9,7.9,0,0,1,7.532-5.809l.19,0,.16,0A7.9,7.9,0,0,1,39.2,96.3a8.269,8.269,0,0,1,.355,2.291v.016a8.2,8.2,0,0,1-.853,3.637" transform="translate(0 -42.42)" fill="#fff"/>
        <path id="Path_12104" data-name="Path 12104" d="M45.4,299.943a7.738,7.738,0,0,1,5.149-1.989l0,.589v-.589a7.255,7.255,0,0,1,1.288.15,9.954,9.954,0,0,1,1.192-.089q.293,0,.589.028l.015-10.644a.6.6,0,0,0-.52-.611l-.039-.01-.091,0-.087-.032-.177-.035-10.6.019-.051-.01a1.813,1.813,0,0,1-1.477-1.631l-.029-.16a1.742,1.742,0,0,1,.178-.753h-.006l.024-.061.014-.019a7.042,7.042,0,0,0,.742-3.144v-.016a7.074,7.074,0,0,0-.308-1.955,6.7,6.7,0,0,0-6.371-4.938l-.154,0h-.034l-.161,0a6.406,6.406,0,0,0-3.795,1.257,6.926,6.926,0,0,0-2.574,3.681,7.98,7.98,0,0,0-.236,1.106,5.614,5.614,0,0,0-.076.843v.022a6.981,6.981,0,0,0,.746,3.14l.015.026.01.029.015.035,0,0a1.8,1.8,0,0,1,.172.747l-.027.144a1.812,1.812,0,0,1-1.477,1.643l-.05.01-10.6-.019-.086.016-.092.019-.086.032-.093,0a.606.606,0,0,0-.562.619l.02,11.907-.139.17a1.775,1.775,0,0,1-1.361.65,1.708,1.708,0,0,1-.8-.2,6.469,6.469,0,0,0-2.994-.733,7.811,7.811,0,0,0-4.544,1.573,2.4,2.4,0,0,0-.615.631,8.413,8.413,0,0,0-1.522,4.695,6.793,6.793,0,0,0,6.663,6.9h.012a6.446,6.446,0,0,0,3-.733,1.7,1.7,0,0,1,.777-.192,1.784,1.784,0,0,1,1.439.759l.114.16.018,11.955a.606.606,0,0,0,.587.622l11.039-.019.175-.026h.109a.521.521,0,0,0,.392-.167.662.662,0,0,0,.158-.433l-.1-.368a8.206,8.206,0,0,1-1.223-4.326,9.608,9.608,0,0,1,1.6-5.182l.021-.032.021-.025a8.065,8.065,0,0,1,1.669-1.526l.015-.009.013-.01a8.873,8.873,0,0,1,4.426-1.33h.018a8.856,8.856,0,0,1,4.424,1.33l.015.006.015.013a8.029,8.029,0,0,1,1.667,1.526l.023.029.02.028a9.591,9.591,0,0,1,1.6,5.185,8.2,8.2,0,0,1-1.222,4.326l-.106.365a.655.655,0,0,0,.16.433.517.517,0,0,0,.391.167h.106l.042.007.132.019,11.043.019a.608.608,0,0,0,.588-.622l.019-10.8a6.016,6.016,0,0,1-.775.055h0a6.149,6.149,0,0,1-1.117-.154,7.955,7.955,0,0,1-1.181.1,8.908,8.908,0,0,1-5.009-1.65l-.19-.116a3.738,3.738,0,0,1-.919-.948,10.43,10.43,0,0,1-1.349-2.865c-.086-.3-.151-.6-.207-.89a8.654,8.654,0,0,1-.169-1.612,8.172,8.172,0,0,1,2.725-6.12" transform="translate(-3.063 -224.871)" fill="#fff"/>
      </g>
    </g>
  </g>
</svg>
