<svg xmlns="http://www.w3.org/2000/svg" xmlns:xlink="http://www.w3.org/1999/xlink" width="160" height="160" viewBox="0 0 160 160">
  <defs>
    <clipPath id="clip-path">
      <rect id="Rectangle_2950" data-name="Rectangle 2950" width="92.046" height="115.229" fill="none"/>
    </clipPath>
  </defs>
  <g id="Group_16599" data-name="Group 16599" transform="translate(-654 -3122.081)">
    <rect id="Rectangle_2952" data-name="Rectangle 2952" width="160" height="160" rx="6" transform="translate(654 3122.081)" fill="#0061e5"/>
    <g id="Group_16494" data-name="Group 16494" transform="translate(687.477 3144.466)">
      <g id="Group_16493" data-name="Group 16493" clip-path="url(#clip-path)">
        <path id="Path_12097" data-name="Path 12097" d="M44.313,95.409l-.035-.01a3.643,3.643,0,0,1-1.26-.594,2.649,2.649,0,0,1-.777-1.289,22.57,22.57,0,0,1-.713-2.62,18.487,18.487,0,0,1-.37-2.429,4.493,4.493,0,0,1,.126-1.772,1.643,1.643,0,0,1,.92-.939,2.987,2.987,0,0,1,.613-.073c.138-.035-.07-.113-.074-.182l-.376-5.278c-.247-2.424.272-5.945,2.051-7.593a2.846,2.846,0,0,1,2.1-.438,1.7,1.7,0,0,1,.161-1.916,9.122,9.122,0,0,1,3-2.746,12.49,12.49,0,0,1,6.1-1.283,15.145,15.145,0,0,1,6.6,2.5,11.171,11.171,0,0,1,3.814,4.206,15.4,15.4,0,0,1,1.393,5.883A32.035,32.035,0,0,1,67.3,85.66a2.257,2.257,0,0,1,.658.142,1.638,1.638,0,0,1,1.038,1.019A5.885,5.885,0,0,1,69.089,89a16.593,16.593,0,0,1-.386,2.434,15.486,15.486,0,0,1-.712,2.215,2.812,2.812,0,0,1-.778,1.19,3.7,3.7,0,0,1-1.26.594c-.1.029-.194.055-.3.08l-.16,2.477a5.938,5.938,0,0,1-1.591,3.748v4.289a2.586,2.586,0,0,1-1.042,2.113L56.5,113.03l2.3,1.372c.447.266.207.862,0,1.341l-.928,2.141c-.223.512-.5.959-.282,1.471l.223.514,1.451,5.3.623,18.662L64.573,122a13.1,13.1,0,0,0,1.784-6.515c.087-2.436-.107-5.906-.324-9.463a.381.381,0,0,1,.633-.307,14.8,14.8,0,0,0,4.741,2.842,94.035,94.035,0,0,0,10.537,3.072c2.977.73,4.308,1.015,5.246,1.717s1.487,1.819,2.379,4.9c.555,1.921,1.246,18.358,1.984,21.326a4.993,4.993,0,0,1-4.2,6.159,252.8,252.8,0,0,1-64.112-.035,4.99,4.99,0,0,1-4.224-6.162c.735-2.952,1.422-19.375,1.974-21.285.891-3.078,1.438-4.194,2.376-4.9s2.271-.986,5.248-1.716a93.605,93.605,0,0,0,10.535-3.073,14.793,14.793,0,0,0,4.743-2.841.381.381,0,0,1,.633.307c-.217,3.555-.41,7.026-.324,9.462A13.1,13.1,0,0,0,45.988,122l4.683,21.834.625-18.663,1.451-5.3.136-.315c.221-.512-.039-.968-.281-1.468l-1.129-2.341c-.227-.471-.447-1.075,0-1.341l2.463-1.467-6.242-4.792a2.586,2.586,0,0,1-1.042-2.113v-3.7l-.467-.489a5.952,5.952,0,0,1-1.7-3.867l-.167-2.566Z" transform="translate(-9.262 -32.523)" fill="#fff" fill-rule="evenodd"/>
        <path id="Path_12098" data-name="Path 12098" d="M76.164.65l3.265,10.113,10.627-.02a.938.938,0,0,1,.552,1.7L82,18.671l3.3,10.1a.938.938,0,0,1-1.445,1.05l-8.586-6.263-8.585,6.263a.938.938,0,0,1-1.445-1.05l3.3-10.1-8.61-6.23a.938.938,0,0,1,.552-1.7l10.626.02L74.378.65a.938.938,0,0,1,1.786,0" transform="translate(-29.248)" fill="#ffdd03" fill-rule="evenodd"/>
        <path id="Path_12099" data-name="Path 12099" d="M135.709,25.226l3.265,10.113,10.627-.02a.938.938,0,0,1,.552,1.7l-8.609,6.23,3.3,10.1A.938.938,0,0,1,143.4,54.4l-8.586-6.263L126.23,54.4a.938.938,0,0,1-1.445-1.05l3.3-10.1-8.61-6.23a.938.938,0,0,1,.552-1.7l10.626.02,3.265-10.113a.938.938,0,0,1,1.785,0" transform="translate(-58.496 -12.071)" fill="#ffdd03" fill-rule="evenodd"/>
        <path id="Path_12100" data-name="Path 12100" d="M16.619,25.226l3.265,10.113,10.627-.02a.938.938,0,0,1,.552,1.7l-8.609,6.23,3.3,10.1a.938.938,0,0,1-1.445,1.05l-8.586-6.263L7.14,54.4A.938.938,0,0,1,5.7,53.347L9,43.247.39,37.017a.938.938,0,0,1,.552-1.7l10.627.02,3.265-10.113a.938.938,0,0,1,1.786,0" transform="translate(0 -12.071)" fill="#ffdd03" fill-rule="evenodd"/>
      </g>
    </g>
  </g>
</svg>
