<svg xmlns="http://www.w3.org/2000/svg" xmlns:xlink="http://www.w3.org/1999/xlink" width="160" height="160" viewBox="0 0 160 160">
  <defs>
    <clipPath id="clip-path">
      <rect id="Rectangle_2957" data-name="Rectangle 2957" width="96.12" height="114.406" fill="none"/>
    </clipPath>
  </defs>
  <g id="Group_16600" data-name="Group 16600" transform="translate(-880 -3122.081)">
    <rect id="Rectangle_2953" data-name="Rectangle 2953" width="160" height="160" rx="6" transform="translate(880 3122.081)" fill="#0061e5"/>
    <g id="Group_16498" data-name="Group 16498" transform="translate(911.939 3145.289)">
      <g id="Group_16497" data-name="Group 16497" clip-path="url(#clip-path)">
        <path id="Path_12105" data-name="Path 12105" d="M95.11,451.706l-10.266-5.688c-5.208-2.91-11.779-3.008-19-.285a41.735,41.735,0,0,0-9.185,4.868A42.93,42.93,0,0,1,42.8,457.093l-16.16-9.535a9.913,9.913,0,0,0-12.083,1.332,9.908,9.908,0,0,0-7.94,4.7,1.952,1.952,0,0,0-.11.2l-.052.113a10.9,10.9,0,0,0-5.4,4.476,7.1,7.1,0,0,0,2.315,9.755l11.447,7.075,15.166,9.344a41.944,41.944,0,0,0,20.529,5.961q.8.028,1.593.028a42.411,42.411,0,0,0,18.735-4.206l.075-.04A41.022,41.022,0,0,1,93.9,482.359a1.96,1.96,0,0,0,2.221-1.943v-27a1.96,1.96,0,0,0-1.01-1.715m-70.508-.8.032.019,12.116,7.149a20.378,20.378,0,0,0-2.51.467l-14-8.209c-.074-.046-.15-.087-.226-.13a6.009,6.009,0,0,1,4.588.7m-6.4,2.777.037.022L30,460.6a11.828,11.828,0,0,0-1.737,1.541l-12.146-7.349a10.9,10.9,0,0,0-3.626-1.416,5.991,5.991,0,0,1,5.713.308m74,24.554a44.441,44.441,0,0,0-23.155,4.609c-11.177,5.58-26.389,4.91-37.009-1.633l-15.163-9.342L5.426,464.8a3.174,3.174,0,0,1-1.036-4.362,7.037,7.037,0,0,1,9.677-2.3l.014.008,12.112,7.328a10.066,10.066,0,0,0-.394,1.3,7.962,7.962,0,0,0,3.062,8.046c2.959,2,6.942,1.479,9.851,1.1l.412-.053a83.853,83.853,0,0,0,20.238-5.357l.249-.1a1.96,1.96,0,0,0-1.455-3.641l-.244.1a79.939,79.939,0,0,1-19.287,5.111l-.42.055c-2.415.314-5.421.706-7.15-.462a4.029,4.029,0,0,1-1.436-3.915A7.458,7.458,0,0,1,34.17,462.7a16.377,16.377,0,0,1,4.462-.9c.9-.1,1.836-.207,2.719-.376q.659-.125,1.3-.267a1.964,1.964,0,0,0,.622-.143c6.039-1.43,10.655-3.918,15.583-7.165.03-.02.061-.041.089-.062a38.206,38.206,0,0,1,8.367-4.416c6.159-2.3,11.415-2.279,15.627.074l9.262,5.132Z" transform="translate(0 -376.134)" fill="#fff"/>
        <path id="Path_12106" data-name="Path 12106" d="M119.611,56.72a33,33,0,0,0,16.232,8.94,1.96,1.96,0,0,0,.449.095,33.636,33.636,0,0,0,13.627,0,1.97,1.97,0,0,0,.449-.095A33.235,33.235,0,0,0,166.6,9.731,33,33,0,0,0,150.358.79,1.959,1.959,0,0,0,149.916.7,33.631,33.631,0,0,0,136.3.7a1.963,1.963,0,0,0-.445.094,33.253,33.253,0,0,0-25.964,31.732,1.946,1.946,0,0,0,0,.286c0,.139-.005.278-.005.418a33.008,33.008,0,0,0,9.732,23.494m-.889-39.732a51.272,51.272,0,0,0,7.217,2.453q-.23.774-.444,1.574A50.514,50.514,0,0,0,123.757,34.9a58.308,58.308,0,0,1-9.9-3.409,29.12,29.12,0,0,1,4.869-14.5m22.423-13V17.61a61.873,61.873,0,0,1-8.3-.726q-.912-.143-1.784-.308a54.491,54.491,0,0,1,6.509-12.129,29.223,29.223,0,0,1,3.575-.459m7.5.46a54.412,54.412,0,0,1,6.428,11.92,65.6,65.6,0,0,1-6.883,1q-1.561.141-3.12.2V3.988a29.193,29.193,0,0,1,3.575.46m23.668,26.347a85.489,85.489,0,0,1-9.85,3.406,50.694,50.694,0,0,0-1.744-13.186q-.246-.924-.515-1.812a75.275,75.275,0,0,0,7.228-2.308,29.121,29.121,0,0,1,4.882,13.9m-27.243,31.67V58.515q1.674-.065,3.351-.211c1.005-.089,2.01-.2,3.015-.338q-1.28,2.044-2.785,4.037a29.246,29.246,0,0,1-3.581.461m-7.5-.461q-1.442-1.909-2.678-3.866,3.106.356,6.258.419v3.908A29.248,29.248,0,0,1,137.564,62M128.2,40.861c-.055-.345-.1-.691-.151-1.037.77.136,1.559.265,2.372.383a77.853,77.853,0,0,0,10.719.8V54.634a61.869,61.869,0,0,1-8.3-.726l-.389-.063a44.389,44.389,0,0,1-4.25-12.983m25.663,12.757q-2.84.511-5.683.771-1.561.141-3.12.2V40.932q2.678-.117,5.358-.414,3.9-.434,7.8-1.254c-.065.533-.136,1.066-.221,1.6a44.331,44.331,0,0,1-4.136,12.757m-22.356,6.521a29.348,29.348,0,0,1-6.6-3.955c1.471.417,3.132.824,4.966,1.182q.77,1.4,1.634,2.773m24.962-3.033q2.664-.555,5.313-1.319a29.357,29.357,0,0,1-7.09,4.352q.945-1.5,1.777-3.033m10.8-7.33a71.515,71.515,0,0,1-8.612,2.8,47.561,47.561,0,0,0,3.227-11.19c.161-1.02.284-2.047.377-3.076A88.747,88.747,0,0,0,172.355,35a29.124,29.124,0,0,1-5.078,14.772M156.962,22.164a46.478,46.478,0,0,1,1.563,13.025,77.575,77.575,0,0,1-13.461,1.82V21.491q1.674-.065,3.351-.211a69.666,69.666,0,0,0,7.959-1.177q.31,1.007.589,2.061m-24.908-1.435a65.767,65.767,0,0,0,9.09.8V37.088a73.493,73.493,0,0,1-13.439-1.313,46.318,46.318,0,0,1,1.541-13.611q.247-.94.522-1.843,1.1.217,2.285.408M124.006,39q.126,1.2.312,2.388a47.618,47.618,0,0,0,3.346,11.471,43.108,43.108,0,0,1-8.691-3.05l-.029-.013a29.125,29.125,0,0,1-5.032-14A65.58,65.58,0,0,0,124.006,39m40.885-25.347q-2.962,1.055-5.957,1.834a60.08,60.08,0,0,0-4.443-9.259,29.439,29.439,0,0,1,10.4,7.425M131.718,6.223a60.077,60.077,0,0,0-4.528,9.487,51.441,51.441,0,0,1-5.988-1.931,29.443,29.443,0,0,1,10.516-7.556" transform="translate(-93.134)" fill="#ffdd03"/>
      </g>
    </g>
  </g>
</svg>
