<svg xmlns="http://www.w3.org/2000/svg" xmlns:xlink="http://www.w3.org/1999/xlink" width="160" height="160" viewBox="0 0 160 160">
  <defs>
    <clipPath id="clip-path">
      <rect id="Rectangle_2958" data-name="Rectangle 2958" width="115.734" height="100.804" fill="none"/>
    </clipPath>
  </defs>
  <g id="Group_16601" data-name="Group 16601" transform="translate(-1107 -3122.081)">
    <rect id="Rectangle_2954" data-name="Rectangle 2954" width="160" height="160" rx="6" transform="translate(1107 3122.081)" fill="#0061e5"/>
    <g id="Group_16500" data-name="Group 16500" transform="translate(1129.633 3151.991)">
      <g id="Group_16499" data-name="Group 16499" clip-path="url(#clip-path)">
        <path id="Path_12107" data-name="Path 12107" d="M420.957,251.933a9.426,9.426,0,0,0-8.687-7.046c-.642-.054-1.262-.107-1.387-.119h-.02l-5.842.028-5.842-.028h-.02c-.125.012-.745.065-1.387.119a9.426,9.426,0,0,0-8.687,7.046c-.224.829-.255,1.508-.258,11.831h32.389c0-10.323-.034-11-.259-11.831" transform="translate(-333.29 -209.808)" fill="#fff"/>
        <path id="Path_12108" data-name="Path 12108" d="M435.241,105.6a9.754,9.754,0,0,0,5.6,4.944,10.881,10.881,0,0,0,6.2,0,9.911,9.911,0,0,0,6.385-7.164,11.164,11.164,0,0,0-.13-5.05,11.476,11.476,0,0,0-.614-1.694,9.187,9.187,0,0,0-1.968-2.683,8.227,8.227,0,0,0-3.6-2.308c-.224-.073-.456-.14-.7-.2a8.616,8.616,0,0,0-1.408-.229c-.316-.026-.645-.041-.983-.041h-.156c-.338,0-.666.016-.983.041a8.613,8.613,0,0,0-1.408.229c-.248.064-.48.132-.7.2a8.228,8.228,0,0,0-3.6,2.308,9.186,9.186,0,0,0-1.968,2.683,11.469,11.469,0,0,0-.614,1.694,11.164,11.164,0,0,0-.13,5.05,9.741,9.741,0,0,0,.79,2.22" transform="translate(-372.204 -78.146)" fill="#fff"/>
        <path id="Path_12109" data-name="Path 12109" d="M259.591,361.883a5.641,5.641,0,0,0-8.618-2.945c-1.126.735-2.183,1.567-3.273,2.353q-8.144,5.875-16.295,11.741a1.052,1.052,0,0,0-.523,1.15,7.618,7.618,0,0,1-1.5,5.909,8.907,8.907,0,0,1-8.5,3.466c-5.736-.639-11.464-1.355-17.194-2.04a5.482,5.482,0,0,1-.792-.127,2.06,2.06,0,0,1-1.6-2.282,2.012,2.012,0,0,1,2.236-1.583c.292.013.583.047.873.081q7.254.87,14.508,1.739a21.639,21.639,0,0,0,3.344.3,4.829,4.829,0,0,0,4.381-2.569,4.3,4.3,0,0,0-.4-4.836,5.767,5.767,0,0,0-4.371-2.206c-5.057-.579-10.106-1.222-15.166-1.772a3.152,3.152,0,0,1-2.214-1.216,19.227,19.227,0,0,0-17.207-6.972,20.134,20.134,0,0,0-14.971,8.962,1,1,0,0,0,.068,1.413q7.741,9.561,15.427,19.163a1.438,1.438,0,0,0,1.057.52q6.2.73,12.405,1.479v.009c3.434.41,6.871.8,10.3,1.237a21.223,21.223,0,0,0,15.5-3.876c7.811-5.581,15.51-11.307,23.257-16.97q3.6-2.634,7.212-5.258c1.815-1.32,2.549-3.045,2.061-4.871" transform="translate(-147.475 -306.827)" fill="#fff"/>
        <path id="Path_12110" data-name="Path 12110" d="M37.806,454.176,18.256,429.734c-1-1.253-1.793-1.345-3.075-.387q-2.967,2.218-5.951,4.414c-2.8,2.058-5.62,4.1-8.426,6.157a1.359,1.359,0,0,0-.342,2.268q.191.257.393.507,5.3,6.537,10.6,13.074,4.735,5.848,9.458,11.7a1.615,1.615,0,0,0,1.223.78,1.964,1.964,0,0,0,1.568-.626q5.478-4.085,10.941-8.188c1.055-.791,2.12-1.571,3.152-2.389s1.079-1.436.318-2.48c-.1-.134-.2-.262-.309-.392" transform="translate(0 -367.47)" fill="#fff"/>
        <path id="Path_12111" data-name="Path 12111" d="M200.205,50.431A36.448,36.448,0,1,1,271.176,33.8l-4.664.437a.693.693,0,0,0-.5,1.091l4.241,5.979,4.242,5.979c.007.01.016.016.024.025.291.048.577.111.859.185a.676.676,0,0,0,.313-.322l3.057-6.663,3.057-6.663a.693.693,0,0,0-.695-.979l-4.565.428a41.8,41.8,0,1,0-81.278,19.416,22.92,22.92,0,0,1,4.939-2.285" transform="translate(-166.134)" fill="#ffdd03"/>
      </g>
    </g>
  </g>
</svg>
