<svg xmlns="http://www.w3.org/2000/svg" xmlns:xlink="http://www.w3.org/1999/xlink" width="160" height="160" viewBox="0 0 160 160">
  <defs>
    <clipPath id="clip-path">
      <rect id="Rectangle_2966" data-name="Rectangle 2966" width="83.684" height="118.468" fill="none"/>
    </clipPath>
  </defs>
  <g id="Group_16602" data-name="Group 16602" transform="translate(-1333 -3122.081)">
    <rect id="Rectangle_2955" data-name="Rectangle 2955" width="160" height="160" rx="6" transform="translate(1333 3122.081)" fill="#0061e5"/>
    <g id="Group_16502" data-name="Group 16502" transform="translate(1371.158 3141.227)">
      <g id="Group_16501" data-name="Group 16501" clip-path="url(#clip-path)">
        <path id="Path_12112" data-name="Path 12112" d="M20.508,40.874V32.82H6.017A6.016,6.016,0,0,0,0,38.839V139.723a6.016,6.016,0,0,0,6.017,6.019H77.666a6.023,6.023,0,0,0,6.017-6.019V38.839a6.023,6.023,0,0,0-6.017-6.019H64.034v8.054H77.666V136.6H6.017V40.874Z" transform="translate(0 -27.273)" fill="#fff"/>
        <rect id="Rectangle_2959" data-name="Rectangle 2959" width="36.143" height="8.054" transform="translate(24.2 5.547)" fill="#fff"/>
        <path id="Path_12114" data-name="Path 12114" d="M123.193,0a1.842,1.842,0,0,0-1.846,1.844V19.33a1.842,1.842,0,0,0,1.846,1.844h39.835a1.842,1.842,0,0,0,1.846-1.844V1.844A1.842,1.842,0,0,0,163.028,0Zm37.989,5.547V17.485H125.039V3.69h36.143Z" transform="translate(-100.839)" fill="#ffdd03"/>
        <rect id="Rectangle_2961" data-name="Rectangle 2961" width="59.611" height="6.404" transform="translate(12.035 27.186)" fill="#ffdd03"/>
        <rect id="Rectangle_2962" data-name="Rectangle 2962" width="59.611" height="6.404" transform="translate(12.035 41.677)" fill="#ffdd03"/>
        <rect id="Rectangle_2963" data-name="Rectangle 2963" width="59.611" height="6.402" transform="translate(12.035 56.17)" fill="#ffdd03"/>
        <rect id="Rectangle_2964" data-name="Rectangle 2964" width="59.611" height="6.402" transform="translate(12.035 70.66)" fill="#ffdd03"/>
        <rect id="Rectangle_2965" data-name="Rectangle 2965" width="59.611" height="6.403" transform="translate(12.035 85.15)" fill="#ffdd03"/>
      </g>
    </g>
  </g>
</svg>
