<svg xmlns="http://www.w3.org/2000/svg" width="217.552" height="220.031" viewBox="0 0 217.552 220.031">
  <g id="Group_16292" data-name="Group 16292" transform="translate(-621.617 -1419.415)">
    <path id="Path_11770" data-name="Path 11770" d="M193.033,284.46a3.694,3.694,0,1,0-6.951,2.5,92.087,92.087,0,0,1-84.63,123.248c-.681.015-1.354.022-2.032.022a92.06,92.06,0,1,1,31.354-178.652,3.694,3.694,0,0,0,2.515-6.947,99.459,99.459,0,1,0-33.9,192.987c.738,0,1.481-.008,2.221-.024A99.517,99.517,0,0,0,193.033,284.46" transform="translate(621.617 1221.824)" fill="#dbe5f2"/>
    <path id="Path_11771" data-name="Path 11771" d="M199.262,333.089a3.694,3.694,0,0,0-1.514-5,65.3,65.3,0,1,0,24.677,23.1,3.694,3.694,0,0,0-6.269,3.91,57.861,57.861,0,1,1-21.894-20.5,3.694,3.694,0,0,0,5-1.514" transform="translate(554.087 1154.296)" fill="#dbe5f2"/>
    <path id="Path_11772" data-name="Path 11772" d="M229.331,420.456a27,27,0,0,1,5.385.708,3.694,3.694,0,0,0,1.7-7.19A34.215,34.215,0,0,0,194.346,446.2a34.186,34.186,0,0,0,33.13,35.21c.353.011.7.016,1.054.016a34.21,34.21,0,0,0,32.83-43.7,3.694,3.694,0,1,0-7.1,2.055,26.822,26.822,0,0,1-25.736,34.258c-.274,0-.55,0-.826-.013a26.8,26.8,0,1,1,1.63-53.57" transform="translate(492.548 1092.757)" fill="#dbe5f2"/>
    <path id="Path_11773" data-name="Path 11773" d="M376.455,244.09H346.216V212.165a3.694,3.694,0,0,0-6.306-2.612l-18.758,18.759a3.694,3.694,0,0,0-1.082,2.612v30.571l-38.9,41.3a9.072,9.072,0,1,0,5.379,5.065L325.13,266.9l30.76,4.565a3.693,3.693,0,0,0,3.154-1.042L379.068,250.4a3.695,3.695,0,0,0-2.612-6.307m-21.32,19.79-27.678-4.107v-27.32l11.37-11.37v26.7a3.694,3.694,0,0,0,3.694,3.694h25.015Z" transform="translate(442.891 1228.636)" fill="#ea7d18"/>
    <path id="Path_11774" data-name="Path 11774" d="M517.145,232.889a3.165,3.165,0,0,0,4.476,4.476l19.057-19.057a3.165,3.165,0,0,0-4.476-4.476Z" transform="translate(278.759 1225.69)" fill="#ea7d18"/>
    <path id="Path_11775" data-name="Path 11775" d="M597.172,228.016a3.165,3.165,0,0,0-4.476,0l-18.8,18.8a3.165,3.165,0,0,0,4.476,4.476l18.8-18.8a3.165,3.165,0,0,0,0-4.476" transform="translate(241.069 1216.27)" fill="#dbe5f2"/>
    <path id="Path_11776" data-name="Path 11776" d="M514.666,179.1a3.155,3.155,0,0,0,2.238-.927l16.974-16.974a3.165,3.165,0,0,0-4.476-4.476l-16.974,16.974a3.165,3.165,0,0,0,2.238,5.4" transform="translate(281.892 1263.624)" fill="#dbe5f2"/>
  </g>
</svg>
