<svg xmlns="http://www.w3.org/2000/svg" width="265.967" height="216.915" viewBox="0 0 265.967 216.915">
  <g id="Group_16293" data-name="Group 16293" transform="translate(-1033.824 -1421.715)">
    <path id="Path_11763" data-name="Path 11763" d="M1607.608,195.824h.119a4.067,4.067,0,0,0,3.948-4.182l-.717-25.052a4.067,4.067,0,0,0-8.131.233l.718,25.052a4.066,4.066,0,0,0,4.063,3.949" transform="translate(-442.935 1259.074)" fill="#ea7d18"/>
    <path id="Path_11764" data-name="Path 11764" d="M1735.532,220.746a4.061,4.061,0,0,0,5.386-2.016l9.875-21.706a4.067,4.067,0,1,0-7.4-3.37l-9.876,21.7a4.069,4.069,0,0,0,2.017,5.386" transform="translate(-529.492 1240.059)" fill="#ea7d18"/>
    <path id="Path_11765" data-name="Path 11765" d="M1458.031,220.746a4.061,4.061,0,0,1-5.386-2.016l-9.875-21.706a4.066,4.066,0,1,1,7.4-3.37l9.876,21.7a4.069,4.069,0,0,1-2.017,5.386" transform="translate(-336.387 1240.059)" fill="#ea7d18"/>
    <path id="Path_11766" data-name="Path 11766" d="M1491.154,364.748c-2.365-2.76-59.178-67.1-130.736-67.1s-128.371,64.343-130.736,67.1l-2.247,2.563,2.247,2.6c2.089,2.405,45.418,51.451,103.808,64.067h19.752v-8.989c-.907-.118-1.814-.237-2.72-.394-12.261-12.577-32.172-36.035-32.172-51.017a42.067,42.067,0,1,1,84.135,0c0,14.982-19.91,38.44-32.171,51.017-.434.079-.867.157-1.3.2v9.186h18.333c58.389-12.616,101.719-61.662,103.808-64.067l2.247-2.6ZM1238,367.311c9.226-9.7,44.2-43.921,88.906-56.813a65.873,65.873,0,0,0,0,113.665c-44.709-12.892-79.68-47.114-88.906-56.852m147.492,52.436c11.355-13.05,24.878-31.619,24.878-46.167a49.953,49.953,0,1,0-99.905,0c0,14.548,13.523,33.117,24.878,46.167a58.193,58.193,0,1,1,50.15,0m8.437,4.416a65.873,65.873,0,0,0,0-113.665c44.709,12.892,79.68,47.114,88.905,56.813-9.225,9.738-44.2,43.96-88.905,56.852" transform="translate(-193.61 1169.408)" fill="#dbe5f2"/>
    <path id="Path_11767" data-name="Path 11767" d="M1590.782,558.5h-23.79V500.586l14.063-14.061a3.942,3.942,0,0,0-5.575-5.575l-12.145,12.143-12.715-12.713a3.942,3.942,0,0,0-5.575,5.575l14.063,14.061V558.5h-23.7a3.943,3.943,0,1,0,0,7.885h55.377a3.943,3.943,0,0,0,0-7.885" transform="translate(-395.537 1048.809)" fill="#ea7d18"/>
    <path id="Path_11768" data-name="Path 11768" d="M1599.8,750.183h-36.919a3.943,3.943,0,1,0,0,7.885H1599.8a3.943,3.943,0,0,0,0-7.885" transform="translate(-413.789 868.846)" fill="#dbe5f2"/>
    <path id="Path_11769" data-name="Path 11769" d="M1608.6,785.07h-18.931a3.943,3.943,0,1,0,0,7.885H1608.6a3.943,3.943,0,1,0,0-7.885" transform="translate(-431.576 845.675)" fill="#ea7d18"/>
  </g>
</svg>
