<svg xmlns="http://www.w3.org/2000/svg" xmlns:xlink="http://www.w3.org/1999/xlink" width="150" height="150" viewBox="0 0 150 150">
  <defs>
    <clipPath id="clip-path">
      <rect id="Rectangle_2924" data-name="Rectangle 2924" width="60.676" height="88.343" fill="#0069b3"/>
    </clipPath>
  </defs>
  <g id="Group_16443" data-name="Group 16443" transform="translate(-885 -6103.081)">
    <circle id="Ellipse_1365" data-name="Ellipse 1365" cx="75" cy="75" r="75" transform="translate(885 6103.081)" fill="#fff"/>
    <g id="Group_16433" data-name="Group 16433" transform="translate(929.662 6133.909)">
      <g id="Group_16432" data-name="Group 16432" clip-path="url(#clip-path)">
        <path id="Path_12004" data-name="Path 12004" d="M56.875,383.268c3.018-.005,3.907-.8,3.791-3.861a30.084,30.084,0,0,0-.914-6.588c-2.778-10.4-15.507-16.112-23.665-12.893a14.53,14.53,0,0,1-11.321.13c-1.617-.677-3.488-1.467-5.125-1.26C8.4,360.22.41,365.841.007,378.473c-.111,3.493,1.1,4.811,4.527,4.812,8.686,0,43.58,0,52.341-.018" transform="translate(0 -294.944)" fill="#0069b3"/>
        <path id="Path_12005" data-name="Path 12005" d="M67.8,180.156c1.738,8.448,9.178,14.77,17,14.99a18.989,18.989,0,0,0,19.287-13.956c1.934-6.672.056-12.48-4.345-17.624-.712-.833-1.555-1.334-2.364-.169-2.887,4.159-3.045,4.323-7.307,1.67-2.946-1.834-5.32-2.448-8.74-.718-.617.312-1.32.728-1.952,1.031-3.357,1.614-4.547,1.269-6-1.821a.751.751,0,0,0-1.262-.158A19.621,19.621,0,0,0,67.8,180.156" transform="translate(-55.397 -133.768)" fill="#0069b3"/>
        <path id="Path_12006" data-name="Path 12006" d="M95.514,8.045A3.452,3.452,0,0,1,93.22,9.568c-1.845.234-3.753-.047-5.6.156a3,3,0,0,0-2.2,1.346,2.973,2.973,0,0,0,.731,2.485c1.426,1.524,3.2,2.726,4.6,4.272a3.869,3.869,0,0,1,.913,2.856c-.4,2.255-1.257,4.425-1.788,6.664-.166.7-.521,1.646.279,2.178a1.932,1.932,0,0,0,2.269-.049c1.761-.792,3.388-1.878,5.145-2.68a5.385,5.385,0,0,1,2.866-.556,13.594,13.594,0,0,1,5.105,2.686c1.4,1.03,2.672,1.731,4.163.895a1.7,1.7,0,0,0,.786-1.981c-.668-2.21-1.377-4.449-1.918-6.73a3.008,3.008,0,0,1,.586-2.393c1.592-1.674,3.482-3.065,5.068-4.744a3.354,3.354,0,0,0,.945-2.654c-.219-.7-1.442-1.329-2.324-1.517a20.012,20.012,0,0,0-4.029-.158c-1.971-.008-3.376-.61-3.955-2.773a22.335,22.335,0,0,0-2.067-4.925c-.46-.836-1.389-1.91-2.147-1.944s-1.847.95-2.281,1.761C97.278,3.784,96.6,6.026,95.514,8.045" transform="translate(-70.162 0)" fill="#0069b3"/>
      </g>
    </g>
  </g>
</svg>
