<svg xmlns="http://www.w3.org/2000/svg" xmlns:xlink="http://www.w3.org/1999/xlink" width="150" height="150" viewBox="0 0 150 150">
  <defs>
    <clipPath id="clip-path">
      <rect id="Rectangle_2921" data-name="Rectangle 2921" width="74.423" height="88.343" fill="#0069b3"/>
    </clipPath>
  </defs>
  <g id="Group_16444" data-name="Group 16444" transform="translate(-565 -6447.081)">
    <circle id="Ellipse_1362" data-name="Ellipse 1362" cx="75" cy="75" r="75" transform="translate(565 6447.081)" fill="#fff"/>
    <g id="Group_16427" data-name="Group 16427" transform="translate(604 6478.081)">
      <g id="Group_16426" data-name="Group 16426" clip-path="url(#clip-path)">
        <path id="Path_11992" data-name="Path 11992" d="M.036,329.606c.126,4.6.725,5.244,5.332,5.247q18.012.01,36.023,0c.7,0,1.407-.119,2.387-.208-2.057-3.908-.787-7.058,1.343-10.126a68.546,68.546,0,0,0,3.6-5.84,5.71,5.71,0,0,0,1.019-3.073,7.507,7.507,0,0,1,2.931-7.19,3.579,3.579,0,0,0,1.138-1.612,2.789,2.789,0,0,0-.16-1.882c-2-3.577-7.9-2.994-10.563-.307-2.758,2.782-5.365,5.715-8.067,8.613-3.937-3.466-7.32-6.549-10.84-9.466a4.54,4.54,0,0,0-3.162-1.1c-6.85,1.176-12.719,4.247-17,9.849-3.87,5.064-4.146,11.042-3.98,17.1" transform="translate(0 -249.201)" fill="#0069b3"/>
        <path id="Path_11993" data-name="Path 11993" d="M89.277,14.038c1.277-2.9,1.105-3.379-1.89-4.568-7.044-2.8-14.072-5.634-21.148-8.345C64.251.364,62.322-.611,59.923.506c-3.656,1.7-7.526,2.937-11.29,4.41-4.449,1.741-8.9,3.492-13.306,5.327-.658.274-1.462.883-1.564,1.592-.154,1.067.43,1.322,1.141,1.675.556.277,17.517,6.365,25.518,9.091a5.438,5.438,0,0,0,3.141.052c4.212-1.286,8.374-2.737,12.552-4.135,2.844-.951,5.684-1.913,8.742-2.943.028,5.065.672,9.983-1.126,14.719a6.55,6.55,0,0,0-.276,2.389,3.345,3.345,0,0,0,3.573,3.6c2.334.009,3.357-.83,3.758-3.326a5.826,5.826,0,0,0-.575-3.265c-2.067-4.3-1.431-8.977-1.413-13.533a5.464,5.464,0,0,1,.479-2.117" transform="translate(-27.801 -0.001)" fill="#0069b3"/>
        <path id="Path_11994" data-name="Path 11994" d="M109.108,123.424c-4.958-1.791-9.978-3.413-15.341-5.228,0,4.921-.065,9.507.04,14.089a17.1,17.1,0,0,0,.838,4.1c2.133,7.648,8.994,13.18,15.957,13.542a17.646,17.646,0,0,0,17.712-13.779c1.14-5.73,1.008-11.712,1.475-18-5.319,1.834-10.051,3.372-14.707,5.114a8.136,8.136,0,0,1-5.973.169m15.286,8.424c-.624,4.632-2.015,9.027-6.279,11.633q-.513.314-1.034.6a11.532,11.532,0,0,1-11.342-.058,14.015,14.015,0,0,1-6.651-9.484c-1.251-6.174,0-7.755,5.915-5.876,5.277,1.677,10.085.877,15.091-.438,3.3-.868,4.747.311,4.3,3.623" transform="translate(-77.252 -97.353)" fill="#0069b3"/>
        <path id="Path_11995" data-name="Path 11995" d="M340.7,260.515a62.63,62.63,0,0,0-7.561-3.462c-1.378-.51-2.982-.438-3.765,1.332-1.506,3.4-3.013,6.805-4.59,10.365,3.426,1.805,6.506,3.485,9.656,5.022a1.433,1.433,0,0,0,1.756-.51c1.885-2.986,3.678-6.034,5.417-9.109a2.442,2.442,0,0,0-.913-3.638" transform="translate(-267.631 -211.596)" fill="#0069b3"/>
        <path id="Path_11996" data-name="Path 11996" d="M306.778,355.83a19.6,19.6,0,0,0-5.984-1.992,3.083,3.083,0,0,0-3.693,2.436c-.434,1.777.892,2.6,2.221,3.318,2.65,1.437,5.349,2.791,7.929,4.344,2.515,1.513,2.9,3.021,1.74,5.757-.711,1.675-1.486,3.324-2.413,5.384a13.482,13.482,0,0,0,3.157-.033,8.543,8.543,0,0,0,3.837-14.391,30.853,30.853,0,0,0-6.794-4.823" transform="translate(-244.754 -291.527)" fill="#0069b3"/>
        <path id="Path_11997" data-name="Path 11997" d="M265.545,412.844a3.915,3.915,0,0,0,0,3.11c1.607,3.016,5.255,4.15,8.414,5.626,0,0,4-7.046,5.146-9.428,1.339-2.772,1.085-3.605-1.649-5.129-1.47-.819-3.01-1.512-4.518-2.261a2.191,2.191,0,0,0-3.217.842c-1.429,2.394-2.951,4.745-4.176,7.241" transform="translate(-218.555 -333.236)" fill="#0069b3"/>
      </g>
    </g>
  </g>
</svg>
