<svg xmlns="http://www.w3.org/2000/svg" xmlns:xlink="http://www.w3.org/1999/xlink" width="150" height="150" viewBox="0 0 150 150">
  <defs>
    <clipPath id="clip-path">
      <rect id="Rectangle_2923" data-name="Rectangle 2923" width="83.898" height="80.716" fill="#0069b3"/>
    </clipPath>
  </defs>
  <g id="Group_16445" data-name="Group 16445" transform="translate(-885 -6447.081)">
    <circle id="Ellipse_1363" data-name="Ellipse 1363" cx="75" cy="75" r="75" transform="translate(885 6447.081)" fill="#fff"/>
    <g id="Group_16431" data-name="Group 16431" transform="translate(918.051 6482.081)">
      <g id="Group_16430" data-name="Group 16430" transform="translate(0)" clip-path="url(#clip-path)">
        <path id="Path_12001" data-name="Path 12001" d="M121.3,0C109.738,0,65.865,0,55.489.021c-2.668.005-4.329,1.212-4.552,3.547-.194,2.019-.04,4.07-.04,6.509,6.709-4.032,13.222-4.668,18.461,1.377,4.857,5.6,3.287,11.61-1,17.394,3.871.734,6.161,3.319,8.5,5.9a2.729,2.729,0,0,0,2.27.457c4.365-1.1,7.3-4.317,10.333-7.33,1.821-1.81,3.5-3.763,5.262-5.671,1.615,1.109,1.809,2.262.729,3.648a94.762,94.762,0,0,1-6.176,7.815c-1.514,1.569-1.113,2.436-.011,3.837,2.435,3.094,2.285,5.287-.3,8.271-1.463,1.691-2.921,3.387-4.756,5.516,1.434.09,2.218.182,3,.183q16.007.022,32.015.024c6.48.005,6.535.009,6.546-6.4q.036-20.342-.044-40.684C125.721.691,124.952.005,121.3,0" transform="translate(-41.893 0)" fill="#0069b3"/>
        <path id="Path_12002" data-name="Path 12002" d="M45.43,189.976a3.731,3.731,0,0,0-4.711-1.381,22.851,22.851,0,0,0-3.2,1.518,1.843,1.843,0,0,1-2.668-.518c-1.324-1.5-2.845-2.816-4.178-4.3a9.41,9.41,0,0,0-7.484-3.2c-3.927.031-7.855-.011-11.782,0C6.393,182.11.24,187.363.113,192.4c-.155,6.126-.133,12.151-.039,18.226.034,2.2,1.141,3,3.327,2.882,2.756-.143,3.29-.709,3.293-3.533,0-4.509,0-9.018,0-13.5a.951.951,0,0,1,.936-.95c2.181-.035,2.181.078,2.181,2.529q0,14.784,0,29.568c0,2.254.694,2.949,2.857,2.986,2.325.04,3.331-.853,3.359-3.063.03-2.371.009-4.743.009-7.114,0-3.342,0-6.685,0-10,0-.583.088-1.144,1.018-1.134,2.144.023,2.144.023,2.118,2.394-.054,4.965-.012,9.93-.007,14.894,0,3.065.889,4.078,3.6,4.174,2.938.1,3.955-.831,4.157-3.854.039-.59.011-1.185.011-1.777q0-15.335,0-30.669c-.012-.286.18-.587.58-.231,1.974,2.072,3.97,4.124,5.916,6.224,1.454,1.569,2.9,1.615,4.365.09q3.309-3.443,6.565-6.936c.954-1.023,2.156-2.112,1.073-3.631" transform="translate(0 -150.052)" fill="#0069b3"/>
        <path id="Path_12003" data-name="Path 12003" d="M66.827,67.718c-.092-4.335-3.31-8.663-9.411-8.963-4.872-.24-9.234,4.226-9.235,9.089a9.287,9.287,0,0,0,9.263,9.483,9.907,9.907,0,0,0,9.383-9.609" transform="translate(-39.703 -48.409)" fill="#0069b3"/>
      </g>
    </g>
  </g>
</svg>
