<svg xmlns="http://www.w3.org/2000/svg" xmlns:xlink="http://www.w3.org/1999/xlink" width="150" height="150" viewBox="0 0 150 150">
  <defs>
    <clipPath id="clip-path">
      <rect id="Rectangle_2922" data-name="Rectangle 2922" width="72.922" height="80.56" fill="#0069b3"/>
    </clipPath>
  </defs>
  <g id="Group_16446" data-name="Group 16446" transform="translate(-1205 -6447.081)">
    <circle id="Ellipse_1364" data-name="Ellipse 1364" cx="75" cy="75" r="75" transform="translate(1205 6447.081)" fill="#fff"/>
    <g id="Group_16429" data-name="Group 16429" transform="translate(1243.539 6482.081)">
      <g id="Group_16428" data-name="Group 16428" clip-path="url(#clip-path)">
        <path id="Path_11998" data-name="Path 11998" d="M69.779,312.208c-4.965.022-9.929.007-15.3.007,0-1.167,0-2.118,0-3.07.015-5.854.073-11.708.032-17.562-.029-3.95-.977-4.832-4.865-4.835q-13.119-.011-26.235-.013c-3.771,0-4.761.94-4.765,4.7-.006,6.077.02,12.154.034,18.23,0,.78,0,1.558,0,2.474H15.732c-4.373,0-8.744-.01-13.116.015-1.532.009-2.676.7-2.613,2.351a2.294,2.294,0,0,0,2.666,2.315c.223-.006.444.006.668.006l66.481.013c1.56,0,3.1-.047,3.1-2.2s-1.424-2.446-3.143-2.439m-33.319-8.959a2.664,2.664,0,1,1,2.666-2.665,2.665,2.665,0,0,1-2.666,2.665" transform="translate(0 -236.282)" fill="#0069b3"/>
        <path id="Path_11999" data-name="Path 11999" d="M34.2,223.2c0-.513-.039-13.241.055-19.1.064-3.979,2.306-6.129,6.218-6.139q14.79-.036,29.58-.016c3.852,0,6.421,2.6,6.445,6.543.033,5.486.08,17.994.12,18.876a16.418,16.418,0,0,0,8.52-3.96c3.022-2.665,3.764-5.051,2.072-8.653-3.188-6.785-6.447-13.544-9.91-20.192-2.334-4.481-6.2-7.232-11.328-7.4-7.109-.231-14.237-.288-21.344-.043-5.149.177-9.424,2.456-11.857,7.245C29.806,196.193,26.985,202.1,24.177,208a12.424,12.424,0,0,0-1.437,4.334C22.4,217.81,27.907,222.985,34.2,223.2" transform="translate(-18.727 -150.765)" fill="#0069b3"/>
        <path id="Path_12000" data-name="Path 12000" d="M140.706,28.823c7.519,0,14.142-6.435,14.224-13.83C155.024,6.567,149.052.087,141.116,0c-7.95-.133-14.357,5.865-14.57,14.315-.19,7.532,6.759,14.5,14.161,14.505" transform="translate(-104.275 0)" fill="#0069b3"/>
      </g>
    </g>
  </g>
</svg>
