<svg xmlns="http://www.w3.org/2000/svg" xmlns:xlink="http://www.w3.org/1999/xlink" width="220" height="220" viewBox="0 0 220 220">
  <defs>
    <clipPath id="clip-path">
      <rect id="Rectangle_2878" data-name="Rectangle 2878" width="110.883" height="113.168" fill="#fff"/>
    </clipPath>
  </defs>
  <g id="Group_16451" data-name="Group 16451" transform="translate(-364 -6964.081)">
    <rect id="BG" width="220" height="220" rx="28" transform="translate(364 6964.081)" fill="#d42c26"/>
    <g id="Group_16417" data-name="Group 16417" transform="translate(418.559 7017.081)">
      <g id="Group_16366" data-name="Group 16366" clip-path="url(#clip-path)">
        <path id="Path_11875" data-name="Path 11875" d="M93.4,1232.83V1209.4l3.872,2.019v21.421a5.442,5.442,0,0,0-1.9-.365h-.078a5.552,5.552,0,0,0-1.894.355" transform="translate(-88.526 -1146.29)" fill="#fff" fill-rule="evenodd"/>
        <path id="Path_11876" data-name="Path 11876" d="M768.466,371.7a13.766,13.766,0,1,0,13.761,13.766A13.779,13.779,0,0,0,768.466,371.7m-3.648,16.26,9.085-9.085a1.934,1.934,0,1,1,2.734,2.734L766.2,392.051a1.933,1.933,0,0,1-1.367.569,1.9,1.9,0,0,1-1.362-.564l-3.178-3.152a1.934,1.934,0,0,1,2.724-2.745Z" transform="translate(-715.318 -352.304)" fill="#fff" fill-rule="evenodd"/>
        <path id="Path_11877" data-name="Path 11877" d="M534.19,6.857c-3.94,4.728-8.746,7.071-13.99,6.846a61.381,61.381,0,0,0,1.132,18.927,54.557,54.557,0,0,0,3.293,10.181.725.725,0,0,1,.063.146,49.086,49.086,0,0,0,21.244,23.07c11.089-6.319,18.723-15.357,22.767-26.921a2.019,2.019,0,0,1,.167-.491,55.779,55.779,0,0,0,1.691-6.126A61.355,61.355,0,0,0,571.667,13.7c-5.255.224-10.05-2.119-14-6.846A30.524,30.524,0,0,1,553.419,0H538.443a30.3,30.3,0,0,1-4.253,6.857M528.3,33.162a17.632,17.632,0,1,1,17.633,17.632A17.654,17.654,0,0,1,528.3,33.162" transform="translate(-492.788)" fill="#fff" fill-rule="evenodd"/>
        <path id="Path_11878" data-name="Path 11878" d="M463.635,1363.4,426.8,1382.655a1.956,1.956,0,0,1-.9.224,1.891,1.891,0,0,1-.9-.224L388.2,1363.4v21.358a10.838,10.838,0,0,0,10.828,10.828H452.8a10.839,10.839,0,0,0,10.833-10.828Z" transform="translate(-367.943 -1292.254)" fill="#fff" fill-rule="evenodd"/>
        <path id="Path_11879" data-name="Path 11879" d="M9.111,1954a5.381,5.381,0,0,1-4.634.016L0,1965.2H13.588Z" transform="translate(0 -1852.035)" fill="#fff" fill-rule="evenodd"/>
        <path id="Path_11880" data-name="Path 11880" d="M165.391,819.469a54.557,54.557,0,0,1-19.375,17.351,1.9,1.9,0,0,1-.929.24,1.931,1.931,0,0,1-.934-.24,54.606,54.606,0,0,1-19.375-17.351,53.5,53.5,0,0,1-3.632-6.288L97,825.731l14.136,7.373.01.01h.005l38.74,20.268,38.772-20.268,14.157-7.384L170.8,809.1a52.862,52.862,0,0,1-5.411,10.369" transform="translate(-91.938 -766.879)" fill="#fff" fill-rule="evenodd"/>
        <path id="Path_11881" data-name="Path 11881" d="M102.513,1725.6a1.527,1.527,0,0,0-1.513,1.539v5.516a1.476,1.476,0,0,0,.12.595c.037.063.068.125.1.193a1.518,1.518,0,0,0,2.813-.788v-5.547a1.494,1.494,0,0,0-1.482-1.513.119.119,0,0,1-.037.005" transform="translate(-95.73 -1635.554)" fill="#fff" fill-rule="evenodd"/>
      </g>
    </g>
  </g>
</svg>
