<svg xmlns="http://www.w3.org/2000/svg" xmlns:xlink="http://www.w3.org/1999/xlink" width="220" height="220" viewBox="0 0 220 220">
  <defs>
    <clipPath id="clip-path">
      <rect id="Rectangle_2909" data-name="Rectangle 2909" width="155.569" height="71" fill="none"/>
    </clipPath>
  </defs>
  <g id="Group_16448" data-name="Group 16448" transform="translate(-1085.215 -6964.081)">
    <rect id="BG" width="220" height="220" rx="28" transform="translate(1085.215 6964.081)" fill="#d42c26"/>
    <g id="Group_16420" data-name="Group 16420" transform="translate(1117.43 7038.081)" clip-path="url(#clip-path)">
      <path id="Path_11971" data-name="Path 11971" d="M155.537,25.728a2.324,2.324,0,0,1-1.253,1.737,2.021,2.021,0,0,1-.783.2,2.551,2.551,0,0,1-1.474,1.992,8.809,8.809,0,0,1-3.394.553,21.168,21.168,0,0,0-5.251.693c-1.455,2.036,1.069,2.838,2.317,1.1,1.3.528,3.1,1.694,2.061,3.242a4.019,4.019,0,0,0-.289.48,3.429,3.429,0,0,0-.191,1.675,4.614,4.614,0,0,1-.2,1.922,1.863,1.863,0,0,1-.913,1.022,4.056,4.056,0,0,1-2.154.161,8.427,8.427,0,0,0-.945-.06l-.38.007-.109-.364a4.262,4.262,0,0,1-.166-.967,1.229,1.229,0,0,0-.067-.378c-.04-.05-.08-.1-.123-.158a2.292,2.292,0,0,0-.4-.257l-.022-.01a3.585,3.585,0,0,0-.527-.246h0A8.481,8.481,0,0,0,140.88,36a6.2,6.2,0,0,0-.708-1.427,6.7,6.7,0,0,0-1.053-1.2c-.39-.358-.8-.676-1.2-.985s-.8-.617-1.171-.945a6.488,6.488,0,0,1-.983-1.05,3.843,3.843,0,0,1-.361-.586,5.449,5.449,0,0,1-.273-.658,4.849,4.849,0,0,1-.271-1.383,6.009,6.009,0,0,1,.1-1.427,15.3,15.3,0,0,1,.913-2.835,26.836,26.836,0,0,0,1.056-2.9,6.742,6.742,0,0,0,.2-3.077,7.686,7.686,0,0,1-.588,2.95c-.358.941-.826,1.836-1.265,2.766a13.78,13.78,0,0,0-1.092,2.94,6.358,6.358,0,0,0-.147,1.619,5.823,5.823,0,0,0,.3,1.616,6.644,6.644,0,0,0,.316.755,4.735,4.735,0,0,0,.447.712,7.062,7.062,0,0,0,1.13,1.159c.821.67,1.69,1.212,2.464,1.824a6.137,6.137,0,0,1,1.8,2.279,9.993,9.993,0,0,1,.678,2.055l0-.006c.068.288.131.575.186.866a2.509,2.509,0,0,1-.86,2.832,6.557,6.557,0,0,1-1.082.816q-.294.192-.536.362a3.353,3.353,0,0,0-.836,1.029,1.038,1.038,0,0,0,0,.119l.049,1.079-.857-.657a4.891,4.891,0,0,1-1.4-2.114,5.163,5.163,0,0,0-.8-1.441,8.58,8.58,0,0,1-1.878,2.778c-.28.271-.578.579-.864.876-.469.483-.952.984-1.406,1.365l-.548.465-.249-.677a5.317,5.317,0,0,1-.115-1.632c0-.188,0-.427,0-.658h0a7.24,7.24,0,0,0,.343-1.531,7.1,7.1,0,0,0-.276-2.972,5.2,5.2,0,0,0-.293-.7c-.111-.226-.226-.445-.35-.664a14.261,14.261,0,0,0-.814-1.251,23.136,23.136,0,0,0-1.915-2.272,36.345,36.345,0,0,0-4.434-3.914L119.9,28.523c-.388-.3-.766-.594-1.148-.9l-1.146-.913a21.5,21.5,0,0,1-4.132-3.987,10.538,10.538,0,0,1-1.376-2.465,10.94,10.94,0,0,1-.662-2.755,14.819,14.819,0,0,1-.018-2.87c.039-.48.1-.96.173-1.439a9.08,9.08,0,0,1,.331-1.391,7.045,7.045,0,0,1,1.365-2.5,5.61,5.61,0,0,1,2.372-1.615,5.561,5.561,0,0,0-1.363.552,5.634,5.634,0,0,0-1.179.906,7.152,7.152,0,0,0-1.581,2.525,9.306,9.306,0,0,0-.417,1.441q-.149.731-.244,1.467a14.386,14.386,0,0,0-.087,2.989,10.8,10.8,0,0,0,.625,2.951,11.3,11.3,0,0,0,1.418,2.672,15.64,15.64,0,0,0,2,2.246c.725.685,1.488,1.316,2.253,1.929l1.155.908c.383.3.775.606,1.167.9l2.349,1.757c.783.584,1.554,1.175,2.3,1.792s1.462,1.264,2.149,1.947a25.6,25.6,0,0,1,1.946,2.148c.3.374.578.766.837,1.168a7.9,7.9,0,0,1,.669,1.257,6.908,6.908,0,0,1,.43,2.812,7.122,7.122,0,0,1-.2,1.433c0,.023-.048.088-.053.109h.007c-.03.044-.061.088-.1.139a7.919,7.919,0,0,0-.772,1.92,6.949,6.949,0,0,1-1.24,2.638,11.222,11.222,0,0,1-1.18,1.1c-.163.14-.322.274-.473.409-.176.116-.368.2-.554.3,0,.029-.007.1-.025.287l.025-.287c-.034.019-.088.072-.122.089-.107.053-.213.1-.32.155a14.67,14.67,0,0,1-1.418.573c-.241.084-.482.156-.725.215l-.138.03a4.908,4.908,0,0,0,.945-1.765,6.569,6.569,0,0,0,.2-2.589,9.681,9.681,0,0,0-.633-2.5,11.409,11.409,0,0,0-1.217-2.27,9.46,9.46,0,0,0-.811-1.018c-.291-.318-.594-.611-.908-.9-.627-.575-1.286-1.1-1.958-1.609-1.344-1.013-2.744-1.913-4.052-2.9a17.4,17.4,0,0,1-3.506-3.373,11.762,11.762,0,0,1-.669-1c-.208-.351-.4-.708-.58-1.073a16.584,16.584,0,0,1-.915-2.27,19.913,19.913,0,0,1-.607-2.381,19.079,19.079,0,0,1-.3-2.448,15.056,15.056,0,0,1,.489-4.915,13.839,13.839,0,0,0-.852,4.924,17.479,17.479,0,0,0,.176,2.518,17.722,17.722,0,0,0,.521,2.477,17.339,17.339,0,0,0,.865,2.387c.175.386.364.773.576,1.138s.444.736.7,1.085a14.54,14.54,0,0,0,1.675,1.936,21.94,21.94,0,0,0,1.931,1.646c1.338,1.025,2.731,1.942,4.057,2.919a18.811,18.811,0,0,1,1.908,1.544c.3.27.592.558.874.846a9.366,9.366,0,0,1,.76.917,10.7,10.7,0,0,1,1.179,2.1,9.5,9.5,0,0,1,.663,2.306,6.148,6.148,0,0,1-.09,2.363,4.38,4.38,0,0,1-1.139,2.041l-.393.4.547-.025a3.245,3.245,0,0,0,.806-.157,7.867,7.867,0,0,0,.745-.268,14.03,14.03,0,0,0,1.411-.676c.1-.055.2-.115.3-.174h0c.053.218.107.438.163.665A21.978,21.978,0,0,1,126.134,54c.092.77.183,1.568.34,2.324a9.64,9.64,0,0,0,1.6,3.086,8.377,8.377,0,0,1,1.8,3.962c.47.123,1.577.25,2.153.318a7.958,7.958,0,0,1,1.088.156c1.1.341,1.294.445,1.566,1.128a5.57,5.57,0,0,0,.3.652c.058.109.139.242.223.381a4.617,4.617,0,0,1,.669,1.428,2.167,2.167,0,0,1-.38,1.874c-.56.681-1.617,1.011-3.232,1.011-.65,0-1.273-.051-1.775-.092L130.2,70.2c-.423-.033-.9-.043-1.41-.053a13.828,13.828,0,0,1-2.982-.26,2.8,2.8,0,0,1-2.285-2.539c-.078-.317-.158-.642-.282-.994-.276-.773-.978-1.149-1.789-1.587a4.93,4.93,0,0,1-2.062-1.653,6.466,6.466,0,0,1-.511-1.1,4.017,4.017,0,0,0-.838-1.46,12.877,12.877,0,0,0-1.143-1.031,9.892,9.892,0,0,1-1.715-1.69,31.362,31.362,0,0,1-3.233-5.217c-.092-.185-.166-.385-.245-.6l0-.005a5.071,5.071,0,0,0-1.748-1.387c-.128-.057-.26-.11-.392-.158l-.139.018a6.43,6.43,0,0,1-.83.069,7.052,7.052,0,0,1-5.042-2.032,6.7,6.7,0,0,1-.569-.644,2.531,2.531,0,0,0-.927-.851l.008,0,.008,0a1,1,0,0,0-.132-.034c-.029-.005-.06-.01-.093-.013.033,0,.064.008.093.013a.927.927,0,0,1,.131.034c.345-.195.7-.364,1.07-.529.426-.195.864-.38,1.3-.582a9.188,9.188,0,0,0,1.3-.719,7.079,7.079,0,0,0,2.081-2.149,7.52,7.52,0,0,0,.976-2.766,17.259,17.259,0,0,1-1.516,2.39,9.122,9.122,0,0,1-2.012,1.834c-.735.506-1.615.9-2.444,1.414a7.089,7.089,0,0,0-1.188.888l.015.007c-.083.071-.187.167-.329.312l.015.007c-.032.034-.062.068-.091.1a9.8,9.8,0,0,0-1.363,1.712c-.08.119-.151.226-.213.312a30.2,30.2,0,0,0-1.792,3.032,30.753,30.753,0,0,1-1.866,3.155c-.307.429-.623.86-.928,1.275a27.162,27.162,0,0,0-2.213,3.324,8.532,8.532,0,0,0-.909,2.517,7.476,7.476,0,0,0-.158,1.522,1.5,1.5,0,0,1,.439,0,2.179,2.179,0,0,1,1.093.71,1.676,1.676,0,0,1,.322.634,1.616,1.616,0,0,0,.073.193,1.627,1.627,0,0,0,.206.032,2.426,2.426,0,0,1,.265.039,6.721,6.721,0,0,1,.988.324l.144.058a2.936,2.936,0,0,1,1.732,1.232,2,2,0,0,1,.142,1.79c-.413.861-1.573,1.131-2.505,1.351a20.08,20.08,0,0,1-4.4.547,8.995,8.995,0,0,1-3.561-.622c-.756-.331-2.068-1.03-2.377-2.008a2.477,2.477,0,0,1,.438-2.118,4.3,4.3,0,0,0,.3-.57,2.2,2.2,0,0,0,.167-.543c-.048-.023-.12-.054-.175-.08a2.774,2.774,0,0,1-.947-.621c-.876-.905-.462-2.578-.371-2.907a16.507,16.507,0,0,1,.826-2.172,8.785,8.785,0,0,0,.941-3.295A26.012,26.012,0,0,1,86.763,50c.322-1.124.654-2.286.892-3.476.168-.84.053-1.14-.032-1.241a.886.886,0,0,0-.666-.176,7.236,7.236,0,0,0-1.046.1,17.19,17.19,0,0,1-2.565.163c-.739,0-1.479-.027-2.136-.053q-.354-.012-.716-.015a11.7,11.7,0,0,1-1.894-.126A19.1,19.1,0,0,1,74.79,43.9c-.677-.28-1.317-.544-1.925-.751-.43-.147-.874-.336-1.347-.537a8.86,8.86,0,0,0-3.114-.915l-.059,0c-.881.017-1.348.739-1.889,1.577-.16.245-.322.5-.5.733a5.729,5.729,0,0,0-1.049,2.37c-.1.466-.183.94-.276,1.439a16.372,16.372,0,0,1-1.452,4.943c-.222.407-.469.79-.708,1.161-.745,1.145-1.386,2.136-1.108,3.518.268,1.347,1.509,2.334,2.71,3.291.446.356.868.692,1.244,1.046a5.693,5.693,0,0,0,4.441,1.862c.175,0,.369-.007.565-.015s.392-.025.57-.04c.254-.019.5-.041.738-.041a2.5,2.5,0,0,1,1.989.878,4.4,4.4,0,0,1,1.219,2.745c-.132,1.862-2.446,1.918-4.136,1.959a10.965,10.965,0,0,0-1.2.068c-.362.052-.721.113-1.1.175a19.816,19.816,0,0,1-3.331.372,8.925,8.925,0,0,1-1.408-.1A2.762,2.762,0,0,1,61.6,68.372c-.131-.16-.278-.342-.458-.543a6.809,6.809,0,0,0-1.994-1.4l-.421-.228a24.408,24.408,0,0,1-4.577-3.489c-.322-.293-.7-.61-1.1-.947a16.655,16.655,0,0,1-3.194-3.2c-.812-1.254-.539-2.923-.3-4.4a14.363,14.363,0,0,0,.192-1.462,11.55,11.55,0,0,0-.923-5.689l-.058-.122c-.2-.426-.538-1.139-.934-1.3a.72.72,0,0,0-.157-.049l-.116-.007c-.095.014-.185.112-.391.384a2.842,2.842,0,0,1-.952.884A7.95,7.95,0,0,1,43.6,47.5a5.217,5.217,0,0,0-2.738.916,9.626,9.626,0,0,0-1.2,1.245A7.421,7.421,0,0,1,36.551,52.8a6.7,6.7,0,0,1-1.467.453.3.3,0,0,1-.039.01,9.79,9.79,0,0,0-1.906.92,6.883,6.883,0,0,0-2.046,2.69,7.671,7.671,0,0,0-.7,2.352c-.072.391-.148.79-.252,1.222-.044.172-.09.344-.135.517a5.2,5.2,0,0,0-.226,2.889,3.065,3.065,0,0,0,.9-.252,3.418,3.418,0,0,1,1.545-.323,6.135,6.135,0,0,1,2.942,1.418,3.958,3.958,0,0,1,1.422,2.948,2.525,2.525,0,0,1-.879,2.084,5.532,5.532,0,0,1-2.611.708c-.2.023-.382.044-.526.066a18.553,18.553,0,0,1-2.964.252c-.113,0-.227,0-.345,0-1.718-.01-4.076-.028-4.8-1.995a16.02,16.02,0,0,1-.642-2.475A8.346,8.346,0,0,0,22.432,62.6c-1.167-1.543-.919-3.012-.657-4.565.052-.3.106-.621.15-.945A10.016,10.016,0,0,0,22,54.024a6.084,6.084,0,0,0-.233-.811,3.859,3.859,0,0,1-.3-2.038c.351-1.369,1.64-1.833,2.776-2.24a5.85,5.85,0,0,0,1.547-.719c-.411-3.035.979-6.148,2.1-8.664.347-.779.625-1.611.921-2.49a17.686,17.686,0,0,1,1.808-4.178l.289-.438c.939-1.414,1.909-2.876,2.789-4.355.124-.209.251-.414.372-.615A14.373,14.373,0,0,0,35.413,24.9a16.953,16.953,0,0,1,1.651-3.411c-1.276.072-3.708.1-8.433.151-4.523.045-9.648.1-10.68.263-3,.485-10.261,2.22-13.011,7.822-1,2.047-1.543,5.36-.353,7.8.866,1.778,3.761,4.744,5.554,4.9.239.019.47.039.688.058,2.251.185,3.739.309,5.885,1.758a24.933,24.933,0,0,1,4.773,4.522l.52.612-.778.2a23.932,23.932,0,0,1-5.864,1.005,9.839,9.839,0,0,1-3.9-.774c-1.531-.645-2.541-1.074-3.271-2.685a2.938,2.938,0,0,1-.153-.842,6.9,6.9,0,0,0-.125-.853,11.34,11.34,0,0,1-6.8-5.856,14.574,14.574,0,0,1-.75-9.012A11.462,11.462,0,0,1,4.4,23.827c7.479-6.154,16.193-6.551,25.414-6.969l1.208-.057a34.329,34.329,0,0,0,10.7-2.111c4.193-1.485,7.714-2.636,11.655-2.846l.087,0c1.028-.05,2.12-.076,3.246-.076,3.343,0,6.728.223,10,.439s6.627.437,9.94.437c.418,0,.832,0,1.253-.009a88.467,88.467,0,0,0,12.717-1.459c1.762-.291,3.588-.591,5.4-.839l.211-.028c2.408-.331,4.742-.922,7.114-1.352.083-.014.165-.034.245-.053a.083.083,0,0,1-.018.015h0c-.123.09-.244.185-.361.28a11.1,11.1,0,0,0-1.026.992,11.882,11.882,0,0,0-.874,1.13,10.851,10.851,0,0,0-.725,1.233,11.291,11.291,0,0,0-.579,1.31,13.012,13.012,0,0,0-.419,1.374c-.056.234-.1.47-.148.708l-.111.688a20.676,20.676,0,0,1-1.415,5.249,6.029,6.029,0,0,1-1.549,2.142,3.519,3.519,0,0,1-1.163.641,3.991,3.991,0,0,1-1.354.18,3.532,3.532,0,0,0,2.75-.5,5.005,5.005,0,0,0,1.074-.976,7.351,7.351,0,0,0,.806-1.2,12.912,12.912,0,0,0,1.059-2.646c.136-.452.25-.912.348-1.371s.189-.921.268-1.383l.11-.686c.036-.219.079-.436.128-.656a12.045,12.045,0,0,1,.371-1.292,13.475,13.475,0,0,1,.5-1.254c.187-.411.4-.808.622-1.2a10.908,10.908,0,0,1,.748-1.129,9.829,9.829,0,0,1,.874-1.039,9.057,9.057,0,0,1,.736-.7l.006-.021.033-.006c.23-.195.47-.383.719-.56.16-.09.321-.178.489-.265a3.814,3.814,0,0,0,1.4-1.445,10.2,10.2,0,0,1,.707-.969,6.805,6.805,0,0,1,2.2-1.83,5.168,5.168,0,0,1,.873-.332,12.532,12.532,0,0,1,3.8-.627c.213,0,.419.006.619.007a9.447,9.447,0,0,1,2.428.233,2.9,2.9,0,0,0,2.122-.239c.493-.222.978-.468,1.467-.713.284-.142.568-.284.849-.421A8.883,8.883,0,0,1,127.567.479,9.22,9.22,0,0,0,130.831.3l.235-.046,0,.006a10.647,10.647,0,0,1,3.294-.2,3.978,3.978,0,0,1,2.454,1.017,3.733,3.733,0,0,1,.719,1.108,1.963,1.963,0,0,0,.394.634,3,3,0,0,0,.941.3,3.81,3.81,0,0,1,1.608.62,5.911,5.911,0,0,1,1.89,2.717,7.9,7.9,0,0,1,.295,1.179c.318,1.584.593,2.31,1.718,2.152a1.344,1.344,0,0,0,.383-.125,3.083,3.083,0,0,0,.984-.821l.779-1,.116,1.263a2.624,2.624,0,0,1-1.069,2.515,10.111,10.111,0,0,1,1.889,1.985,7.54,7.54,0,0,1,.615,1c.064.115.124.231.189.345l-.048.031a5.665,5.665,0,0,1,.289.965,3.921,3.921,0,0,1,.08.69.493.493,0,0,0,0,.074,6.269,6.269,0,0,0,.341.591,9.438,9.438,0,0,0,1.075,1.314c.107.115.211.229.309.336.472.528.894,1.021,1.3,1.5a31.215,31.215,0,0,0,2.569,2.785c.125.116.245.222.352.32a2.135,2.135,0,0,1,1,2.173M101.615,46.974c-.041,0-.084,0-.128.009l-.008.009.008-.009c.045,0,.088-.007.128-.009m40.505-34.1a8.186,8.186,0,0,1-1.606.4,22.906,22.906,0,0,0-3.418.613,6.05,6.05,0,0,0-.849.354,4.232,4.232,0,0,0-.782.527,3.907,3.907,0,0,0-1.078,1.517,3.366,3.366,0,0,0-.233.908,2.591,2.591,0,0,0,.06.937,2.1,2.1,0,0,0,.427.817,2.04,2.04,0,0,0,.717.519,2.269,2.269,0,0,1-.524-.652,1.863,1.863,0,0,1-.215-.757,2.776,2.776,0,0,1,.362-1.49,3.693,3.693,0,0,1,.987-1.186,4.53,4.53,0,0,1,1.388-.7c1.024-.331,2.166-.455,3.3-.766a6.528,6.528,0,0,0,1.645-.668,3.621,3.621,0,0,0,1.257-1.225,4.519,4.519,0,0,1-1.435.855M47.566,45.538s4.59-8.448,13.25-8.778c0,0-8.932-1.47-13.25,8.778M62.231,31.6c-.144-2.542.312-4.714-.814-7.517a2.991,2.991,0,0,0-.957-1.061c1.955,1.673.6,5.715,1.44,10.73s6.845,7.906,6.845,7.906a24.208,24.208,0,0,1-2.651-2.263,12.063,12.063,0,0,1-3.863-7.8m27.631,7.269a5.463,5.463,0,0,0-.6,1.72,11.792,11.792,0,0,0-.03,3.577c.021.148.046.292.061.425s.031.274.042.412c.026.277.034.555.034.834a14.076,14.076,0,0,1-.108,1.686c-.123,1.133-.367,2.282-.431,3.46a27.159,27.159,0,0,0,1.084-3.349,10.663,10.663,0,0,0,.249-1.778c.015-.3.012-.6,0-.909-.011-.153-.027-.305-.044-.454s-.038-.3-.056-.439a16.919,16.919,0,0,1-.151-3.379,6.214,6.214,0,0,1,.317-1.63,2.547,2.547,0,0,1,1-1.321,1.993,1.993,0,0,0-.788.43,3.071,3.071,0,0,0-.578.715" transform="translate(0 0)" fill="#fff" fill-rule="evenodd"/>
      <path id="Path_11972" data-name="Path 11972" d="M80.162,55.525V49.507l-.745,2.765H76.954l-.727-2.749v6H73.656V41.587H76.18L78.2,47.954l2.015-6.368h2.525V55.525Z" transform="translate(-31.451 -17.757)"/>
      <path id="Path_11973" data-name="Path 11973" d="M82.765,41.394H80.049L80,41.548l-1.886,5.959-1.886-5.959-.049-.154H73.465V55.553h2.792V50.29l.488,1.845.044.164h2.631l.044-.163.507-1.879v5.3h2.8V41.394Zm-.221.221V55.333H80.19V48.591l-.94,3.487H76.957l-.921-3.487v6.742h-2.35V41.615h2.332l2.1,6.623,2.1-6.623Z" transform="translate(-31.369 -17.675)"/>
      <path id="Path_11974" data-name="Path 11974" d="M95.906,44.159H94.422v4.718h1.485Zm0,11.367V51.449H94.422v4.076H91.85V43.147a1.562,1.562,0,0,1,1.56-1.56h3.529a1.562,1.562,0,0,1,1.56,1.56V55.525Z" transform="translate(-39.22 -17.758)"/>
      <path id="Path_11975" data-name="Path 11975" d="M94.45,44.186h1.264v4.5H94.45Zm2.407-2.792H93.328a1.672,1.672,0,0,0-1.67,1.67V55.553H94.45V51.477h1.264v4.077h2.813V43.064a1.672,1.672,0,0,0-1.67-1.67M94.23,48.9h1.705V43.966H94.23Zm2.627-7.29a1.459,1.459,0,0,1,1.45,1.45V55.333H95.935V51.256H94.23v4.077H91.879V43.064a1.446,1.446,0,0,1,1.449-1.45Z" transform="translate(-39.138 -17.675)"/>
      <path id="Path_11976" data-name="Path 11976" d="M109.9,55.525l-.042-.162-1.738-5.54H108.1v5.7h-2.573V41.587H108.1v5.622l1.789-5.622h2.622l-2.23,6.952,2.23,6.987Z" transform="translate(-45.06 -17.757)"/>
      <path id="Path_11977" data-name="Path 11977" d="M112.58,41.394h-2.855l-.049.154-1.549,4.867V41.394h-2.794V55.553h2.794v-5.17l1.549,4.936.017.068.042.166h2.843l-.092-.288-2.173-6.81,2.173-6.773Zm-.3.221-2.195,6.841,2.195,6.877h-2.369l-.021-.08-1.764-5.623h-.215v5.7h-2.353V41.615h2.353v5.664h.177l1.8-5.664Z" transform="translate(-44.977 -17.675)"/>
      <path id="Path_11978" data-name="Path 11978" d="M118.491,55.525V41.587h6.649v2.572h-4.076v3.093h3.254v2.572h-3.254v3.111h4.076v2.591Z" transform="translate(-50.596 -17.757)"/>
      <path id="Path_11979" data-name="Path 11979" d="M125.168,41.394H118.3V55.553h6.869V52.741h-4.076v-2.89h3.254V47.058h-3.254V44.186h4.076V41.394Zm-.221.221v2.351h-4.076v3.313h3.254V49.63h-3.254v3.331h4.076v2.371H118.52V41.615Z" transform="translate(-50.514 -17.675)"/>
      <rect id="Rectangle_2906" data-name="Rectangle 2906" width="2.571" height="13.939" transform="translate(78.752 23.829)"/>
      <path id="Path_11980" data-name="Path 11980" d="M140.036,41.394h-2.791V55.553h2.791V41.394Zm-.221,13.939h-2.35V41.615h2.35Z" transform="translate(-58.603 -17.675)"/>
      <path id="Path_11981" data-name="Path 11981" d="M148.036,55.525,146.5,50.2v5.323h-2.572V41.587h2.523l1.533,5v-5h2.592V55.525Z" transform="translate(-61.459 -17.757)"/>
      <path id="Path_11982" data-name="Path 11982" d="M150.608,41.394H147.8v4.373L146.5,41.55l-.048-.156H143.74V55.553h2.793V50.9l1.292,4.491.046.16h2.738V41.394Zm-.221.221V55.333h-2.35l-1.725-6v6h-2.352V41.615h2.332l1.725,5.625V41.615Z" transform="translate(-61.377 -17.675)"/>
      <rect id="Rectangle_2907" data-name="Rectangle 2907" width="2.572" height="13.939" transform="translate(93.8 23.829)"/>
      <path id="Path_11983" data-name="Path 11983" d="M166.3,41.394h-2.792V55.553H166.3V41.394Zm-.221,13.939h-2.351V41.615h2.351Z" transform="translate(-69.817 -17.675)"/>
      <path id="Path_11984" data-name="Path 11984" d="M174.3,55.525,172.768,50.2v5.323H170.2V41.587h2.524l1.533,5v-5h2.592V55.525Z" transform="translate(-72.673 -17.757)"/>
      <path id="Path_11985" data-name="Path 11985" d="M176.873,41.394H174.06v4.373l-1.293-4.217-.048-.156H170V55.553H172.8V50.9l1.292,4.491.046.16h2.74V41.394Zm-.221.221V55.333H174.3l-1.725-6v6h-2.351V41.615h2.332l1.725,5.625V41.615Z" transform="translate(-72.592 -17.675)"/>
      <path id="Path_11986" data-name="Path 11986" d="M187.931,44.159h-1.486v8.775h1.486Zm-4.058,11.367V41.587h5.089a1.563,1.563,0,0,1,1.561,1.56V53.964a1.581,1.581,0,0,1-1.561,1.561Z" transform="translate(-78.514 -17.758)"/>
      <path id="Path_11987" data-name="Path 11987" d="M186.473,44.186h1.265v8.555h-1.265Zm2.407-2.792h-5.2V55.553h5.2a1.693,1.693,0,0,0,1.67-1.671V43.064a1.672,1.672,0,0,0-1.67-1.67m-2.628,11.568h1.706v-9h-1.706Zm2.628-11.348a1.459,1.459,0,0,1,1.45,1.45V53.882a1.473,1.473,0,0,1-1.45,1.451H183.9V41.615Z" transform="translate(-78.431 -17.675)"/>
      <rect id="Rectangle_2908" data-name="Rectangle 2908" width="2.572" height="13.939" transform="translate(113.316 23.829)"/>
      <path id="Path_11988" data-name="Path 11988" d="M200.358,41.394h-2.792V55.553h2.792V41.394Zm-.221,13.939h-2.35V41.615h2.35Z" transform="translate(-84.36 -17.675)"/>
      <path id="Path_11989" data-name="Path 11989" d="M208.313,44.159H206.83v4.718h1.483Zm0,11.367V51.449H206.83v4.076h-2.574V43.147a1.562,1.562,0,0,1,1.56-1.56h3.527a1.563,1.563,0,0,1,1.561,1.56V55.525Z" transform="translate(-87.217 -17.758)"/>
      <path id="Path_11990" data-name="Path 11990" d="M206.859,44.186h1.263v4.5h-1.263Zm2.4-2.792h-3.527a1.672,1.672,0,0,0-1.67,1.67V55.553h2.794V51.477h1.262v4.077h2.812V43.064a1.673,1.673,0,0,0-1.671-1.67M206.638,48.9h1.7V43.966h-1.7Zm2.623-7.29a1.459,1.459,0,0,1,1.451,1.45V55.333h-2.37V51.256h-1.7v4.077h-2.353V43.064a1.446,1.446,0,0,1,1.449-1.45Z" transform="translate(-87.136 -17.675)"/>
    </g>
  </g>
</svg>
