<svg xmlns="http://www.w3.org/2000/svg" width="226.243" height="333.628" viewBox="0 0 226.243 333.628">
  <g id="_415789314_2ebbf737-0e37-45e7-8a96-17fa342d36fa_Converted_" data-name="415789314_2ebbf737-0e37-45e7-8a96-17fa342d36fa [Converted]" transform="translate(-0.004)" style="isolation: isolate">
    <g id="Layer_3" transform="translate(0.004)">
      <g id="Group_16467" data-name="Group 16467" transform="translate(0)">
        <path id="Path_12007" data-name="Path 12007" d="M216.055,1124.122c42.533,38.729-58.977,21.127-104.1,35.189-58.033,18.088-54.577-15.653-84-8.264-16.786,4.218-41.781-13.878-18.523-27.26,10.433-6,39.712-5.827,98.806-5.827s95.151-5.366,107.812,6.161Z" transform="translate(-0.004 -831.087)" fill="#585e8c"/>
        <g id="Group_16466" data-name="Group 16466" transform="translate(25.755)">
          <g id="Group_16460" data-name="Group 16460" transform="translate(101.566)">
            <path id="Path_12008" data-name="Path 12008" d="M563.9,24.191V0H497.79V66.107H563.9V47.82a11.814,11.814,0,0,0,0-23.628Z" transform="translate(-497.79)" fill="#bcd670"/>
            <path id="Path_12009" data-name="Path 12009" d="M497.79,66.107H563.9L497.79,0Z" transform="translate(-497.79)" fill="#bcd670" opacity="0.5" style="mix-blend-mode: multiply;isolation: isolate"/>
          </g>
          <path id="Path_12010" data-name="Path 12010" d="M610.064,252.351l.1,2.527h-5.719l.051-5.844-2.54-4.274a1.515,1.515,0,0,1,1.3-2.289l3.33,4.092h8.088l-3.709,3.555a2.944,2.944,0,0,0-.9,2.238Z" transform="translate(-473.585 -180.452)" fill="#e8b4b6"/>
          <g id="Group_16462" data-name="Group 16462" transform="translate(89.417 294.946)">
            <g id="Group_16461" data-name="Group 16461" transform="translate(0.049 11.52)">
              <path id="Path_12011" data-name="Path 12011" d="M455.808,1198.8l-5.328.036.008,1.294a.516.516,0,0,0,.532.5l4.271-.028a.515.515,0,0,0,.524-.509Z" transform="translate(-450.48 -1198.644)" fill="#240401"/>
              <path id="Path_12012" data-name="Path 12012" d="M486.3,1200.119l19.155-.128a.508.508,0,0,0,.517-.5l-.008-1.3-19.674.13.013,1.8Z" transform="translate(-477.131 -1198.19)" fill="#240401"/>
            </g>
            <path id="Path_12013" data-name="Path 12013" d="M452.433,1155.073l7.44-.115a1.4,1.4,0,0,0,1.363-1.087l.151-.721,2.087.2a1.619,1.619,0,0,1,1.5,1.573l.013,1.921,1.645,1.212a11.594,11.594,0,0,0,6.463,2.238l2.45.09a2.816,2.816,0,0,1,1.931.854l.238.248a5.264,5.264,0,0,1,1.481,3.6v.309l-19.037.128a3.515,3.515,0,0,1-1.829-.5l-2.647-1.545.013,2.074-5.328.036-.054-8.448a2.112,2.112,0,0,1,2.125-2.077Z" transform="translate(-450.305 -1153.15)" fill="#875a3b"/>
            <path id="Path_12014" data-name="Path 12014" d="M451.121,1162.39a2.031,2.031,0,0,0-.831,1.637l.054,8.448,5.328-.036-.013-2.074,2.647,1.545a3.514,3.514,0,0,0,1.829.5l19.04-.128v-.309a5.222,5.222,0,0,0-.841-2.8C463.728,1169.674,454.879,1165,451.121,1162.39Z" transform="translate(-450.29 -1160.027)" fill="#875a3b" opacity="0.4" style="mix-blend-mode: multiply;isolation: isolate"/>
          </g>
          <g id="Group_16464" data-name="Group 16464" transform="translate(47.21 280.914)">
            <g id="Group_16463" data-name="Group 16463" transform="translate(0 6.086)">
              <path id="Path_12015" data-name="Path 12015" d="M290.119,1125.822l-3.793-3.742-.908.921a.515.515,0,0,0,.02.729l3.039,3a.52.52,0,0,0,.732.013l.908-.921Z" transform="translate(-285.277 -1122.08)" fill="#240401"/>
              <path id="Path_12016" data-name="Path 12016" d="M309.93,1148.509l13.635,13.454a.509.509,0,0,0,.719.013l.916-.926-14-13.82-1.264,1.281Z" transform="translate(-303.624 -1140.797)" fill="#240401"/>
            </g>
            <path id="Path_12017" data-name="Path 12017" d="M296.261,1098.92l5.343,5.179a1.4,1.4,0,0,0,1.732.194l.616-.4,1.333,1.619a1.62,1.62,0,0,1-.054,2.169l-1.35,1.368.3,2.021a11.626,11.626,0,0,0,2.987,6.154l1.668,1.8a2.811,2.811,0,0,1,.762,1.969l-.008.343a5.255,5.255,0,0,1-1.5,3.6l-.217.22-13.553-13.375a3.534,3.534,0,0,1-.944-1.645l-.78-2.965-1.455,1.476-3.793-3.742,5.937-6.013a2.111,2.111,0,0,1,2.972.036Z" transform="translate(-286.82 -1098.287)" fill="#875a3b"/>
            <path id="Path_12018" data-name="Path 12018" d="M295.041,1098.327a2.029,2.029,0,0,0-1.744.57l-5.937,6.013,3.793,3.742,1.455-1.476.78,2.964a3.511,3.511,0,0,0,.944,1.645l13.553,13.375.217-.22a5.2,5.2,0,0,0,1.381-2.571c-10.681-9.973-13.633-19.539-14.444-24.038Z" transform="translate(-286.827 -1098.3)" fill="#875a3b" opacity="0.4" style="mix-blend-mode: multiply;isolation: isolate"/>
          </g>
          <path id="Path_12019" data-name="Path 12019" d="M362.431,690.6s4.563,50.948,2.409,63.1l-.056.391a23.485,23.485,0,0,1-5.514,12.1l-32.941,37.98L313.1,793.437l35.131-41.891-13.408-60.764,27.608-.179Z" transform="translate(-258.773 -513.962)" fill="#48649b"/>
          <path id="Path_12020" data-name="Path 12020" d="M358.832,726.3c-.44.279,23.183,110.589,23.183,110.589l16.856-2.156L383.192,729.884S376.65,715,358.835,726.3Z" transform="translate(-292.804 -537.378)" fill="#798dc8"/>
          <path id="Path_12021" data-name="Path 12021" d="M445,1154.7l16.907-1.663a.939.939,0,0,0,.841-1.023l-.307-3.11a.939.939,0,0,0-1.023-.841l-16.907,1.662a.939.939,0,0,0-.842,1.023l.307,3.11A.94.94,0,0,0,445,1154.7Z" transform="translate(-355.942 -854.411)" fill="#9cafdd"/>
          <path id="Path_12022" data-name="Path 12022" d="M302.932,1092.656l13.131,10.778a.935.935,0,0,0,1.317-.131l1.985-2.417a.935.935,0,0,0-.13-1.317L306.1,1088.791a.935.935,0,0,0-1.317.131l-1.985,2.417A.935.935,0,0,0,302.932,1092.656Z" transform="translate(-250.95 -810.148)" fill="#9cafdd"/>
          <path id="Path_12023" data-name="Path 12023" d="M101.014,715.29a.882.882,0,0,0-.074,1.281.914.914,0,0,0,1.251.038l5.272-4.435a.386.386,0,0,1,.407-.056l.322.146a.385.385,0,0,1,.143.588l-4.5,5.7a.9.9,0,0,0,0,1.131.883.883,0,0,0,1.374-.018l4.919-6.231a.5.5,0,0,1,.537-.169l.212.064a.5.5,0,0,1,.317.662l-2.005,5a.883.883,0,1,0,1.64.657l2.461-6.133a.729.729,0,0,1,.361-.386l1.279-.616a.235.235,0,0,1,.338.222l-.159,4.187a.909.909,0,0,0,.762.946.884.884,0,0,0,1-.841l.445-11.814a.923.923,0,0,0-.742-.959.869.869,0,0,0-.489.064l-2.4-1.425a.851.851,0,0,0-.12-.215.885.885,0,0,0-.662-.338.873.873,0,0,0-.578.189L102.3,710.41a.881.881,0,0,0-.118,1.276.92.92,0,0,0,1.251.082l2.478-1.949a.364.364,0,0,1,.565.156l.115.3a.364.364,0,0,1-.1.412l-5.474,4.607Z" transform="translate(-100.699 -522.705)" fill="#e8b4b6"/>
          <path id="Path_12024" data-name="Path 12024" d="M157.31,351.592a10.216,10.216,0,0,1,3.481-3.468l5.627-3.589,14.73-8.873a.674.674,0,0,0,.059-.033l11.425-5.926.09-.054a30.224,30.224,0,0,1,5.325-2.837c.338.417,4.064-.176,4.064-.176s13.464,1.248,13.855,1.248c.223,0,.468-2.854.639-5.335l26.473-14.687a12.114,12.114,0,0,0,5.724-7.108l6.783-22.613a1.037,1.037,0,0,1,1.166-.724l7.65,1.307a1.037,1.037,0,0,1,.834,1.258l-7.377,31.3a12.68,12.68,0,0,1-4.819,7.3L233.9,332.7a1.027,1.027,0,0,0-.417.755l-3.66,48.715a1.036,1.036,0,0,1-.951.954l-28.007,2.223a1.027,1.027,0,0,1-1.026-.609c-1.627-3.658-9.41-21.378-10.806-28.509-.118-.606-.159-1.156-.744-.967l-17.845,3.54a10.7,10.7,0,0,0-6.619,4.269l-19.973,27.923a1.034,1.034,0,0,1-1.177.35l-6.515-2.348a1.036,1.036,0,0,1-.535-1.509l21.687-35.893Z" transform="translate(-126.581 -206.45)" fill="#30305b"/>
          <rect id="Rectangle_2928" data-name="Rectangle 2928" width="8.916" height="32.269" transform="matrix(0.993, -0.115, 0.115, 0.993, 74.2, 110.277)" fill="#e8b4b6"/>
          <path id="Path_12025" data-name="Path 12025" d="M399.611,426.41l-1.136-9.84L389.6,417.6l.813,7.047a15.754,15.754,0,0,0,9.2,1.765Z" transform="translate(-315.706 -310.022)" fill="#e8b4b6" opacity="0.5" style="mix-blend-mode: multiply;isolation: isolate"/>
          <path id="Path_12026" data-name="Path 12026" d="M344.9,388.258a4.553,4.553,0,1,1-6.023-2.276A4.553,4.553,0,0,1,344.9,388.258Z" transform="translate(-275.962 -286.956)" fill="#e8b4b6"/>
          <path id="Path_12027" data-name="Path 12027" d="M335.54,326.657l-7.6-12.183a15.358,15.358,0,0,1-2.161-10.507c5.952-1.859,15.433-4.816,15.61-4.849,0,0,6.625-3.53,7.085-3.778.368.414,3.76,8.057,3.76,8.057a16.534,16.534,0,0,0,3.243,5.159l2.885,3.113a12.16,12.16,0,0,1,1.923,13.773,3.381,3.381,0,0,1-.2.335,14.051,14.051,0,0,1-2.977,3.2,8.661,8.661,0,0,1-2.376,1.333,18.175,18.175,0,0,1-19.191-3.652Z" transform="translate(-268.072 -219.8)" fill="#e8b4b6"/>
          <path id="Path_12028" data-name="Path 12028" d="M406.6,358.3a.586.586,0,1,0,.775.292A.586.586,0,0,0,406.6,358.3Z" transform="translate(-328.102 -266.616)" fill="#19184b"/>
          <path id="Path_12029" data-name="Path 12029" d="M428.02,343.808a.585.585,0,1,0,.775.292A.586.586,0,0,0,428.02,343.808Z" transform="translate(-344.044 -255.832)" fill="#19184b"/>
          <path id="Path_12030" data-name="Path 12030" d="M384.776,378.222a3.084,3.084,0,1,0,3.837,2.074A3.083,3.083,0,0,0,384.776,378.222Z" transform="translate(-310.476 -281.385)" fill="#df524c" opacity="0.12" style="mix-blend-mode: multiply;isolation: isolate"/>
          <path id="Path_12031" data-name="Path 12031" d="M440.639,348.025l-1.729-1.905a3.084,3.084,0,0,0,4.115,4.586,24.877,24.877,0,0,0-2.386-2.683Z" transform="translate(-351.716 -257.591)" fill="#df524c" opacity="0.12" style="mix-blend-mode: multiply;isolation: isolate"/>
          <path id="Path_12032" data-name="Path 12032" d="M391.1,345.26l-2.289,2.535a.489.489,0,0,0,.036.691.488.488,0,0,0,.688-.036l2.289-2.535a.489.489,0,1,0-.726-.655Z" transform="translate(-315.028 -256.831)" fill="#4c2724"/>
          <path id="Path_12033" data-name="Path 12033" d="M419.6,334.682l-3.22,1.133a.488.488,0,1,0,.322.921l3.22-1.133a.475.475,0,0,0,.269-.233.482.482,0,0,0,.028-.391.489.489,0,0,0-.622-.3Z" transform="translate(-335.393 -249.057)" fill="#4c2724"/>
          <path id="Path_12034" data-name="Path 12034" d="M399.56,443.452l.5,2.9a1.3,1.3,0,0,1-1.054,1.5l-8.96,1.573a1.3,1.3,0,0,1-1.5-1.067l-.524-3.21a1.293,1.293,0,0,1,1.1-1.491l8.985-1.258a1.294,1.294,0,0,1,1.455,1.061Z" transform="translate(-314.517 -329.231)" fill="#adddf0"/>
          <path id="Path_12035" data-name="Path 12035" d="M424.12,387.29a4.074,4.074,0,0,1-3.054,2.993,4.013,4.013,0,0,1-3.936-1.788l6.99-1.2Z" transform="translate(-336.195 -288.231)" fill="#fff"/>
          <path id="Path_12036" data-name="Path 12036" d="M345.245,393.25a2.819,2.819,0,1,0,3.064,4.732Z" transform="translate(-281.738 -292.667)" fill="#e8b4b6" opacity="0.5" style="mix-blend-mode: multiply;isolation: isolate"/>
          <path id="Path_12037" data-name="Path 12037" d="M416.791,694.44,387.1,696.353s-.325,2.555-.31,2.468,30.092-1.773,30.092-1.773l-.087-2.606Z" transform="translate(-313.614 -516.82)" fill="#5f4142"/>
          <path id="Path_12038" data-name="Path 12038" d="M389.12,446.506l2.036-.286a30.442,30.442,0,0,0,8.819,2.486l.087.5a1.3,1.3,0,0,1-1.054,1.5l-8.96,1.573a1.3,1.3,0,0,1-1.5-1.067L388.02,448a1.293,1.293,0,0,1,1.1-1.491Z" transform="translate(-314.517 -332.088)" fill="#adddf0" style="mix-blend-mode: multiply;isolation: isolate"/>
          <path id="Path_12039" data-name="Path 12039" d="M384.169,480.24c-.087-.824-4.059-24.736-4.059-24.736a30.041,30.041,0,0,1,6.857-1.9l10.1-1.542a1.042,1.042,0,0,0,.345-.118l2.926-1.622c1.542.31,2.808.573,2.808.573l8.325,9.175.44,48.15-.972,3.6-20.073,1.593c-1.005-4.7-6.614-32.394-6.694-33.164Z" transform="translate(-308.644 -335.14)" fill="#adddf0"/>
          <path id="Path_12040" data-name="Path 12040" d="M348.555,470.74a31.923,31.923,0,0,1,11.292,21.406c1.466,13.065,2.709,40.261,1.361,51.3a3.593,3.593,0,0,1-3.126,3.133l-15.495,1.9a2.921,2.921,0,0,1-3.072-3.972l5.988-15.155a15.518,15.518,0,0,0,.182-10.922l-7.975-22.324,7.53-19.935,3.315-5.428Z" transform="translate(-277.089 -350.337)" fill="#30305b"/>
          <path id="Path_12041" data-name="Path 12041" d="M383.832,492c.995,8.878,1.888,24.283,1.936,36.709l-12.489-36.468a2.433,2.433,0,0,1,.176-1.969l2.944-5.287a2.429,2.429,0,0,0-1.322-3.476l-3.509-1.225a2.433,2.433,0,0,1-1.476-3.146l2.445-6.543A31.923,31.923,0,0,1,383.83,492Z" transform="translate(-301.074 -350.225)" fill="#161733"/>
          <path id="Path_12042" data-name="Path 12042" d="M450.075,449.423H453.9l.629.345,5.688.442.381,2.67a4.3,4.3,0,0,0,1.038.361c1,.077,1.284,8.464,1.872,9.049.215.215.115,4.716-.095,10.349l.414,2.9s.317,35.279,0,40.926c-.233,4.156-.046,10.349.069,13.328a1.66,1.66,0,0,1-1.66,1.724h-2.972a1.658,1.658,0,0,1-1.66-1.629l-.642-35.041h0c-.642-35.041-10.561-43.464-10.561-43.464l3.678-1.967Z" transform="translate(-357.978 -334.47)" fill="#30305b"/>
          <path id="Path_12043" data-name="Path 12043" d="M448.622,452.5l9.914,5.169a1.654,1.654,0,0,1,.657,2.125l-1.248,2.657a1.651,1.651,0,0,0,.435,1.97l2.673,2.235a1.652,1.652,0,0,1,.586,1.412l-4.3,49.142-.263-14.426-.113-6.149h0c-.729-34.609-10.548-42.955-10.548-42.955l2.218-1.179Z" transform="translate(-357.986 -336.762)" fill="#161733"/>
          <path id="Path_12044" data-name="Path 12044" d="M341.99,575.738l6.671-2.108,3.2,9.9a59.085,59.085,0,0,1,2.039,27.992l-2.156,12.789-5.967.732a2.921,2.921,0,0,1-3.072-3.972l5.988-15.157a15.518,15.518,0,0,0,.182-10.922l-6.88-19.26Z" transform="translate(-280.274 -426.91)" fill="#30305b" opacity="0.2" style="mix-blend-mode: multiply;isolation: isolate"/>
          <path id="Path_12045" data-name="Path 12045" d="M447.131,691.186a.8.8,0,0,1,.757-.836l2.947-.148a.8.8,0,0,1,.836.757l.026.5-.79.054a.415.415,0,1,0,.056.829l.775-.054.026.529a.8.8,0,0,1-.757.836l-2.947.148a.8.8,0,0,1-.836-.757l-.095-1.859ZM445.6,689.8l.243,4.778a.8.8,0,0,0,.836.757l5.865-.3a.8.8,0,0,0,.757-.836l-.243-4.778a.8.8,0,0,0-.836-.757l-5.865.3A.8.8,0,0,0,445.6,689.8Z" transform="translate(-357.38 -512.523)" fill="#cda484"/>
          <path id="Path_12046" data-name="Path 12046" d="M342.136,574.174l8.97-2.778-.153-.506-8.993,2.785Z" transform="translate(-280.251 -424.871)" fill="#161733"/>
          <path id="Path_12047" data-name="Path 12047" d="M361.18,628.025l2.9-14.219a49.19,49.19,0,0,0-1.187-24.24L359.356,578.1l-.506.156,3.535,11.466a48.62,48.62,0,0,1,1.177,23.976l-2.931,14.392Z" transform="translate(-292.821 -430.237)" fill="#161733"/>
          <path id="Path_12048" data-name="Path 12048" d="M332.121,319.874c-4.637-7.233-6.315-10.328-2.542-15.751,5.768-1.8,13.088-4.082,13.226-4.105,1.09-.494,2.747-1.494,3.532-1.831a35.176,35.176,0,0,0,3.737-1.637l1.074,2.228C331,311.983,336.763,313.562,339.38,318.854c5.612,10.927,12.587,12.326,23.071,5.642-2.238,6.717-9.113,8.177-14.129,7.978a18.163,18.163,0,0,1-11.339-4.936,4.431,4.431,0,0,1-.829.486,4.551,4.551,0,0,1-4.034-8.154Z" transform="translate(-269.491 -220.7)" fill="#df524c" opacity="0.12" style="mix-blend-mode: multiply;isolation: isolate"/>
          <path id="Path_12049" data-name="Path 12049" d="M329.1,280.7s1.151,3.01-2.1,5.379c-3.039,2.215-8.553-.179-11.986.463s-6.177,5.993-1.946,10.118l3.747,4.931a5.278,5.278,0,0,0-4.56.847c-2.468,2.074-.842,5.543-.842,5.543S300.125,302.98,304.2,291c0,0-.706-.476-2.108.407,0,0-.839-5.9,6.717-9.123,0,0-1.813-.693-5.182.468,0,0,2.376-3.409,9.274-4.32a8.235,8.235,0,0,0-4.665-.151s3.366-3.187,11.581-4.021a13.255,13.255,0,0,0-4.576-.749,26.669,26.669,0,0,1,6.579-1.327c4.5-.284,8.185.22,9.338,4.583.9,3.379,3.274,3.174,2.471,6.911a9.537,9.537,0,0,0-4.53-2.977Z" transform="translate(-250.558 -202.517)" fill="#452b13"/>
          <g id="Group_16465" data-name="Group 16465" transform="translate(79.718 89.098)" opacity="0.5" style="mix-blend-mode: multiply;isolation: isolate">
            <path id="Path_12050" data-name="Path 12050" d="M419.3,355.745a.274.274,0,0,1-.115.059l-3.167.788a.3.3,0,0,1-.363-.215.288.288,0,0,1,.21-.358l2.788-.693a30.34,30.34,0,0,0-6.162-6.451.3.3,0,0,1-.059-.417.3.3,0,0,1,.417-.051c.187.143,4.589,3.553,6.517,6.97a.293.293,0,0,1,.015.261.289.289,0,0,1-.082.11Z" transform="translate(-412.37 -348.344)" fill="#caa37d"/>
          </g>
        </g>
      </g>
    </g>
  </g>
</svg>
