<svg xmlns="http://www.w3.org/2000/svg" xmlns:xlink="http://www.w3.org/1999/xlink" width="243.901" height="266.524" viewBox="0 0 243.901 266.524">
  <defs>
    <linearGradient id="linear-gradient" x1="0.5" x2="0.5" y2="1" gradientUnits="objectBoundingBox">
      <stop offset="0" stop-color="#0061e5"/>
      <stop offset="1" stop-color="#2eabb8"/>
    </linearGradient>
    <clipPath id="clip-path">
      <rect id="Rectangle_2773" data-name="Rectangle 2773" width="243.901" height="266.524" fill="url(#linear-gradient)"/>
    </clipPath>
  </defs>
  <g id="Group_16360" data-name="Group 16360" transform="translate(0)">
    <g id="Group_16285" data-name="Group 16285" transform="translate(0 0)" clip-path="url(#clip-path)">
      <path id="Path_11715" data-name="Path 11715" d="M166.893,98.035a4.2,4.2,0,0,1,.353-1.851,3.01,3.01,0,0,0,.016-2.667c-1.539-2.279-.641-4.628-.426-6.962a11.734,11.734,0,0,0,.354-2.117,2.087,2.087,0,0,1,1.942-2.527,4.067,4.067,0,0,0,1.336-.5,2.737,2.737,0,0,1,4.338,1.792,2.055,2.055,0,0,1,.084,1.139c-.867,2.094.117,4.23-.209,6.338-.2,1.285,1.672,2.636,3.178,2.3a3.591,3.591,0,0,1,2.9.487,3.22,3.22,0,0,0,3.8-.08,4.825,4.825,0,0,1,4.266-.524,11.279,11.279,0,0,0,5.565.066c1.357-.3,2.772-.019,4.147-.36,1.151-.285,2.175-.518,1.266-2.028-.171-.284-.051-.545.015-.828.4-1.716.29-1.867-1.556-2.217-1.092-.207-2.143-.369-2.691-1.61-.491-1.114-.186-1.757.85-2.158a2.092,2.092,0,0,1,1.257-.237c1.537.56,2.884-.2,4.32-.42a3.286,3.286,0,0,0,2.816-1.932,5.527,5.527,0,0,1,3.057-2.916,2.949,2.949,0,0,0,1.928-2.319,2.261,2.261,0,0,1,2.455-1.828,4.4,4.4,0,0,0,4.625-3.154c.531-1.444,1.948-2.1,3.156-2.854.626-.393,1.316.011,1.849.467,1.433,1.226,3.222.742,4.849,1.025.325.056.494-.257.623-.518.747-1.5,2.211-1.947,3.636-2.379,1.393-.422,2.056.3,1.7,1.747-.068.278-.245.547.02.8.317.3.629.133.915-.058.707-.473,1.164-.224,1.478.485.039.088.089.171.136.255,1.678,2.978,1.678,2.977-.562,5.977,1.981-.822,3.566-.309,5.171-.066,1.333.2,2.694.309,3.473,1.7a2.964,2.964,0,0,1-.812,4.308,8.953,8.953,0,0,0-1.337,1.3,1.665,1.665,0,0,0,.214,2.639,2.717,2.717,0,0,1,.413.4c.462.574.991,1.236.432,1.926a1.387,1.387,0,0,1-1.975.022,3.984,3.984,0,0,0-4.534-.69c-1.423.692-2.921,1.157-3.92,2.563a15.232,15.232,0,0,1-4.117,3.808,2.108,2.108,0,0,0-1.049,2.676c.968,3.02-.438,5.371-2.378,7.452-.978,1.049-1.417,2.017-.622,3.328.917,1.51.316,2.929-.452,4.22a22.458,22.458,0,0,0-2.251,5.759c-.437,1.627-1.26,2.106-2.73,1.306a2.851,2.851,0,0,0-2.993-.05c-.284.156-.64.376-.958.177-1.992-1.239-1.046.423-.931,1a13.387,13.387,0,0,1,.262,5.865c-.236.963-.269,2.008-1.448,2.656-.575.316-.607,1.536-.34,2.422.194.643.371,1.294.5,1.952a4.362,4.362,0,0,1-2.421,4.746c-.927.338-1.907-.57-2.974-.286-.231.061-.352-.608-.392-1a24.176,24.176,0,0,0-2.178-8.475,5.315,5.315,0,0,1-.394-2.976,3.332,3.332,0,0,0-.625-2.173,1.423,1.423,0,0,0-1.331-.7c-.667,0-.747.5-.919.934a8.391,8.391,0,0,0-.737,3.5,2.315,2.315,0,0,1-1.254,2.276,1.209,1.209,0,0,1-1.693-.223,1.471,1.471,0,0,0-1.411-.754c-.3.023-.642-.2-.62-.492.091-1.22-.8-2.021-1.193-3.031a5.312,5.312,0,0,1,3.873-6.813c1.892-.431,2.895-2.106,3.888-3.627.714-1.094.317-2.8,2.03-3.4.523-.186-.046-.756-.385-.971a3.837,3.837,0,0,0-3.854-.336,3.167,3.167,0,0,1-3.286-.078,4.175,4.175,0,0,0-2.69-.251c-1.433.117-2.857.342-4.286.515a13.876,13.876,0,0,1-5.253-.713,1.746,1.746,0,0,1-1.411-2.019,42.108,42.108,0,0,0-.08-4.761c-.031-.461-.1-1.182-.754-1.261-.522-.063-.558.555-.784.9-.635.977-1.466.809-2.22.218a8.263,8.263,0,0,1-1.228-1.413c-.561-.7-1.06-1.109-2.048-.481a1.238,1.238,0,0,1-2.068-.879c-.1-.469-.326-.816-.854-.814-.568,0-.7.405-.746.876-.065.7-.383.84-1.132.9-.946.074-1.048,1.215-1.449,1.928s-.293,1.129.452,1.836a17.236,17.236,0,0,0,4.645,2.788c.7.343,1.646.72,1.478,1.732-.176,1.063-1.239,1.084-2.049,1.283a2.5,2.5,0,0,1-1.275-.1c-.947-.3-1.455-.216-1.42.99.028.977-.3,1.731-1.617,1.658-1.25-.069-1.782,1.091-1.162,2.208a3.672,3.672,0,0,0,2.759,1.874c2.706.483,3.779,2.574,2.493,4.994-.558,1.05-.17,1.669.265,2.677.748,1.732,2,3.466,2.208,5.161.375,3.084.384,6.2,1.234,9.246.562,2.016-.144,3.06-2.068,3.838-1.319.533-1.709.271-1.812-1.187-.026-.365.133-.766-.176-1.107-.591.134-.375.7-.566,1.031-.277.488-.4,1.372-1.3.635-.1-.082-.324-.167-.387-.118-1.171.913-1.612.326-1.85-.841-.055-.268-.364-.293-.589-.1a24.5,24.5,0,0,1-7.426,3.932c-1.712.663-2.333,3.421-1.285,4.929a1.744,1.744,0,0,1-.287,2.65,3.215,3.215,0,0,0-1.295,2.326,1.217,1.217,0,0,1-.287.8c-1.793,1.564-2.726,4.136-5.444,4.627-.9.162-1.772.445-2.655.681-.677.18-1.308.272-1.812-.405a.741.741,0,0,0-1.24-.095c-.56.608.183.62.444.877.775.761-.069,1.072-.486,1.347a31.654,31.654,0,0,0-3.651,3.246c-1.958,1.778-3.2,4.079-4.924,6.018a7.168,7.168,0,0,1-2.75,2.039,9.247,9.247,0,0,0-4.5,3.9,10.174,10.174,0,0,1-4.446,3.992,25.719,25.719,0,0,0-3.381,1.937c-1.528,1-2.833,2.043-2.107,4.321.414,1.3-.562,2.35-1.728,3.037a8.83,8.83,0,0,1-5.868.989,2.77,2.77,0,0,0-3.077,1.8c-.4.766-.722,1.584-1.187,2.308a2.058,2.058,0,0,1-2.854.869c-1.481-.785-2.839-.492-3.52,1.068-1.062,2.436-2.343,4.851-1.422,7.726a7.669,7.669,0,0,1,.04,4.828,4.256,4.256,0,0,0,.337,2.806c.346.965,1.156,2.008-.043,3.021-.4.341.084.6.306.795a3.3,3.3,0,0,1,.934,3.568,41.848,41.848,0,0,0-.858,4.237,7.358,7.358,0,0,1-1.935,3.812,7.5,7.5,0,0,0-1.823,6.851c.652,2.9.443,5.824.586,8.732.124,2.534-1.219,3.421-3.686,2.7-.815-.239-1.356-.022-1.624.719a11.637,11.637,0,0,1-3.238,4.695c-1.151,1.051-.829,2.275.551,2.988.649.336,1.832.455,1.662,1.318-.188.953-1.325.46-2,.444a33.057,33.057,0,0,0-5.42.76c-1.9.268-2.861,1.882-3.124,3.583-.438,2.834-2.033,4.366-4.592,5.365a5.189,5.189,0,0,1-4.167.049,9.64,9.64,0,0,1-3.034-1.93c-2.769-2.717-5.273-5.623-6.442-9.433a7.765,7.765,0,0,1-.517-2.088c-.039-3.411-1.236-6.481-2.575-9.537a30.963,30.963,0,0,1-1.411-4.088,22.274,22.274,0,0,0-5.512-10,2.964,2.964,0,0,1-.7-.917c-1.7-4.29-3.551-8.535-4.025-13.2a5.826,5.826,0,0,0-.275-1.7c-1.068-2.474-1.352-5.147-2.044-7.714a4.423,4.423,0,0,0-1.179-1.958,5.019,5.019,0,0,1-1.561-2.4c-.675-3.569-2.793-6.5-4.134-9.764-.936-2.28-.951-4.814-1.122-7.238a123.626,123.626,0,0,0-2.174-13.812,34.464,34.464,0,0,1-.334-4.154,46.686,46.686,0,0,0-1.065-5.768,10.476,10.476,0,0,1,1.421-7.5,3.788,3.788,0,0,0,.028-4.423,4.225,4.225,0,0,1-.312-3.9,2.679,2.679,0,0,0-.326-2.718,1.908,1.908,0,0,1-.158-2.287,1.092,1.092,0,0,0-.3-1.648c-.66-.346-.817.474-1.138.825a2.086,2.086,0,0,0-.42,2.52,2.011,2.011,0,0,1-.557,2.6,2.18,2.18,0,0,0-.721.888c-.542,2.162-2.361,2.768-4.111,3.442-1.437.553-2.961.911-4.339,1.577-2.93,1.415-5.314.291-7.622-1.4a21.378,21.378,0,0,1-4.191-4.562,24.622,24.622,0,0,0-3.516-3.821,13.422,13.422,0,0,1-3.244-4.376,1.6,1.6,0,0,1,.567-2.263,1.348,1.348,0,0,1,2.018.388,1.717,1.717,0,0,0,1.455.744c3.289.17,5.864-1.552,8.493-3.142a1.263,1.263,0,0,0,.295-.316c.358-.453.92-1.028.619-1.5-.339-.534-.945.067-1.4.228-2.132.762-4.225,1.638-6.572,1.461a4.289,4.289,0,0,1-1.964-.4c-2.691-1.69-5.368-3.43-6.6-6.581-.2-.512-.316-.761-.98-.717-1.415.1-2.006-.758-1.6-2.111A3.751,3.751,0,0,1,3.8,118.6c1.013.008,1.623-.262,1.833-1.358A1.513,1.513,0,0,1,7.341,116c2.423.147,4.907-.185,7.2.978a3.525,3.525,0,0,0,3.562-.314c2.439-1.412,2.52-1.388,4.564.449a.839.839,0,0,0,1.28.037c.5-.56,1.812-.431,1.58-1.541a22.08,22.08,0,0,0-1.933-6.433,5.865,5.865,0,0,1-1.011-3.263c.044-.657-.305-.74-.9-.749-2.761-.043-4-1.753-3.226-4.407.228-.785.558-1.539.8-2.321.46-1.488-.112-2.33-1.652-2.48a3.457,3.457,0,0,1-3.378-2.616,3.7,3.7,0,0,1,1.557-4.3A9.933,9.933,0,0,0,18.816,85.8a6.615,6.615,0,0,1,2.554-2.5c1.546-.826,2.749-.511,3.422,1.107a1.7,1.7,0,0,0,2.449,1.151,20.139,20.139,0,0,1,4.534-.824,4.161,4.161,0,0,0,3.3-1.994c1.183-1.728,2.709-3.211,3.664-5.119a3.094,3.094,0,0,1,1.867-1.28A7.542,7.542,0,0,0,44.9,72.291c.7-1.531,1.5-3.018,2.165-4.563a3.655,3.655,0,0,1,2.176-2.152c1.785-.665,3.113-1.743,3.114-3.871a1.843,1.843,0,0,1,.914-1.559,23.617,23.617,0,0,0,3.526-3.4c.133-.136.379-.318.354-.43-.374-1.689.808-3.221.423-4.936-.441-1.967.534-3.373,2.526-3.932.741-.208,1.5-.368,2.22-.635,1.321-.491,1.455-1.482.364-2.388a5.089,5.089,0,0,0-2.415-.864c-1.124-.226-2.155-.556-2.435-1.9-.139-.668-.727-.862-1.312-.958a4.206,4.206,0,0,1-2.777-1.372,2.361,2.361,0,0,0-1.565-.662,2.345,2.345,0,0,1-2.111-2.213A10.241,10.241,0,0,1,49.8,34.6a33.734,33.734,0,0,0-.941-9.453,2.316,2.316,0,0,1,.981-2.634,23.349,23.349,0,0,1,3.655-2.8c.9-.439.8-1.213.047-1.709-1.035-.685-2.149-1.177-1.436-2.791.223-.5-.421-.508-.785-.535a3.434,3.434,0,0,1-2.427-1.152A6.352,6.352,0,0,0,44.654,11.4a2.549,2.549,0,0,1-2.378-2.919,2.553,2.553,0,0,1,1.818-2.365,4.279,4.279,0,0,0,2.487-2.088,2.019,2.019,0,0,1,2.64-1.1c.558.149,1.131.244,1.68.419.833.266,1.469.088,1.693-.8A1.307,1.307,0,0,1,54.221,1.5,4.758,4.758,0,0,0,57.375.717a4.159,4.159,0,0,1,2.606-.7c1.481.143,2.959.345,4.443.421A4.273,4.273,0,0,1,68.1,2.854a6.649,6.649,0,0,0,3.629,2.857,11.038,11.038,0,0,1,5.1,4.224,4.968,4.968,0,0,0,3.321,2.53,2.116,2.116,0,0,1,1.955,1.806c.217,1.131,1.326,1.141,2.1.929a15.454,15.454,0,0,0,4.838-1.777c1.681-1.139,3.695-1.536,5.551-2.261,2.48-.969,4.422.006,6.558.615a12.12,12.12,0,0,1,1.641.545,3.287,3.287,0,0,1,2.031,4.008c-.511,1.848-1.238,3.637-1.906,5.439a3.457,3.457,0,0,1-1.215,1.593c-1.466,1.053-2.695,2.173-2.99,4.143-.144.961-1.172,1.295-2.168,1.35-1.981.111-2.329.588-1.667,2.381a1.8,1.8,0,0,1-.275,1.9c-.774.91-.3,1.475.43,1.984.471.329,1,.57,1.5.857a1.8,1.8,0,0,1,1.032,2.278,1.675,1.675,0,0,0,.636,2.005c1.026.916.855,1.986-.368,2.7a11.116,11.116,0,0,0-2.4,1.832c-1.282,1.31-2.718,1.046-3.552-.593-.291-.571-.633-1.26-1.358-1.032-.684.215-.4.988-.421,1.536a2.546,2.546,0,0,0,.685,1.846A5.071,5.071,0,0,1,92,51.374a2.685,2.685,0,0,0,.092,1.841c.307.645.683,1.081,1.424.454.861-.728,1.567-.386,1.984.481a6.067,6.067,0,0,0,4.144,3.445,3.542,3.542,0,0,1,1.806,1.138,9.609,9.609,0,0,0,4.838,2.98,5.135,5.135,0,0,1,.91.435c2.233,1.321,2.2,1.958.176,3.613a17.4,17.4,0,0,1-3.024,2.391c-.223.113-.5.48-.465.683.255,1.577-.841,2.911-.745,4.451a3.178,3.178,0,0,1-.925,2.216c-.782.944-.484,1.559.509,2.025a1.555,1.555,0,0,0,.529.223c2.256.084,4.067,1.229,5.9,2.378a7.238,7.238,0,0,1,1.614,1.387c1.7,1.921,3.513,3.708,6.311,3.9a5.949,5.949,0,0,1,2.458.8,4.908,4.908,0,0,0,2.327.688,2.068,2.068,0,0,1,2.108,1.23,1.11,1.11,0,0,0,1.006.69,12.368,12.368,0,0,1,2.548.449c1.026.376,1.954.793,2.79-.292a.317.317,0,0,1,.261-.1c2.013.491,4.047-.718,6.059.077a3.529,3.529,0,0,0,.848.155c2.3.291,2.306.288,2.726,2.694.1.56.3,1.077.866,1.222a12.79,12.79,0,0,1,3.274,1.488,1.609,1.609,0,0,0,1.626-.039c1.26-.594,2.083-.242,2.593,1.075.253.654.567.737,1.2.616a6.886,6.886,0,0,1,5.4.958,2.159,2.159,0,0,0,3-.134c.623-.555,1.115-.837,1.789.212.634.986,1.878.923,2.989.54a5.129,5.129,0,0,1,3.951.3" transform="translate(0 -0.003)" fill="url(#linear-gradient)"/>
    </g>
  </g>
</svg>
