<svg id="_11879344_Checklist" data-name="11879344_Checklist" xmlns="http://www.w3.org/2000/svg" width="258.251" height="273.872" viewBox="0 0 258.251 273.872">
  <g id="Group_16488" data-name="Group 16488" transform="translate(0 0)">
    <rect id="Rectangle_2929" data-name="Rectangle 2929" width="181.616" height="249.133" rx="10" transform="translate(0 24.389)" fill="#a9bae6"/>
    <g id="Group_16486" data-name="Group 16486" transform="translate(8.137 34.429)">
      <g id="Group_16468" data-name="Group 16468">
        <rect id="Rectangle_2930" data-name="Rectangle 2930" width="149.484" height="217.143" transform="translate(8.278)" fill="#f6f5f5"/>
        <path id="Path_12051" data-name="Path 12051" d="M242.6,195.33c.046,84.675,2.78,186.795-6.732,209.405-41.894,4.082-90.946,5.392-142.754,5.635L112.8,195.984,242.6,195.33Z" transform="translate(-84.834 -195.328)" fill="#e4e4e4"/>
        <path id="Path_12052" data-name="Path 12052" d="M190.5,397.934c-65.3,10.451-108.938,11-144.335,8.373,4.587-48.827,6.425-129.943,8.276-210.926l78.685.175,71.213,4.7C205.372,284.31,205.485,361.952,190.5,397.934Z" transform="translate(-46.16 -195.369)" fill="#fff"/>
      </g>
      <g id="Group_16485" data-name="Group 16485" transform="translate(23.313 20.027)">
        <rect id="Rectangle_2931" data-name="Rectangle 2931" width="78.659" height="11.981" transform="translate(19.311 0) rotate(1.35)" fill="#708cd5"/>
        <g id="Group_16484" data-name="Group 16484" transform="translate(0 23.373)">
          <g id="Group_16471" data-name="Group 16471" transform="translate(2.638)">
            <g id="Group_16469" data-name="Group 16469" transform="translate(39.127 6.121)">
              <rect id="Rectangle_2932" data-name="Rectangle 2932" width="70.95" height="5.484" transform="translate(0.41 0) rotate(1.35)" fill="#708cd5"/>
              <rect id="Rectangle_2933" data-name="Rectangle 2933" width="48.226" height="5.484" transform="translate(0.129 11.955) rotate(1.35)" fill="#d3dfff"/>
            </g>
            <g id="Group_16470" data-name="Group 16470" transform="translate(0)">
              <rect id="Rectangle_2934" data-name="Rectangle 2934" width="16.797" height="16.797" transform="translate(0.396 5.522) rotate(1.35)" fill="#fff" stroke="#708cd5" stroke-miterlimit="10" stroke-width="6"/>
              <path id="Path_12053" data-name="Path 12053" d="M211.022,451.471c.518,1.985,1.475,10.3,5.639,7.974.961-.536,1.773-1.953,2.491-2.769l3.873-4.4,7.747-8.794c.661-.751-2.26-2.635-3.09-1.692l-6.885,7.818-3.443,3.908c-.8.9-2.639,3.82-3.82,4.079l1.928.622c.455.372-.39-2.269-.409-2.341q-.481-1.84-.961-3.679c-.264-1.014-3.462-2.232-3.069-.73h0Z" transform="translate(-207.887 -441.533)" fill="#ee6f57"/>
            </g>
          </g>
          <g id="Group_16474" data-name="Group 16474" transform="translate(1.917 31.002)">
            <g id="Group_16472" data-name="Group 16472" transform="translate(39.128 5.646)">
              <rect id="Rectangle_2935" data-name="Rectangle 2935" width="58.426" height="5.484" transform="translate(0.411 0) rotate(1.35)" fill="#708cd5"/>
              <rect id="Rectangle_2936" data-name="Rectangle 2936" width="70.95" height="5.484" transform="translate(0.129 11.953) rotate(1.35)" fill="#d3dfff"/>
            </g>
            <g id="Group_16473" data-name="Group 16473" transform="translate(0)">
              <rect id="Rectangle_2937" data-name="Rectangle 2937" width="16.797" height="16.797" transform="translate(0.396 5.047) rotate(1.35)" fill="#fff" stroke="#708cd5" stroke-miterlimit="10" stroke-width="6"/>
              <path id="Path_12054" data-name="Path 12054" d="M206.882,627.351c.518,1.985,1.475,10.3,5.639,7.974.961-.536,1.773-1.953,2.491-2.769q1.935-2.2,3.873-4.4l7.747-8.794c.661-.751-2.26-2.635-3.09-1.692l-6.885,7.818-3.443,3.908c-.8.9-2.639,3.82-3.82,4.079l1.928.622c.455.372-.39-2.269-.409-2.341q-.481-1.84-.961-3.679c-.264-1.013-3.462-2.232-3.069-.73h0Z" transform="translate(-203.756 -617.413)" fill="#ee6f57"/>
            </g>
          </g>
          <g id="Group_16477" data-name="Group 16477" transform="translate(1.2 61.747)">
            <g id="Group_16475" data-name="Group 16475" transform="translate(39.125 5.43)">
              <rect id="Rectangle_2938" data-name="Rectangle 2938" width="70.95" height="5.484" transform="translate(0.412 0) rotate(1.35)" fill="#708cd5"/>
              <rect id="Rectangle_2939" data-name="Rectangle 2939" width="31.73" height="5.484" transform="translate(0.129 11.954) rotate(1.35)" fill="#d3dfff"/>
            </g>
            <g id="Group_16476" data-name="Group 16476" transform="translate(0)">
              <rect id="Rectangle_2940" data-name="Rectangle 2940" width="16.797" height="16.797" transform="translate(0.396 4.829) rotate(1.35)" fill="#fff" stroke="#708cd5" stroke-miterlimit="10" stroke-width="6"/>
              <path id="Path_12055" data-name="Path 12055" d="M204.1,801.771c.518,1.985,1.475,10.3,5.639,7.974.961-.536,1.773-1.953,2.491-2.769q1.935-2.2,3.873-4.4l7.747-8.794c.661-.751-2.26-2.635-3.09-1.692l-6.885,7.818-3.443,3.908c-.8.9-2.639,3.82-3.82,4.079l1.928.622c.455.372-.39-2.269-.409-2.341q-.481-1.84-.961-3.679c-.264-1.014-3.462-2.232-3.069-.73h0Z" transform="translate(-200.749 -791.833)" fill="#ee6f57"/>
            </g>
          </g>
          <g id="Group_16480" data-name="Group 16480" transform="translate(0.479 92.076)">
            <g id="Group_16478" data-name="Group 16478" transform="translate(39.128 5.63)">
              <rect id="Rectangle_2941" data-name="Rectangle 2941" width="70.95" height="5.484" transform="translate(0.41 0) rotate(1.35)" fill="#708cd5"/>
              <rect id="Rectangle_2942" data-name="Rectangle 2942" width="56.049" height="5.484" transform="translate(0.129 11.954) rotate(1.35)" fill="#d3dfff"/>
            </g>
            <g id="Group_16479" data-name="Group 16479" transform="translate(0)">
              <rect id="Rectangle_2943" data-name="Rectangle 2943" width="16.797" height="16.797" transform="translate(0.396 5.03) rotate(1.35)" fill="#fff" stroke="#708cd5" stroke-miterlimit="10" stroke-width="6"/>
              <path id="Path_12056" data-name="Path 12056" d="M200.052,973.831c.518,1.985,1.475,10.3,5.639,7.974.961-.536,1.773-1.953,2.491-2.769l3.873-4.4,7.747-8.794c.661-.751-2.26-2.635-3.09-1.692l-6.885,7.818-3.443,3.908c-.8.9-2.639,3.82-3.82,4.079l1.928.622c.455.372-.39-2.269-.409-2.341q-.481-1.84-.961-3.679c-.264-1.014-3.462-2.232-3.069-.73h0Z" transform="translate(-196.692 -963.893)" fill="#ee6f57"/>
            </g>
          </g>
          <g id="Group_16483" data-name="Group 16483" transform="translate(0 122.139)">
            <g id="Group_16481" data-name="Group 16481" transform="translate(38.9 5.864)">
              <rect id="Rectangle_2944" data-name="Rectangle 2944" width="28.124" height="5.484" transform="translate(0.404 0) rotate(1.35)" fill="#708cd5"/>
              <path id="Path_12057" data-name="Path 12057" d="M470.16,1237.189l-70.931-1.669L399.1,1241c27.442.643,62.384,1.93,69.514.835A6.151,6.151,0,0,0,470.16,1237.189Z" transform="translate(-399.1 -1223.567)" fill="#d3dfff"/>
            </g>
            <g id="Group_16482" data-name="Group 16482">
              <rect id="Rectangle_2945" data-name="Rectangle 2945" width="16.797" height="16.797" transform="translate(0.396 5.269) rotate(1.35)" fill="#fff" stroke="#708cd5" stroke-miterlimit="10" stroke-width="6"/>
              <path id="Path_12058" data-name="Path 12058" d="M196.024,1144.381c.518,1.985,1.475,10.3,5.639,7.974.961-.536,1.773-1.953,2.491-2.769l3.873-4.4,7.747-8.794c.661-.751-2.26-2.635-3.092-1.692l-6.885,7.818q-1.721,1.954-3.443,3.91c-.8.9-2.639,3.82-3.82,4.079l1.928.622c.455.372-.39-2.269-.409-2.341q-.481-1.84-.961-3.679c-.264-1.014-3.462-2.231-3.069-.73Z" transform="translate(-192.893 -1134.443)" fill="#ee6f57"/>
            </g>
          </g>
        </g>
      </g>
    </g>
    <g id="Group_16487" data-name="Group 16487" transform="translate(51.675)">
      <path id="Path_12059" data-name="Path 12059" d="M391.5,25.9v16.76H324.16V25.9a9.674,9.674,0,0,1,2.834-6.846,8.019,8.019,0,0,1,.684-.613,9.609,9.609,0,0,1,6.162-2.221,11.4,11.4,0,0,0,4.95-1.128,11.861,11.861,0,0,0,1.861-1.121,11.394,11.394,0,0,0,4.132-5.859A11.443,11.443,0,0,1,355.726,0h4.2a11.443,11.443,0,0,1,10.943,8.108A11.394,11.394,0,0,0,375,13.968a11.859,11.859,0,0,0,1.861,1.121,11.4,11.4,0,0,0,4.95,1.128A9.693,9.693,0,0,1,391.5,25.9Z" transform="translate(-318.696 0)" fill="#ee6f57"/>
      <path id="Path_12060" data-name="Path 12060" d="M371.424,195.32v12.459H293.16V195.32h5.464v8.228H365.96V195.32Z" transform="translate(-293.16 -160.891)" fill="#e4e4e4"/>
      <ellipse id="Ellipse_1366" data-name="Ellipse 1366" cx="5.972" cy="5.676" rx="5.972" ry="5.676" transform="translate(33.162 4.37)" fill="#fff"/>
    </g>
  </g>
  <g id="Group_16492" data-name="Group 16492" transform="translate(117.989 48.74)">
    <g id="Group_16489" data-name="Group 16489" transform="translate(123.92 18.713)">
      <path id="Path_12061" data-name="Path 12061" d="M1377.977,403.725c-2.388-.451-4.62-4.442-5.4-5.972a1.891,1.891,0,0,1-.171-1.215l.95-5.038s2.193.374,2.024,3.293a2.125,2.125,0,0,0,.153.888l.839,2.2,2.482-1.921-1.361-3.843a6.612,6.612,0,0,1-2.762.2c-1.932-.617.6-2.122,1.4-2.283s2.563-.8,3.363.561,1.281,2.161,1.281,2.161.881-3.042.28-9.848c-.026-.307.74-.3.955-.081.645.656,1.673,2.655,1.728,8.729,0,0,.107-7.079,1.322-7.807,1-.6,1.507,2.864.8,8.739,0,0,1.306-5.087,2.242-5.1,1.578-.016.021,13.587-3.945,17.641l-6.184-1.306Z" transform="translate(-1372.377 -382.667)" fill="#f9b384"/>
      <path id="Path_12062" data-name="Path 12062" d="M1393.055,490.32q-.106,1.015-.232,1.967v.007a57.181,57.181,0,0,1-1.044,6c-.021.085-.035.162-.056.24-1.206,4.943-1.424,7.361-5.542,6.712l-4.238-4.823-.042-.049-.31-.353.86-2.538.113-.331.634-1.847.078-.24,1.086-3.18.437-1.29Z" transform="translate(-1379.966 -471.344)" fill="#f9b384"/>
    </g>
    <g id="Group_16490" data-name="Group 16490" transform="translate(45.22 204.391)">
      <path id="Path_12063" data-name="Path 12063" d="M938.965,1486.58l-1.079,3.37c-7.4,2.429-11.71,5.214-11.986,8.461h21.387L949,1487.125A16.589,16.589,0,0,1,938.965,1486.58Z" transform="translate(-925.9 -1477.671)" fill="#1f3c88"/>
      <path id="Path_12064" data-name="Path 12064" d="M1002.7,1439.04l-2.681,8.38a16.59,16.59,0,0,0,10.037.545l1.105-7.28Z" transform="translate(-986.955 -1438.511)" fill="#f9b384"/>
      <path id="Path_12065" data-name="Path 12065" d="M1176.088,1444.575l.627-8.535-10.047.529-.548,7.869A16.438,16.438,0,0,0,1176.088,1444.575Z" transform="translate(-1123.777 -1436.04)" fill="#f9b384"/>
      <path id="Path_12066" data-name="Path 12066" d="M1184.145,1496.024c-.277-3.247-4.054-7.7-12.339-8.755l.254-3.451a16.436,16.436,0,0,1-9.968-.137l-.862,12.344h22.915Z" transform="translate(-1119.748 -1475.282)" fill="#1f3c88"/>
    </g>
    <path id="Path_12067" data-name="Path 12067" d="M1119.83,429.287l-12.12.085V411.04h11.754l.007,1.121.056,5.81.085,9.328Z" transform="translate(-1030.443 -387.326)" fill="#f9b384"/>
    <path id="Path_12068" data-name="Path 12068" d="M1126.809,428.21c-2.179,2.292-7.862-.3-10.259-2.82l10.2-2.99Z" transform="translate(-1037.724 -396.683)" fill="#e28b6d"/>
    <path id="Path_12069" data-name="Path 12069" d="M1101.081,329.972a26.225,26.225,0,0,1-.317,4.125c-.592,3.695-2.157,6.889-5.768,6.987-8.531.247-10.964-4.632-12.572-8.623s1-13.608,1-13.608l11.042-1.093,6.064,4.971a45.246,45.246,0,0,1,.55,7.241Z" transform="translate(-1009.183 -310.488)" fill="#f9b384"/>
    <path id="Path_12070" data-name="Path 12070" d="M1057.7,296.192s2.434-.113,2.85-6.4a8.6,8.6,0,0,0,10.053-2.769,5.819,5.819,0,0,0,10.2-2.085c1.468-4.2-2.586-10.458-8.491-6.668-5.787-2.924-14.565-2.723-17.091,4.449,0,0-8.782,4.049.516,12.963a10.833,10.833,0,0,0,1.96.508Z" transform="translate(-984.117 -276.505)" fill="#102048"/>
    <path id="Path_12071" data-name="Path 12071" d="M1172.346,888.34l-6.7,101.3H1149.9l3.936-98.3,2.41-1.116Z" transform="translate(-1065.196 -780.492)" fill="#102048"/>
    <path id="Path_12072" data-name="Path 12072" d="M992.945,774.561,981.9,889.724h17.156l16.335-95.656,18.566-5.641.823-20.447-41.365-.94Z" transform="translate(-926.809 -680.573)" fill="#1f3c88"/>
    <path id="Path_12073" data-name="Path 12073" d="M1042.263,756.665c9.37,3.363,31.358-.481,35.924-5.166l-3.243-6.489-36.164,4.805,3.485,6.848Z" transform="translate(-973.663 -662.427)" fill="#102048" opacity="0.6"/>
    <path id="Path_12074" data-name="Path 12074" d="M1103.71,530.026c-.3.127-.613.261-.931.381a63.65,63.65,0,0,1-11.747,3.5,53.912,53.912,0,0,1-7.876.966,45.51,45.51,0,0,1-12.367-1l5.253-48.975.641-5.972s6.875,8.461,14.454-.881Z" transform="translate(-1000.031 -442.516)" fill="#fff"/>
    <path id="Path_12075" data-name="Path 12075" d="M1083.157,554.227a45.51,45.51,0,0,1-12.367-1l5.253-48.975,1.875-2.711C1082.551,512.807,1087.3,537.756,1083.157,554.227Z" transform="translate(-1000.031 -461.873)" fill="#1f3c88" opacity="0.3"/>
    <path id="Path_12076" data-name="Path 12076" d="M835.215,472.04c5.223,22.175,7.372,44.993-.323,70.332-5.706,2.17-11.919,2.145-18.567.234l1.645-46.065L779.25,523.158l-2.35-14.512C791.784,494.414,817.52,472.913,835.215,472.04Z" transform="translate(-757.945 -437.573)" fill="#708cd5"/>
    <path id="Path_12077" data-name="Path 12077" d="M1187.518,579.83a63.641,63.641,0,0,1-11.747,3.5c-2.334-13.382-2.849-35.367-.952-45.287Z" transform="translate(-1084.769 -491.939)" fill="#1f3c88" opacity="0.3"/>
    <path id="Path_12078" data-name="Path 12078" d="M1393.228,520.469c-.021.085-.035.162-.057.24-1.206,4.943-1.424,7.361-5.542,6.712l-4.238-4.823-.042-.049.55-2.891.113-.331.635-1.847.078-.24Z" transform="translate(-1257.496 -474.806)" fill="#e28b6d" opacity="0.6"/>
    <path id="Path_12079" data-name="Path 12079" d="M1220.442,486.492s-10.4,22.034-16.569,22.563c-5.981.513-8.813-5.288-8.813-5.288l4.23,32.2a27,27,0,0,1-16.689,2.348c-5.591-18.156-7.7-41.631-8.121-67.776,4.527.282,13.492.668,16.7,2.732,5.759,3.7,12.868,16.922,12.868,16.922l8.285-11.281Z" transform="translate(-1085.443 -436.338)" fill="#708cd5"/>
    <g id="Group_16491" data-name="Group 16491" transform="translate(1.699 9.048)">
      <path id="Path_12080" data-name="Path 12080" d="M715.97,337.894s.629-10.541,1.7-10.044,3.224,9.663,3.224,9.663l-2.3,3.712-2.626-3.332Z" transform="translate(-709.453 -327.833)" fill="#6f3428"/>
      <path id="Path_12081" data-name="Path 12081" d="M787.729,1464.7l.312,3.469a11.133,11.133,0,0,1-10.091,12.085l-.892.079a11.134,11.134,0,0,1-12.085-10.093l-.312-3.469,23.068-2.073Z" transform="translate(-749.561 -1264.304)" fill="#ee6f57"/>
      <rect id="Rectangle_2946" data-name="Rectangle 2946" width="23.162" height="168.655" transform="translate(0 34.5) rotate(-5.13)" fill="#fbc343"/>
      <rect id="Rectangle_2947" data-name="Rectangle 2947" width="8.227" height="147.832" transform="translate(7.135 30.463) rotate(-5.13)" fill="none" stroke="#6f3428" stroke-miterlimit="10" stroke-width="8" opacity="0.3"/>
      <path id="Path_12082" data-name="Path 12082" d="M776.827,1343.566l-23.063,2.073-.606-6.769-.423-4.7-1.3-14.454,23.07-2.073,1.3,14.454.423,4.7Z" transform="translate(-738.663 -1143.167)" fill="#102048"/>
      <rect id="Rectangle_2948" data-name="Rectangle 2948" width="23.157" height="4.722" transform="translate(14.089 190.99) rotate(-5.14)" fill="#fbc343"/>
      <path id="Path_12083" data-name="Path 12083" d="M679.02,400.346l6.407-25.681a5.507,5.507,0,0,0,4.895-.675l11.768,24.285-23.07,2.073Z" transform="translate(-679.017 -365.854)" fill="#ee6f57"/>
    </g>
    <path id="Path_12084" data-name="Path 12084" d="M1068.1,376.764c-.1-.379-1.824-.9-2.2-1a2.636,2.636,0,0,0-1.8.018c-2.082.941-1.8,3.922-.724,5.489a4.692,4.692,0,0,0,2.545,1.868c.377.108,3.959.152,3.8-.425C1069.724,382.708,1068.106,376.778,1068.1,376.764Z" transform="translate(-993.241 -358.14)" fill="#f9b384"/>
    <path id="Path_12085" data-name="Path 12085" d="M678.682,711.569a3.135,3.135,0,0,0-4.007-2.069c-2.625.906-4.911,2.443-5.263,5.059-.323,2.381.869,9.989,6.189,10.966l-.434-3.908s3.258-.76,3.908-2.172c.457-.989.487-5.115-.393-7.874Z" transform="translate(-669.363 -633.035)" fill="#f9b384"/>
    <path id="Path_12086" data-name="Path 12086" d="M1280.725,573.62c.28,1.664.518,3.335.746,5s.425,3.346.638,5.018l.547,5.029c.159,1.678.316,3.358.418,5.043l-.273.032c-.289-1.664-.523-3.333-.756-5l-.629-5.018c-.178-1.676-.381-3.351-.536-5.029s-.317-3.358-.428-5.043l.273-.032Z" transform="translate(-1172.734 -521.248)" fill="#1f3c88"/>
    <path id="Path_12087" data-name="Path 12087" d="M1006.789,572.006c0,1.87-.049,3.737-.1,5.6s-.143,3.733-.213,5.6l-.3,5.595c-.125,1.863-.254,3.728-.434,5.588l-.275-.012c-.005-1.87.042-3.737.1-5.605l.224-5.6c.107-1.865.187-3.73.315-5.595s.252-3.728.425-5.59l.275.012Z" transform="translate(-946.214 -519.905)" fill="#1f3c88"/>
    <path id="Path_12088" data-name="Path 12088" d="M1134.182,376.39a1.108,1.108,0,0,1-.612,1.4c-.487.109-1-.342-1.151-1.006a1.108,1.108,0,0,1,.612-1.4C1133.517,375.274,1134.034,375.726,1134.182,376.39Z" transform="translate(-1050.763 -357.941)" fill="#102048"/>
    <path id="Path_12089" data-name="Path 12089" d="M1174.037,370.568c-.028.68-.457,1.216-.956,1.2s-.88-.591-.85-1.271.457-1.216.955-1.2S1174.067,369.888,1174.037,370.568Z" transform="translate(-1083.59 -352.94)" fill="#102048"/>
    <path id="Path_12090" data-name="Path 12090" d="M1158.979,379.662a16.3,16.3,0,0,1,.36,1.689,1.294,1.294,0,0,0,.342.585,2.229,2.229,0,0,0,.661.326,1.842,1.842,0,0,1,.835.629,1.093,1.093,0,0,1,.085,1.155,2.147,2.147,0,0,1-.689.7c-.241.162-.474.337-.726.488l-.182-.208c.185-.229.388-.435.583-.652a2.035,2.035,0,0,0,.455-.594c.15-.326-.171-.682-.633-.867a2.48,2.48,0,0,1-.86-.488,1.715,1.715,0,0,1-.453-.932c-.116-.654.016-1.213-.046-1.756l.266-.072Z" transform="translate(-1072.451 -361.477)" fill="#e28b6d"/>
    <path id="Path_12091" data-name="Path 12091" d="M1123.52,363.648a2.065,2.065,0,0,1,.719-1.1,2.184,2.184,0,0,1,1.278-.478,2.364,2.364,0,0,1,2.223,1.25l-.215.171a3.025,3.025,0,0,0-1.973-.719,2.3,2.3,0,0,0-1.782.994l-.25-.116Z" transform="translate(-1043.466 -346.985)" fill="#102048"/>
    <path id="Path_12092" data-name="Path 12092" d="M1164.81,359.556a2.115,2.115,0,0,1,.553-.89,1.85,1.85,0,0,1,1-.5,1.758,1.758,0,0,1,1.87.932l-.22.166a2.229,2.229,0,0,0-1.546-.4,1.977,1.977,0,0,0-.737.27,4.931,4.931,0,0,0-.684.562l-.238-.139Z" transform="translate(-1077.478 -343.756)" fill="#102048"/>
    <path id="Path_12093" data-name="Path 12093" d="M1142.68,418.41c1.23,1.927,2.871,2.136,4.139.108Z" transform="translate(-1059.249 -393.396)" fill="#fff"/>
    <path id="Path_12094" data-name="Path 12094" d="M1182.375,384.37a32.556,32.556,0,0,1-.351,4.6,2.123,2.123,0,0,1-1.474-2.024A2.714,2.714,0,0,1,1182.375,384.37Z" transform="translate(-1090.443 -365.357)" fill="#fc8879" opacity="0.4"/>
    <circle id="Ellipse_1367" data-name="Ellipse 1367" cx="2.274" cy="2.274" r="2.274" transform="translate(78.152 20.572)" fill="#fc8879" opacity="0.4"/>
    <path id="Path_12095" data-name="Path 12095" d="M1073.229,387.332a11.445,11.445,0,0,0-1.271-.837,1.11,1.11,0,0,0-.561-.146,1.259,1.259,0,0,0-.587.27l-.231-.15a1.094,1.094,0,0,1,.67-.721,1.306,1.306,0,0,1,1.021.118,2.637,2.637,0,0,1,1.179,1.3l-.219.167Z" transform="translate(-999.858 -366.443)" fill="#e28b6d"/>
    <path id="Path_12096" data-name="Path 12096" d="M706.008,766.71l-3.273,9.943-.675-7.77A6.775,6.775,0,0,0,706.008,766.71Z" transform="translate(-696.297 -680.302)" fill="#6f3428" opacity="0.6"/>
  </g>
</svg>
