<svg xmlns="http://www.w3.org/2000/svg" xmlns:xlink="http://www.w3.org/1999/xlink" width="180" height="180" viewBox="0 0 180 180">
  <defs>
    <clipPath id="clip-path">
      <rect id="Rectangle_2969" data-name="Rectangle 2969" width="131.981" height="131.981" fill="#0061e5"/>
    </clipPath>
  </defs>
  <g id="Group_16604" data-name="Group 16604" transform="translate(-719 -4016.081)">
    <circle id="Ellipse_1278" data-name="Ellipse 1278" cx="90" cy="90" r="90" transform="translate(719 4016.081)" fill="#c9e6e9"/>
    <g id="Group_16507" data-name="Group 16507" transform="translate(743.01 4040.09)">
      <g id="Group_16506" data-name="Group 16506" clip-path="url(#clip-path)">
        <path id="Path_12122" data-name="Path 12122" d="M180.028,182.507a3.454,3.454,0,0,1,1.774-.6l4.3-.7.514-.084a9.214,9.214,0,0,0,4.768-2.314c.995-.912,1.784-1.748,2.418-2.419,1.286-1.362,1.941-2.021,2.788-2.124a13.477,13.477,0,0,1,3.691.242,21,21,0,0,0,4.008.352l1.193-.036a54.487,54.487,0,0,1,7.393.1c2.944.3,5.28,2.408,7.754,4.644.856.773,1.74,1.573,2.659,2.3a1.119,1.119,0,0,0,.9.222,325.8,325.8,0,0,0,32.589-8.557,56.707,56.707,0,0,1,8.646,30.174c0,.144,0,.283,0,.421-6.178.929-11.268,1.842-15.483,2.777-.295-4.163-3.755-7.275-10.318-9.262-1.407-.5-26.9-9.507-31.936-10.913a15.615,15.615,0,0,0-6.2-.782,16.416,16.416,0,0,0-4.969,1.744,21.287,21.287,0,0,1-3.525,1.435,17.2,17.2,0,0,1-8.553.126c-2.116-.55-4.36-2.27-4.8-4.509v0a4.1,4.1,0,0,1-.079-.762,2.04,2.04,0,0,1,.475-1.481" transform="translate(-142.495 -137.724)" fill="#0061e5"/>
        <path id="Path_12123" data-name="Path 12123" d="M193.52,405.142c-1.791-.721-3.5-1.584-3.86-3-.3-1.17.377-2.506,1.153-3.776a12.953,12.953,0,0,1,3.758-4.349l.032-.02a3.065,3.065,0,0,1,2.895-.2,5.431,5.431,0,0,1,2.215,1.813,6.225,6.225,0,0,1,.838,1.788c-.351.6-.692,1.214-1.019,1.844-1.1,2.127-2.1,4.4-1.967,6.648-1.179.33-2.586-.165-4.044-.752" transform="translate(-150.459 -312.31)" fill="#0061e5"/>
        <path id="Path_12124" data-name="Path 12124" d="M242.667,408.754c-2.067-.918-3.393-1.859-3.615-3.714-.213-1.783.689-3.823,1.7-5.76a32.665,32.665,0,0,1,3.776-5.8,3.232,3.232,0,0,1,2.553-1.213,4.722,4.722,0,0,1,2.025.5c1.716.859,2.539,2.641,2.462,5.146,0,.015,0,.03,0,.045a20.877,20.877,0,0,1-1.917,7.252c-.914,2.121-1.884,3.473-2.883,4.021-1.244.681-2.591.184-4.1-.483" transform="translate(-189.69 -311.312)" fill="#0061e5"/>
        <path id="Path_12125" data-name="Path 12125" d="M296.205,421.12c-1.241.674-2.591.177-4.1-.49-1.595-.705-2.787-1.445-3.33-2.634a13.5,13.5,0,0,0,2.411-3.947,23.215,23.215,0,0,0,2.083-7.762,21.911,21.911,0,0,1,2.266-2.8,3.989,3.989,0,0,1,4.656-.775c1.31.652,1.824,2.956,1.376,6.161a33.178,33.178,0,0,1-2.5,8.272,13.375,13.375,0,0,1-1.444,2.633l0,0h0a4.535,4.535,0,0,1-1.42,1.336" transform="translate(-229.177 -319.259)" fill="#0061e5"/>
        <path id="Path_12126" data-name="Path 12126" d="M349.549,441.834c-1.239.654-2.592.157-4.105-.508a6.37,6.37,0,0,1-3.246-2.406,17.121,17.121,0,0,0,1.323-2.53,35.986,35.986,0,0,0,2.616-8.562c.345-.464.684-.89,1.01-1.265,1.633-1.88,3.91-.965,4.569-.64,3.089,1.525,3.328,5.918.656,12.052-.89,2.042-1.84,3.34-2.823,3.859" transform="translate(-271.572 -337.614)" fill="#0061e5"/>
        <path id="Path_12127" data-name="Path 12127" d="M404.624,460.893a4.7,4.7,0,0,1-2.34,2.924,6.962,6.962,0,0,1-4.748.114c.277-.5.545-1.04.805-1.637a22.27,22.27,0,0,0,2.01-7.364c1.194.481,2.367.945,3.508,1.388a6.223,6.223,0,0,1,.8,1.764,4.936,4.936,0,0,1-.036,2.812" transform="translate(-315.49 -361.038)" fill="#0061e5"/>
        <path id="Path_12128" data-name="Path 12128" d="M138.341,225.446a3.929,3.929,0,0,1-3.412.394c-4.654-1.46-9.469-3.2-12.691-4.409a1.119,1.119,0,0,0-.785,2.1c3.241,1.213,8.082,2.966,12.774,4.438,2.721,1.139,3.926,2.83,3.58,5.026a3.716,3.716,0,0,1-1.775,2.7,6.6,6.6,0,0,1-5.477.2l-.011,0-.015-.006c-5.181-1.624-10.283-3.495-13.65-4.778a1.119,1.119,0,0,0-.8,2.091c3.35,1.277,8.4,3.13,13.564,4.755,1.814,1.506,2.528,3.193,2.174,5.154a3.741,3.741,0,0,1-1.945,2.626,6.472,6.472,0,0,1-5.528.038h0l-.011-.006c-1.532-.592-3.13-1.228-4.756-1.889a6.666,6.666,0,0,0-3.623-5.131,5.872,5.872,0,0,0-6.374.365c-.161-2.581-1.095-4.393-2.746-5.216a6.219,6.219,0,0,0-7.195,1.155,13.252,13.252,0,0,0-1.024,1.124,6.521,6.521,0,0,0-3.382-4.271,5.8,5.8,0,0,0-7.286,1.264c-.519.612-1.048,1.307-1.571,2.063a8.179,8.179,0,0,0-.462-.756,7.588,7.588,0,0,0-3.134-2.58,5.29,5.29,0,0,0-4.992.335l-.035.022a14.889,14.889,0,0,0-4.49,5.084,14.3,14.3,0,0,0-1.007,1.911,36.644,36.644,0,0,1-3.411-2.449,18.347,18.347,0,0,1-3.374-3.919c-1.354-1.918-2.755-3.9-5.213-5.131a130.917,130.917,0,0,0-16.27-5.705c-.075-1.192-.115-2.4-.115-3.609a57.059,57.059,0,0,1,6.45-26.348q9.788,4.2,19.578,8.4a8.9,8.9,0,0,0,6.3,5.659,19.51,19.51,0,0,0,9.7-.133,23,23,0,0,0,3.9-1.576,14.527,14.527,0,0,1,4.29-1.543,13.769,13.769,0,0,1,5.312.718c5,1.395,31.548,10.781,31.815,10.876l.05.016c6.287,1.9,9.144,4.662,8.734,8.453a3.929,3.929,0,0,1-1.666,2.5" transform="translate(-34.82 -152.436)" fill="#0061e5"/>
        <path id="Path_12129" data-name="Path 12129" d="M65.99,0a65.99,65.99,0,1,0,65.99,65.99A65.991,65.991,0,0,0,65.99,0m0,125.693a59.7,59.7,0,1,1,59.7-59.7,59.7,59.7,0,0,1-59.7,59.7" fill="#0061e5"/>
      </g>
    </g>
  </g>
</svg>
