<svg xmlns="http://www.w3.org/2000/svg" xmlns:xlink="http://www.w3.org/1999/xlink" width="180" height="180" viewBox="0 0 180 180">
  <defs>
    <clipPath id="clip-path">
      <rect id="Rectangle_2968" data-name="Rectangle 2968" width="124.904" height="86.725" fill="#0061e5"/>
    </clipPath>
  </defs>
  <g id="Group_16603" data-name="Group 16603" transform="translate(-409 -4016.081)">
    <circle id="Ellipse_1277" data-name="Ellipse 1277" cx="90" cy="90" r="90" transform="translate(409 4016.081)" fill="#c9e6e9"/>
    <g id="Group_16505" data-name="Group 16505" transform="translate(436.548 4062.718)">
      <path id="Path_12115" data-name="Path 12115" d="M61.294,0,20.774,29.542v5.419h3.661v2.981H98.15V34.961h3.66V29.542Z" transform="translate(2.045)" fill="#0061e5"/>
      <path id="Path_12116" data-name="Path 12116" d="M23.139,70.812v4.607h-3.66v4.336h82.457V75.419h-3.66V70.812Z" transform="translate(1.917 6.97)" fill="#0061e5"/>
      <path id="Path_12117" data-name="Path 12117" d="M39.139,38.236V35.53H27.2v2.705h1.27V70.5H27.2v2.7H39.139V70.5H37.867V38.236Z" transform="translate(2.678 3.497)" fill="#0061e5"/>
      <path id="Path_12118" data-name="Path 12118" d="M64.256,38.236V35.53H52.315v2.705h1.272V70.5H52.315v2.7H64.256V70.5H62.98V38.236Z" transform="translate(5.15 3.497)" fill="#0061e5"/>
      <path id="Path_12119" data-name="Path 12119" d="M89.367,38.236V35.53H77.431v2.705H78.7V70.5H77.431v2.7H89.367V70.5H88.093V38.236Z" transform="translate(7.622 3.497)" fill="#0061e5"/>
      <g id="Group_16504" data-name="Group 16504" transform="translate(0 0)">
        <g id="Group_16503" data-name="Group 16503" transform="translate(0 0)" clip-path="url(#clip-path)">
          <path id="Path_12120" data-name="Path 12120" d="M22.677,79.993a.556.556,0,0,0,.126.06.508.508,0,0,0,.434-.907,20.322,20.322,0,0,1-3.808-3.391,12.082,12.082,0,0,0,5.044-6c1.261-3.963-.785-8.157-.785-8.157s-4.1,2.233-5.366,6.2a11.621,11.621,0,0,0,.365,7.1q-.221-.265-.439-.544A13.066,13.066,0,0,0,16.277,71.6a41.333,41.333,0,0,1-2.424-4.3,12.061,12.061,0,0,0,5.972-4.963c1.959-3.667.7-8.162.7-8.162s-4.434,1.451-6.393,5.122a11.249,11.249,0,0,0-1.012,6.428A47.557,47.557,0,0,1,10.269,57.1a11.9,11.9,0,0,0,6.7-3.425c2.744-3.124,2.548-7.786,2.548-7.786s-4.649.4-7.4,3.524A10.8,10.8,0,0,0,9.78,54.7a49.91,49.91,0,0,1-.716-6.639,12.041,12.041,0,0,0,7.3-2.646c3.086-2.786,3.426-7.439,3.426-7.439s-4.664-.137-7.754,2.649A11.009,11.009,0,0,0,9.023,45.9a51.762,51.762,0,0,1,.467-6.795,11.89,11.89,0,0,0,7.288-2.1c3.287-2.552,3.971-7.167,3.971-7.167s-4.64-.482-7.926,2.069a9.9,9.9,0,0,0-2.669,3.335q.539-2.577,1.37-5.233a11.85,11.85,0,0,0,4.647-5.8c1.245-3.97-.832-8.15-.832-8.15s-4.085,2.255-5.323,6.227a11.842,11.842,0,0,0,.534,7.456q-.881,2.816-1.433,5.488A9.951,9.951,0,0,0,8.044,30.99C6.1,27.314,1.665,25.847,1.665,25.847s-1.27,4.492.679,8.168C4,37.142,7.451,38.667,8.44,39.051c-.14,1.022-.236,2.018-.314,3a8.847,8.847,0,0,0-.917-1.988C5,36.542.467,35.409.467,35.409S-.469,39.979,1.745,43.5a11.988,11.988,0,0,0,6.247,4.507c.036.97.1,1.91.188,2.828A8.626,8.626,0,0,0,7.258,49.4C4.654,46.16.022,45.553.022,45.553s-.4,4.651,2.2,7.893c2.25,2.8,6,3.631,6.984,3.808.326,1.426.694,2.755,1.086,3.974a8.423,8.423,0,0,0-.9-.827c-3.278-2.563-7.918-2.095-7.918-2.095s.669,4.618,3.942,7.18a12.018,12.018,0,0,0,7.447,2.121q.573,1.165,1.178,2.234c-.062-.034-.119-.073-.18-.105-3.686-1.927-8.168-.627-8.168-.627s1.5,4.421,5.179,6.347a11.972,11.972,0,0,0,7.639.754,21.939,21.939,0,0,0,4.165,3.783" transform="translate(0 1.581)" fill="#0061e5"/>
          <path id="Path_12121" data-name="Path 12121" d="M106.553,60.4a8.432,8.432,0,0,0-.906.835c.393-1.221.761-2.553,1.089-3.981.982-.176,4.735-1.008,6.983-3.809,2.607-3.243,2.2-7.893,2.2-7.893s-4.626.607-7.232,3.851a8.652,8.652,0,0,0-.922,1.435c.086-.919.152-1.86.187-2.832A11.973,11.973,0,0,0,114.2,43.5c2.214-3.52,1.279-8.091,1.279-8.091s-4.524,1.134-6.743,4.654a8.85,8.85,0,0,0-.916,1.993c-.078-.984-.175-1.982-.314-3,.991-.386,4.44-1.909,6.1-5.036,1.952-3.676.678-8.168.678-8.168s-4.43,1.468-6.378,5.143a9.961,9.961,0,0,0-1.071,4.243c-.372-1.781-.846-3.612-1.433-5.49a11.885,11.885,0,0,0,.537-7.453c-1.24-3.972-5.325-6.227-5.325-6.227s-2.075,4.181-.835,8.15a11.829,11.829,0,0,0,4.646,5.8q.83,2.653,1.37,5.23a9.893,9.893,0,0,0-2.667-3.329c-3.282-2.552-7.927-2.069-7.927-2.069s.682,4.616,3.969,7.167a11.915,11.915,0,0,0,7.29,2.1,51.6,51.6,0,0,1,.467,6.8,10.987,10.987,0,0,0-3.02-5.277c-3.086-2.787-7.747-2.649-7.747-2.649s.337,4.653,3.424,7.439a12.036,12.036,0,0,0,7.3,2.646,49.642,49.642,0,0,1-.715,6.635,10.777,10.777,0,0,0-2.343-5.287c-2.746-3.125-7.394-3.524-7.394-3.524s-.2,4.662,2.547,7.786a11.892,11.892,0,0,0,6.7,3.425,47.63,47.63,0,0,1-2.853,8.632,11.255,11.255,0,0,0-1.007-6.435c-1.964-3.671-6.394-5.122-6.394-5.122s-1.261,4.5.7,8.162a12.073,12.073,0,0,0,5.974,4.964,41.6,41.6,0,0,1-2.415,4.284,13.124,13.124,0,0,0-1.989,2.779q-.217.274-.434.537a11.626,11.626,0,0,0,.368-7.107c-1.261-3.964-5.364-6.2-5.364-6.2s-2.051,4.194-.789,8.157a12.089,12.089,0,0,0,5.046,6,20.3,20.3,0,0,1-3.8,3.39.506.506,0,0,0,.425.907.637.637,0,0,0,.131-.06,21.937,21.937,0,0,0,4.164-3.783,11.967,11.967,0,0,0,7.635-.754c3.689-1.926,5.181-6.347,5.181-6.347s-4.482-1.3-8.167.627c-.063.033-.12.071-.18.105q.6-1.068,1.176-2.234a12.006,12.006,0,0,0,7.445-2.121c3.283-2.563,3.95-7.18,3.95-7.18s-4.645-.468-7.921,2.095" transform="translate(8.964 1.581)" fill="#0061e5"/>
        </g>
      </g>
    </g>
  </g>
</svg>
