<svg xmlns="http://www.w3.org/2000/svg" xmlns:xlink="http://www.w3.org/1999/xlink" width="180" height="180" viewBox="0 0 180 180">
  <defs>
    <clipPath id="clip-path">
      <rect id="Rectangle_2971" data-name="Rectangle 2971" width="104.636" height="92.646" fill="#0061e5"/>
    </clipPath>
  </defs>
  <g id="Group_16606" data-name="Group 16606" transform="translate(-1327 -4016.081)">
    <circle id="Ellipse_1280" data-name="Ellipse 1280" cx="90" cy="90" r="90" transform="translate(1327 4016.081)" fill="#c9e6e9"/>
    <g id="Group_16512" data-name="Group 16512" transform="translate(1364.682 4059.757)">
      <g id="Group_16511" data-name="Group 16511" clip-path="url(#clip-path)">
        <path id="Path_12140" data-name="Path 12140" d="M76.932,36.454a33.564,33.564,0,0,0,1.6-3.493c1.224-3.9-3.333-14.7-7.047-16.49a16.729,16.729,0,0,0-3.057-.82c1.787,3.876,4.543,10.339,8.5,20.8" transform="translate(23.529 5.382)" fill="#0061e5" fill-rule="evenodd"/>
        <path id="Path_12141" data-name="Path 12141" d="M48.1,69.912c-.341-2.97-.413-5.969-.648-9.989,2.87-1.283,3.947-1.8,6.913-2.9C50,40.333,43.966,30.624,40.456,25.84c-9.275,4-16.579,6.974-25.892,10.885C5.978,40.331,3.343,46.5,6.785,54.97,7.806,57.482,8.806,60,9.861,62.5c1.95,4.616,8.523,7.82,13.422,7.333a8.724,8.724,0,0,1,6.092,2.186c3.2,3.032,5.664,6.832,8.762,9.993,2.756,2.811,9.247,2.113,12.709-1.2,3.315-3.173.355-5.488-1.338-7.962a7.115,7.115,0,0,1-1.41-2.936" transform="translate(1.829 8.885)" fill="#0061e5" fill-rule="evenodd"/>
        <path id="Path_12142" data-name="Path 12142" d="M91.987,63.124c-1.809-5.5-4.48-10.722-6.325-16.217a2.184,2.184,0,0,1-.094-.589c-5.7-15.289-9.126-22.856-10.808-26.257a1.208,1.208,0,0,1-.142-.22c-.081-.176-.157-.355-.239-.534-.614-1.2-.9-1.661-.912-1.676l.126-.082c-2.216-5.086-4.1-10.325-6.481-15.33C66.525.985,63.926-.286,62.7.057S60.5,2.638,59.971,4.232c-.685,2.079-.368,4.546-1.258,6.491C54.546,19.83,47.971,26.838,38.8,30.93c-1.465.654-1.38.622-2.853,1.262,3.693,5.132,9.884,15.016,14.2,31.466,10.089-3.423,18.664-4.229,30.032.191,1.881.732,3.436,2.267,5.271,3.173,1.785.884,4.349,3.009,5.609,2.137s1.5-4.31.934-6.034" transform="translate(12.359 0)" fill="#0061e5" fill-rule="evenodd"/>
        <path id="Path_12143" data-name="Path 12143" d="M9.068,59.691S3.042,47.848,3.48,43.752c0,0-5.139,1.695-2.927,9.618s7.727,6.338,8.515,6.321" transform="translate(0 15.043)" fill="#0061e5" fill-rule="evenodd"/>
      </g>
    </g>
  </g>
</svg>
